solid spacer
facet normal 0.0 0.0 -1.0
  outer loop
    vertex 45.97451519013292 55.193464995280124 0.0
    vertex 45.97451519013293 53.640550724665 0.0
    vertex 45.87229266900013 54.41700785997256 0.0
  endloop
endfacet
facet normal 0.0 0.0 -1.0
  outer loop
    vertex 45.97451519013293 53.640550724665 0.0
    vertex 45.97451519013292 55.193464995280124 0.0
    vertex 46.27421645764681 55.917007859972564 0.0
  endloop
endfacet
facet normal 0.0 0.0 -1.0
  outer loop
    vertex 45.97451519013293 53.640550724665 0.0
    vertex 46.27421645764681 55.917007859972564 0.0
    vertex 46.274216457646816 52.91700785997256 0.0
  endloop
endfacet
facet normal 0.0 0.0 -1.0
  outer loop
    vertex 46.274216457646816 52.91700785997256 0.0
    vertex 46.27421645764681 55.917007859972564 0.0
    vertex 46.750972325440486 56.5383282035322 0.0
  endloop
endfacet
facet normal 0.0 0.0 -1.0
  outer loop
    vertex 46.274216457646816 52.91700785997256 0.0
    vertex 46.750972325440486 56.5383282035322 0.0
    vertex 46.75097232544049 52.29568751641292 0.0
  endloop
endfacet
facet normal 0.0 0.0 -1.0
  outer loop
    vertex 46.75097232544049 52.29568751641292 0.0
    vertex 46.750972325440486 56.5383282035322 0.0
    vertex 47.372292669000124 57.01508407132588 0.0
  endloop
endfacet
facet normal 0.0 0.0 -1.0
  outer loop
    vertex 46.75097232544049 52.29568751641292 0.0
    vertex 47.372292669000124 57.01508407132588 0.0
    vertex 47.17229266900012 54.417007859972564 0.0
  endloop
endfacet
facet normal 0.0 0.0 -1.0
  outer loop
    vertex 47.17229266900012 54.417007859972564 0.0
    vertex 47.372292669000124 57.01508407132588 0.0
    vertex 47.23021876430871 54.85700023664685 0.0
  endloop
endfacet
facet normal 0.0 0.0 -1.0
  outer loop
    vertex 47.23021876430871 54.85700023664685 0.0
    vertex 47.372292669000124 57.01508407132588 0.0
    vertex 47.40004948256658 55.267007859972566 0.0
  endloop
endfacet
facet normal 0.0 0.0 -1.0
  outer loop
    vertex 47.40004948256658 55.267007859972566 0.0
    vertex 47.372292669000124 57.01508407132588 0.0
    vertex 48.09583553369256 57.31478533883976 0.0
  endloop
endfacet
facet normal 0.0 0.0 -1.0
  outer loop
    vertex 47.40004948256658 55.267007859972566 0.0
    vertex 48.09583553369256 57.31478533883976 0.0
    vertex 47.67021114098299 55.61908938798969 0.0
  endloop
endfacet
facet normal 0.0 0.0 -1.0
  outer loop
    vertex 47.67021114098299 55.61908938798969 0.0
    vertex 48.09583553369256 57.31478533883976 0.0
    vertex 48.02229266900012 55.889251046406116 0.0
  endloop
endfacet
facet normal 0.0 0.0 -1.0
  outer loop
    vertex 48.02229266900012 55.889251046406116 0.0
    vertex 48.09583553369256 57.31478533883976 0.0
    vertex 48.43230029232584 56.059081764663986 0.0
  endloop
endfacet
facet normal 0.0 0.0 -1.0
  outer loop
    vertex 48.43230029232584 56.059081764663986 0.0
    vertex 48.09583553369256 57.31478533883976 0.0
    vertex 48.872292669000124 57.41700785997256 0.0
  endloop
endfacet
facet normal 0.0 0.0 -1.0
  outer loop
    vertex 48.43230029232584 56.059081764663986 0.0
    vertex 48.872292669000124 57.41700785997256 0.0
    vertex 48.872292669000124 56.117007859972574 0.0
  endloop
endfacet
facet normal 0.0 0.0 -1.0
  outer loop
    vertex 48.872292669000124 56.117007859972574 0.0
    vertex 48.872292669000124 57.41700785997256 0.0
    vertex 49.648749804307684 57.31478533883977 0.0
  endloop
endfacet
facet normal 0.0 0.0 -1.0
  outer loop
    vertex 48.872292669000124 56.117007859972574 0.0
    vertex 49.648749804307684 57.31478533883977 0.0
    vertex 49.312285045674415 56.059081764663986 0.0
  endloop
endfacet
facet normal 0.0 0.0 -1.0
  outer loop
    vertex 49.312285045674415 56.059081764663986 0.0
    vertex 49.648749804307684 57.31478533883977 0.0
    vertex 49.722292669000126 55.889251046406116 0.0
  endloop
endfacet
facet normal 0.0 0.0 -1.0
  outer loop
    vertex 49.722292669000126 55.889251046406116 0.0
    vertex 49.648749804307684 57.31478533883977 0.0
    vertex 50.37229266900012 57.01508407132588 0.0
  endloop
endfacet
facet normal 0.0 0.0 -1.0
  outer loop
    vertex 49.722292669000126 55.889251046406116 0.0
    vertex 50.37229266900012 57.01508407132588 0.0
    vertex 50.074374197017264 55.6190893879897 0.0
  endloop
endfacet
facet normal 0.0 0.0 -1.0
  outer loop
    vertex 50.074374197017264 55.6190893879897 0.0
    vertex 50.37229266900012 57.01508407132588 0.0
    vertex 50.344535855433676 55.267007859972566 0.0
  endloop
endfacet
facet normal 0.0 0.0 -1.0
  outer loop
    vertex 50.344535855433676 55.267007859972566 0.0
    vertex 50.37229266900012 57.01508407132588 0.0
    vertex 50.51436657369155 54.85700023664685 0.0
  endloop
endfacet
facet normal 0.0 0.0 -1.0
  outer loop
    vertex 50.51436657369155 54.85700023664685 0.0
    vertex 50.37229266900012 57.01508407132588 0.0
    vertex 50.993613012559756 56.53832820353221 0.0
  endloop
endfacet
facet normal 0.0 0.0 -1.0
  outer loop
    vertex 50.51436657369155 54.85700023664685 0.0
    vertex 50.993613012559756 56.53832820353221 0.0
    vertex 50.57229266900013 54.417007859972564 0.0
  endloop
endfacet
facet normal 0.0 0.0 -1.0
  outer loop
    vertex 47.17229266900012 54.417007859972564 0.0
    vertex 47.37229266900014 51.818931648619255 0.0
    vertex 46.75097232544049 52.29568751641292 0.0
  endloop
endfacet
facet normal 0.0 0.0 -1.0
  outer loop
    vertex 47.37229266900014 51.818931648619255 0.0
    vertex 47.17229266900012 54.417007859972564 0.0
    vertex 47.23021876430871 53.97701548329828 0.0
  endloop
endfacet
facet normal 0.0 0.0 -1.0
  outer loop
    vertex 47.37229266900014 51.818931648619255 0.0
    vertex 47.23021876430871 53.97701548329828 0.0
    vertex 47.40004948256658 53.56700785997257 0.0
  endloop
endfacet
facet normal 0.0 0.0 -1.0
  outer loop
    vertex 47.37229266900014 51.818931648619255 0.0
    vertex 47.40004948256658 53.56700785997257 0.0
    vertex 48.09583553369257 51.51923038110536 0.0
  endloop
endfacet
facet normal 0.0 0.0 -1.0
  outer loop
    vertex 48.09583553369257 51.51923038110536 0.0
    vertex 47.40004948256658 53.56700785997257 0.0
    vertex 47.67021114098299 53.21492633195544 0.0
  endloop
endfacet
facet normal 0.0 0.0 -1.0
  outer loop
    vertex 48.09583553369257 51.51923038110536 0.0
    vertex 47.67021114098299 53.21492633195544 0.0
    vertex 48.02229266900013 52.94476467353901 0.0
  endloop
endfacet
facet normal 0.0 0.0 -1.0
  outer loop
    vertex 48.09583553369257 51.51923038110536 0.0
    vertex 48.02229266900013 52.94476467353901 0.0
    vertex 48.43230029232584 52.77493395528114 0.0
  endloop
endfacet
facet normal 0.0 0.0 -1.0
  outer loop
    vertex 48.09583553369257 51.51923038110536 0.0
    vertex 48.43230029232584 52.77493395528114 0.0
    vertex 48.87229266900013 51.41700785997257 0.0
  endloop
endfacet
facet normal 0.0 0.0 -1.0
  outer loop
    vertex 48.87229266900013 51.41700785997257 0.0
    vertex 48.43230029232584 52.77493395528114 0.0
    vertex 48.872292669000124 52.717007859972554 0.0
  endloop
endfacet
facet normal 0.0 0.0 -1.0
  outer loop
    vertex 48.87229266900013 51.41700785997257 0.0
    vertex 48.872292669000124 52.717007859972554 0.0
    vertex 49.312285045674415 52.77493395528114 0.0
  endloop
endfacet
facet normal 0.0 0.0 -1.0
  outer loop
    vertex 48.87229266900013 51.41700785997257 0.0
    vertex 49.312285045674415 52.77493395528114 0.0
    vertex 49.6487498043077 51.51923038110537 0.0
  endloop
endfacet
facet normal 0.0 0.0 -1.0
  outer loop
    vertex 49.6487498043077 51.51923038110537 0.0
    vertex 49.312285045674415 52.77493395528114 0.0
    vertex 49.72229266900013 52.94476467353901 0.0
  endloop
endfacet
facet normal 0.0 0.0 -1.0
  outer loop
    vertex 49.6487498043077 51.51923038110537 0.0
    vertex 49.72229266900013 52.94476467353901 0.0
    vertex 50.37229266900013 51.818931648619255 0.0
  endloop
endfacet
facet normal 0.0 0.0 -1.0
  outer loop
    vertex 50.37229266900013 51.818931648619255 0.0
    vertex 49.72229266900013 52.94476467353901 0.0
    vertex 50.074374197017264 53.21492633195544 0.0
  endloop
endfacet
facet normal 0.0 0.0 -1.0
  outer loop
    vertex 50.37229266900013 51.818931648619255 0.0
    vertex 50.074374197017264 53.21492633195544 0.0
    vertex 50.344535855433676 53.56700785997257 0.0
  endloop
endfacet
facet normal 0.0 0.0 -1.0
  outer loop
    vertex 50.37229266900013 51.818931648619255 0.0
    vertex 50.344535855433676 53.56700785997257 0.0
    vertex 50.51436657369155 53.97701548329828 0.0
  endloop
endfacet
facet normal 0.0 0.0 -1.0
  outer loop
    vertex 50.37229266900013 51.818931648619255 0.0
    vertex 50.51436657369155 53.97701548329828 0.0
    vertex 50.99361301255977 52.295687516412926 0.0
  endloop
endfacet
facet normal 0.0 0.0 -1.0
  outer loop
    vertex 50.99361301255977 52.295687516412926 0.0
    vertex 50.51436657369155 53.97701548329828 0.0
    vertex 50.57229266900013 54.417007859972564 0.0
  endloop
endfacet
facet normal 0.0 0.0 -1.0
  outer loop
    vertex 50.99361301255977 52.295687516412926 0.0
    vertex 50.57229266900013 54.417007859972564 0.0
    vertex 50.993613012559756 56.53832820353221 0.0
  endloop
endfacet
facet normal 0.0 0.0 -1.0
  outer loop
    vertex 50.99361301255977 52.295687516412926 0.0
    vertex 50.993613012559756 56.53832820353221 0.0
    vertex 51.47036888035343 55.91700785997257 0.0
  endloop
endfacet
facet normal 0.0 0.0 -1.0
  outer loop
    vertex 50.99361301255977 52.295687516412926 0.0
    vertex 51.47036888035343 55.91700785997257 0.0
    vertex 51.47036888035345 52.91700785997257 0.0
  endloop
endfacet
facet normal 0.0 0.0 -1.0
  outer loop
    vertex 51.47036888035345 52.91700785997257 0.0
    vertex 51.47036888035343 55.91700785997257 0.0
    vertex 51.77007014786733 55.19346499528013 0.0
  endloop
endfacet
facet normal 0.0 0.0 -1.0
  outer loop
    vertex 51.47036888035345 52.91700785997257 0.0
    vertex 51.77007014786733 55.19346499528013 0.0
    vertex 51.77007014786733 53.640550724665005 0.0
  endloop
endfacet
facet normal 0.0 0.0 -1.0
  outer loop
    vertex 51.77007014786733 53.640550724665005 0.0
    vertex 51.77007014786733 55.19346499528013 0.0
    vertex 51.872292669000124 54.417007859972564 0.0
  endloop
endfacet
facet normal 0.0 0.0 1.0
  outer loop
    vertex 47.37229266900014 51.818931648619255 9.999999999999996
    vertex 47.17229266900012 54.417007859972564 9.999999999999996
    vertex 46.75097232544049 52.29568751641292 9.999999999999996
  endloop
endfacet
facet normal 0.0 0.0 1.0
  outer loop
    vertex 47.17229266900012 54.417007859972564 9.999999999999996
    vertex 47.37229266900014 51.818931648619255 9.999999999999996
    vertex 47.23021876430871 53.97701548329828 9.999999999999996
  endloop
endfacet
facet normal 0.0 0.0 1.0
  outer loop
    vertex 47.23021876430871 53.97701548329828 9.999999999999996
    vertex 47.37229266900014 51.818931648619255 9.999999999999996
    vertex 47.40004948256658 53.56700785997257 9.999999999999996
  endloop
endfacet
facet normal 0.0 0.0 1.0
  outer loop
    vertex 47.40004948256658 53.56700785997257 9.999999999999996
    vertex 47.37229266900014 51.818931648619255 9.999999999999996
    vertex 48.09583553369257 51.51923038110536 9.999999999999996
  endloop
endfacet
facet normal 0.0 0.0 1.0
  outer loop
    vertex 47.40004948256658 53.56700785997257 9.999999999999996
    vertex 48.09583553369257 51.51923038110536 9.999999999999996
    vertex 47.67021114098299 53.21492633195544 9.999999999999996
  endloop
endfacet
facet normal 0.0 0.0 1.0
  outer loop
    vertex 47.67021114098299 53.21492633195544 9.999999999999996
    vertex 48.09583553369257 51.51923038110536 9.999999999999996
    vertex 48.02229266900013 52.94476467353901 9.999999999999996
  endloop
endfacet
facet normal 0.0 0.0 1.0
  outer loop
    vertex 48.02229266900013 52.94476467353901 9.999999999999996
    vertex 48.09583553369257 51.51923038110536 9.999999999999996
    vertex 48.43230029232584 52.77493395528114 9.999999999999996
  endloop
endfacet
facet normal 0.0 0.0 1.0
  outer loop
    vertex 48.43230029232584 52.77493395528114 9.999999999999996
    vertex 48.09583553369257 51.51923038110536 9.999999999999996
    vertex 48.87229266900013 51.41700785997257 9.999999999999996
  endloop
endfacet
facet normal 0.0 0.0 1.0
  outer loop
    vertex 48.43230029232584 52.77493395528114 9.999999999999996
    vertex 48.87229266900013 51.41700785997257 9.999999999999996
    vertex 48.872292669000124 52.717007859972554 9.999999999999996
  endloop
endfacet
facet normal 0.0 0.0 1.0
  outer loop
    vertex 48.872292669000124 52.717007859972554 9.999999999999996
    vertex 48.87229266900013 51.41700785997257 9.999999999999996
    vertex 49.312285045674415 52.77493395528114 9.999999999999996
  endloop
endfacet
facet normal 0.0 0.0 1.0
  outer loop
    vertex 49.312285045674415 52.77493395528114 9.999999999999996
    vertex 48.87229266900013 51.41700785997257 9.999999999999996
    vertex 49.6487498043077 51.51923038110537 9.999999999999996
  endloop
endfacet
facet normal 0.0 0.0 1.0
  outer loop
    vertex 49.312285045674415 52.77493395528114 9.999999999999996
    vertex 49.6487498043077 51.51923038110537 9.999999999999996
    vertex 49.72229266900013 52.94476467353901 9.999999999999996
  endloop
endfacet
facet normal 0.0 0.0 1.0
  outer loop
    vertex 49.72229266900013 52.94476467353901 9.999999999999996
    vertex 49.6487498043077 51.51923038110537 9.999999999999996
    vertex 50.37229266900013 51.818931648619255 9.999999999999996
  endloop
endfacet
facet normal 0.0 0.0 1.0
  outer loop
    vertex 49.72229266900013 52.94476467353901 9.999999999999996
    vertex 50.37229266900013 51.818931648619255 9.999999999999996
    vertex 50.074374197017264 53.21492633195544 9.999999999999996
  endloop
endfacet
facet normal 0.0 0.0 1.0
  outer loop
    vertex 50.074374197017264 53.21492633195544 9.999999999999996
    vertex 50.37229266900013 51.818931648619255 9.999999999999996
    vertex 50.344535855433676 53.56700785997257 9.999999999999996
  endloop
endfacet
facet normal 0.0 0.0 1.0
  outer loop
    vertex 50.344535855433676 53.56700785997257 9.999999999999996
    vertex 50.37229266900013 51.818931648619255 9.999999999999996
    vertex 50.51436657369155 53.97701548329828 9.999999999999996
  endloop
endfacet
facet normal 0.0 0.0 1.0
  outer loop
    vertex 50.51436657369155 53.97701548329828 9.999999999999996
    vertex 50.37229266900013 51.818931648619255 9.999999999999996
    vertex 50.99361301255977 52.295687516412926 9.999999999999996
  endloop
endfacet
facet normal 0.0 0.0 1.0
  outer loop
    vertex 50.51436657369155 53.97701548329828 9.999999999999996
    vertex 50.99361301255977 52.295687516412926 9.999999999999996
    vertex 50.57229266900013 54.417007859972564 9.999999999999996
  endloop
endfacet
facet normal 0.0 0.0 1.0
  outer loop
    vertex 50.57229266900013 54.417007859972564 9.999999999999996
    vertex 50.99361301255977 52.295687516412926 9.999999999999996
    vertex 50.993613012559756 56.53832820353221 9.999999999999996
  endloop
endfacet
facet normal 0.0 0.0 1.0
  outer loop
    vertex 50.993613012559756 56.53832820353221 9.999999999999996
    vertex 50.99361301255977 52.295687516412926 9.999999999999996
    vertex 51.47036888035343 55.91700785997257 9.999999999999996
  endloop
endfacet
facet normal 0.0 0.0 1.0
  outer loop
    vertex 51.47036888035343 55.91700785997257 9.999999999999996
    vertex 50.99361301255977 52.295687516412926 9.999999999999996
    vertex 51.47036888035345 52.91700785997257 9.999999999999996
  endloop
endfacet
facet normal 0.0 0.0 1.0
  outer loop
    vertex 51.47036888035343 55.91700785997257 9.999999999999996
    vertex 51.47036888035345 52.91700785997257 9.999999999999996
    vertex 51.77007014786733 55.19346499528013 9.999999999999996
  endloop
endfacet
facet normal 0.0 0.0 1.0
  outer loop
    vertex 51.77007014786733 55.19346499528013 9.999999999999996
    vertex 51.47036888035345 52.91700785997257 9.999999999999996
    vertex 51.77007014786733 53.640550724665005 9.999999999999996
  endloop
endfacet
facet normal 0.0 0.0 1.0
  outer loop
    vertex 51.77007014786733 55.19346499528013 9.999999999999996
    vertex 51.77007014786733 53.640550724665005 9.999999999999996
    vertex 51.872292669000124 54.417007859972564 9.999999999999996
  endloop
endfacet
facet normal 0.0 0.0 1.0
  outer loop
    vertex 45.97451519013293 53.640550724665 9.999999999999996
    vertex 45.97451519013292 55.193464995280124 9.999999999999996
    vertex 45.87229266900013 54.41700785997256 9.999999999999996
  endloop
endfacet
facet normal 0.0 0.0 1.0
  outer loop
    vertex 45.97451519013292 55.193464995280124 9.999999999999996
    vertex 45.97451519013293 53.640550724665 9.999999999999996
    vertex 46.27421645764681 55.917007859972564 9.999999999999996
  endloop
endfacet
facet normal 0.0 0.0 1.0
  outer loop
    vertex 46.27421645764681 55.917007859972564 9.999999999999996
    vertex 45.97451519013293 53.640550724665 9.999999999999996
    vertex 46.274216457646816 52.91700785997256 9.999999999999996
  endloop
endfacet
facet normal 0.0 0.0 1.0
  outer loop
    vertex 46.27421645764681 55.917007859972564 9.999999999999996
    vertex 46.274216457646816 52.91700785997256 9.999999999999996
    vertex 46.750972325440486 56.5383282035322 9.999999999999996
  endloop
endfacet
facet normal 0.0 0.0 1.0
  outer loop
    vertex 46.750972325440486 56.5383282035322 9.999999999999996
    vertex 46.274216457646816 52.91700785997256 9.999999999999996
    vertex 46.75097232544049 52.29568751641292 9.999999999999996
  endloop
endfacet
facet normal 0.0 0.0 1.0
  outer loop
    vertex 46.750972325440486 56.5383282035322 9.999999999999996
    vertex 46.75097232544049 52.29568751641292 9.999999999999996
    vertex 47.372292669000124 57.01508407132588 9.999999999999996
  endloop
endfacet
facet normal 0.0 0.0 1.0
  outer loop
    vertex 47.372292669000124 57.01508407132588 9.999999999999996
    vertex 46.75097232544049 52.29568751641292 9.999999999999996
    vertex 47.17229266900012 54.417007859972564 9.999999999999996
  endloop
endfacet
facet normal 0.0 0.0 1.0
  outer loop
    vertex 47.372292669000124 57.01508407132588 9.999999999999996
    vertex 47.17229266900012 54.417007859972564 9.999999999999996
    vertex 47.23021876430871 54.85700023664685 9.999999999999996
  endloop
endfacet
facet normal 0.0 0.0 1.0
  outer loop
    vertex 47.372292669000124 57.01508407132588 9.999999999999996
    vertex 47.23021876430871 54.85700023664685 9.999999999999996
    vertex 47.40004948256658 55.267007859972566 9.999999999999996
  endloop
endfacet
facet normal 0.0 0.0 1.0
  outer loop
    vertex 47.372292669000124 57.01508407132588 9.999999999999996
    vertex 47.40004948256658 55.267007859972566 9.999999999999996
    vertex 48.09583553369256 57.31478533883976 9.999999999999996
  endloop
endfacet
facet normal 0.0 0.0 1.0
  outer loop
    vertex 48.09583553369256 57.31478533883976 9.999999999999996
    vertex 47.40004948256658 55.267007859972566 9.999999999999996
    vertex 47.67021114098299 55.61908938798969 9.999999999999996
  endloop
endfacet
facet normal 0.0 0.0 1.0
  outer loop
    vertex 48.09583553369256 57.31478533883976 9.999999999999996
    vertex 47.67021114098299 55.61908938798969 9.999999999999996
    vertex 48.02229266900012 55.889251046406116 9.999999999999996
  endloop
endfacet
facet normal 0.0 0.0 1.0
  outer loop
    vertex 48.09583553369256 57.31478533883976 9.999999999999996
    vertex 48.02229266900012 55.889251046406116 9.999999999999996
    vertex 48.43230029232584 56.059081764663986 9.999999999999996
  endloop
endfacet
facet normal 0.0 0.0 1.0
  outer loop
    vertex 48.09583553369256 57.31478533883976 9.999999999999996
    vertex 48.43230029232584 56.059081764663986 9.999999999999996
    vertex 48.872292669000124 57.41700785997256 9.999999999999996
  endloop
endfacet
facet normal 0.0 0.0 1.0
  outer loop
    vertex 48.872292669000124 57.41700785997256 9.999999999999996
    vertex 48.43230029232584 56.059081764663986 9.999999999999996
    vertex 48.872292669000124 56.117007859972574 9.999999999999996
  endloop
endfacet
facet normal 0.0 0.0 1.0
  outer loop
    vertex 48.872292669000124 57.41700785997256 9.999999999999996
    vertex 48.872292669000124 56.117007859972574 9.999999999999996
    vertex 49.648749804307684 57.31478533883977 9.999999999999996
  endloop
endfacet
facet normal 0.0 0.0 1.0
  outer loop
    vertex 49.648749804307684 57.31478533883977 9.999999999999996
    vertex 48.872292669000124 56.117007859972574 9.999999999999996
    vertex 49.312285045674415 56.059081764663986 9.999999999999996
  endloop
endfacet
facet normal 0.0 0.0 1.0
  outer loop
    vertex 49.648749804307684 57.31478533883977 9.999999999999996
    vertex 49.312285045674415 56.059081764663986 9.999999999999996
    vertex 49.722292669000126 55.889251046406116 9.999999999999996
  endloop
endfacet
facet normal 0.0 0.0 1.0
  outer loop
    vertex 49.648749804307684 57.31478533883977 9.999999999999996
    vertex 49.722292669000126 55.889251046406116 9.999999999999996
    vertex 50.37229266900012 57.01508407132588 9.999999999999996
  endloop
endfacet
facet normal 0.0 0.0 1.0
  outer loop
    vertex 50.37229266900012 57.01508407132588 9.999999999999996
    vertex 49.722292669000126 55.889251046406116 9.999999999999996
    vertex 50.074374197017264 55.6190893879897 9.999999999999996
  endloop
endfacet
facet normal 0.0 0.0 1.0
  outer loop
    vertex 50.37229266900012 57.01508407132588 9.999999999999996
    vertex 50.074374197017264 55.6190893879897 9.999999999999996
    vertex 50.344535855433676 55.267007859972566 9.999999999999996
  endloop
endfacet
facet normal 0.0 0.0 1.0
  outer loop
    vertex 50.37229266900012 57.01508407132588 9.999999999999996
    vertex 50.344535855433676 55.267007859972566 9.999999999999996
    vertex 50.51436657369155 54.85700023664685 9.999999999999996
  endloop
endfacet
facet normal 0.0 0.0 1.0
  outer loop
    vertex 50.37229266900012 57.01508407132588 9.999999999999996
    vertex 50.51436657369155 54.85700023664685 9.999999999999996
    vertex 50.993613012559756 56.53832820353221 9.999999999999996
  endloop
endfacet
facet normal 0.0 0.0 1.0
  outer loop
    vertex 50.993613012559756 56.53832820353221 9.999999999999996
    vertex 50.51436657369155 54.85700023664685 9.999999999999996
    vertex 50.57229266900013 54.417007859972564 9.999999999999996
  endloop
endfacet
facet normal -0.3826834323650957 -0.9238795325112844 -0.0
  outer loop
    vertex 48.09583553369257 51.51923038110536 9.999999999999996
    vertex 47.37229266900014 51.818931648619255 0.0
    vertex 48.09583553369257 51.51923038110536 0.0
  endloop
endfacet
facet normal -0.3826834323650957 -0.9238795325112844 -0.0
  outer loop
    vertex 47.37229266900014 51.818931648619255 0.0
    vertex 48.09583553369257 51.51923038110536 9.999999999999996
    vertex 47.37229266900014 51.818931648619255 9.999999999999996
  endloop
endfacet
facet normal -0.6087614290087117 -0.793353340291242 -0.0
  outer loop
    vertex 47.37229266900014 51.818931648619255 9.999999999999996
    vertex 46.75097232544049 52.29568751641292 0.0
    vertex 47.37229266900014 51.818931648619255 0.0
  endloop
endfacet
facet normal -0.6087614290087117 -0.793353340291242 -0.0
  outer loop
    vertex 46.75097232544049 52.29568751641292 0.0
    vertex 47.37229266900014 51.818931648619255 9.999999999999996
    vertex 46.75097232544049 52.29568751641292 9.999999999999996
  endloop
endfacet
facet normal -0.7933533402912324 -0.6087614290087242 -0.0
  outer loop
    vertex 46.274216457646816 52.91700785997256 9.999999999999996
    vertex 46.75097232544049 52.29568751641292 0.0
    vertex 46.75097232544049 52.29568751641292 9.999999999999996
  endloop
endfacet
facet normal -0.7933533402912324 -0.6087614290087242 -0.0
  outer loop
    vertex 46.75097232544049 52.29568751641292 0.0
    vertex 46.274216457646816 52.91700785997256 9.999999999999996
    vertex 46.274216457646816 52.91700785997256 0.0
  endloop
endfacet
facet normal -0.923879532511288 -0.38268343236508695 -0.0
  outer loop
    vertex 45.97451519013293 53.640550724665 9.999999999999996
    vertex 46.274216457646816 52.91700785997256 0.0
    vertex 46.274216457646816 52.91700785997256 9.999999999999996
  endloop
endfacet
facet normal -0.923879532511288 -0.38268343236508695 -0.0
  outer loop
    vertex 46.274216457646816 52.91700785997256 0.0
    vertex 45.97451519013293 53.640550724665 9.999999999999996
    vertex 45.97451519013293 53.640550724665 0.0
  endloop
endfacet
facet normal -0.9914448613738104 -0.13052619222005263 -0.0
  outer loop
    vertex 45.87229266900013 54.41700785997256 9.999999999999996
    vertex 45.97451519013293 53.640550724665 0.0
    vertex 45.97451519013293 53.640550724665 9.999999999999996
  endloop
endfacet
facet normal -0.9914448613738104 -0.13052619222005263 -0.0
  outer loop
    vertex 45.97451519013293 53.640550724665 0.0
    vertex 45.87229266900013 54.41700785997256 9.999999999999996
    vertex 45.87229266900013 54.41700785997256 0.0
  endloop
endfacet
facet normal -0.9914448613738114 0.13052619222004366 0.0
  outer loop
    vertex 45.97451519013292 55.193464995280124 9.999999999999996
    vertex 45.87229266900013 54.41700785997256 0.0
    vertex 45.87229266900013 54.41700785997256 9.999999999999996
  endloop
endfacet
facet normal -0.9914448613738114 0.13052619222004366 0.0
  outer loop
    vertex 45.87229266900013 54.41700785997256 0.0
    vertex 45.97451519013292 55.193464995280124 9.999999999999996
    vertex 45.97451519013292 55.193464995280124 0.0
  endloop
endfacet
facet normal -0.923879532511288 0.38268343236508695 0.0
  outer loop
    vertex 46.27421645764681 55.917007859972564 9.999999999999996
    vertex 45.97451519013292 55.193464995280124 0.0
    vertex 45.97451519013292 55.193464995280124 9.999999999999996
  endloop
endfacet
facet normal -0.923879532511288 0.38268343236508695 0.0
  outer loop
    vertex 45.97451519013292 55.193464995280124 0.0
    vertex 46.27421645764681 55.917007859972564 9.999999999999996
    vertex 46.27421645764681 55.917007859972564 0.0
  endloop
endfacet
facet normal -0.7933533402912324 0.6087614290087242 0.0
  outer loop
    vertex 46.750972325440486 56.5383282035322 9.999999999999996
    vertex 46.27421645764681 55.917007859972564 0.0
    vertex 46.27421645764681 55.917007859972564 9.999999999999996
  endloop
endfacet
facet normal -0.7933533402912324 0.6087614290087242 0.0
  outer loop
    vertex 46.27421645764681 55.917007859972564 0.0
    vertex 46.750972325440486 56.5383282035322 9.999999999999996
    vertex 46.750972325440486 56.5383282035322 0.0
  endloop
endfacet
facet normal -0.6087614290087242 0.7933533402912324 0.0
  outer loop
    vertex 46.750972325440486 56.5383282035322 9.999999999999996
    vertex 47.372292669000124 57.01508407132588 0.0
    vertex 46.750972325440486 56.5383282035322 0.0
  endloop
endfacet
facet normal -0.6087614290087242 0.7933533402912324 0.0
  outer loop
    vertex 47.372292669000124 57.01508407132588 0.0
    vertex 46.750972325440486 56.5383282035322 9.999999999999996
    vertex 47.372292669000124 57.01508407132588 9.999999999999996
  endloop
endfacet
facet normal -0.38268343236508334 0.9238795325112894 0.0
  outer loop
    vertex 47.372292669000124 57.01508407132588 9.999999999999996
    vertex 48.09583553369256 57.31478533883976 0.0
    vertex 47.372292669000124 57.01508407132588 0.0
  endloop
endfacet
facet normal -0.38268343236508334 0.9238795325112894 0.0
  outer loop
    vertex 48.09583553369256 57.31478533883976 0.0
    vertex 47.372292669000124 57.01508407132588 9.999999999999996
    vertex 48.09583553369256 57.31478533883976 9.999999999999996
  endloop
endfacet
facet normal -0.13052619222005876 0.9914448613738096 0.0
  outer loop
    vertex 48.09583553369256 57.31478533883976 9.999999999999996
    vertex 48.872292669000124 57.41700785997256 0.0
    vertex 48.09583553369256 57.31478533883976 0.0
  endloop
endfacet
facet normal -0.13052619222005876 0.9914448613738096 0.0
  outer loop
    vertex 48.872292669000124 57.41700785997256 0.0
    vertex 48.09583553369256 57.31478533883976 9.999999999999996
    vertex 48.872292669000124 57.41700785997256 9.999999999999996
  endloop
endfacet
facet normal 0.1305261922200446 0.9914448613738114 0.0
  outer loop
    vertex 48.872292669000124 57.41700785997256 9.999999999999996
    vertex 49.648749804307684 57.31478533883977 0.0
    vertex 48.872292669000124 57.41700785997256 0.0
  endloop
endfacet
facet normal 0.1305261922200446 0.9914448613738114 0.0
  outer loop
    vertex 49.648749804307684 57.31478533883977 0.0
    vertex 48.872292669000124 57.41700785997256 9.999999999999996
    vertex 49.648749804307684 57.31478533883977 9.999999999999996
  endloop
endfacet
facet normal 0.3826834323650957 0.9238795325112844 0.0
  outer loop
    vertex 49.648749804307684 57.31478533883977 9.999999999999996
    vertex 50.37229266900012 57.01508407132588 0.0
    vertex 49.648749804307684 57.31478533883977 0.0
  endloop
endfacet
facet normal 0.3826834323650957 0.9238795325112844 0.0
  outer loop
    vertex 50.37229266900012 57.01508407132588 0.0
    vertex 49.648749804307684 57.31478533883977 9.999999999999996
    vertex 50.37229266900012 57.01508407132588 9.999999999999996
  endloop
endfacet
facet normal 0.6087614290087151 0.7933533402912394 0.0
  outer loop
    vertex 50.37229266900012 57.01508407132588 9.999999999999996
    vertex 50.993613012559756 56.53832820353221 0.0
    vertex 50.37229266900012 57.01508407132588 0.0
  endloop
endfacet
facet normal 0.6087614290087151 0.7933533402912394 0.0
  outer loop
    vertex 50.993613012559756 56.53832820353221 0.0
    vertex 50.37229266900012 57.01508407132588 9.999999999999996
    vertex 50.993613012559756 56.53832820353221 9.999999999999996
  endloop
endfacet
facet normal 0.7933533402912324 0.6087614290087242 0.0
  outer loop
    vertex 50.993613012559756 56.53832820353221 0.0
    vertex 51.47036888035343 55.91700785997257 9.999999999999996
    vertex 51.47036888035343 55.91700785997257 0.0
  endloop
endfacet
facet normal 0.7933533402912324 0.6087614290087242 0.0
  outer loop
    vertex 51.47036888035343 55.91700785997257 9.999999999999996
    vertex 50.993613012559756 56.53832820353221 0.0
    vertex 50.993613012559756 56.53832820353221 9.999999999999996
  endloop
endfacet
facet normal 0.9238795325112853 0.38268343236509306 0.0
  outer loop
    vertex 51.47036888035343 55.91700785997257 0.0
    vertex 51.77007014786733 55.19346499528013 9.999999999999996
    vertex 51.77007014786733 55.19346499528013 0.0
  endloop
endfacet
facet normal 0.9238795325112853 0.38268343236509306 0.0
  outer loop
    vertex 51.77007014786733 55.19346499528013 9.999999999999996
    vertex 51.47036888035343 55.91700785997257 0.0
    vertex 51.47036888035343 55.91700785997257 9.999999999999996
  endloop
endfacet
facet normal 0.9914448613738096 0.13052619222005782 0.0
  outer loop
    vertex 51.77007014786733 55.19346499528013 0.0
    vertex 51.872292669000124 54.417007859972564 9.999999999999996
    vertex 51.872292669000124 54.417007859972564 0.0
  endloop
endfacet
facet normal 0.9914448613738096 0.13052619222005782 0.0
  outer loop
    vertex 51.872292669000124 54.417007859972564 9.999999999999996
    vertex 51.77007014786733 55.19346499528013 0.0
    vertex 51.77007014786733 55.19346499528013 9.999999999999996
  endloop
endfacet
facet normal 0.9914448613738094 -0.13052619222005968 0.0
  outer loop
    vertex 51.872292669000124 54.417007859972564 0.0
    vertex 51.77007014786733 53.640550724665005 9.999999999999996
    vertex 51.77007014786733 53.640550724665005 0.0
  endloop
endfacet
facet normal 0.9914448613738094 -0.13052619222005968 0.0
  outer loop
    vertex 51.77007014786733 53.640550724665005 9.999999999999996
    vertex 51.872292669000124 54.417007859972564 0.0
    vertex 51.872292669000124 54.417007859972564 9.999999999999996
  endloop
endfacet
facet normal 0.9238795325112906 -0.38268343236508084 0.0
  outer loop
    vertex 51.77007014786733 53.640550724665005 0.0
    vertex 51.47036888035345 52.91700785997257 9.999999999999996
    vertex 51.47036888035345 52.91700785997257 0.0
  endloop
endfacet
facet normal 0.9238795325112906 -0.38268343236508084 0.0
  outer loop
    vertex 51.47036888035345 52.91700785997257 9.999999999999996
    vertex 51.77007014786733 53.640550724665005 0.0
    vertex 51.77007014786733 53.640550724665005 9.999999999999996
  endloop
endfacet
facet normal 0.7933533402912324 -0.6087614290087242 0.0
  outer loop
    vertex 51.47036888035345 52.91700785997257 0.0
    vertex 50.99361301255977 52.295687516412926 9.999999999999996
    vertex 50.99361301255977 52.295687516412926 0.0
  endloop
endfacet
facet normal 0.7933533402912324 -0.6087614290087242 0.0
  outer loop
    vertex 50.99361301255977 52.295687516412926 9.999999999999996
    vertex 51.47036888035345 52.91700785997257 0.0
    vertex 51.47036888035345 52.91700785997257 9.999999999999996
  endloop
endfacet
facet normal 0.6087614290087242 -0.7933533402912324 0.0
  outer loop
    vertex 50.99361301255977 52.295687516412926 9.999999999999996
    vertex 50.37229266900013 51.818931648619255 0.0
    vertex 50.99361301255977 52.295687516412926 0.0
  endloop
endfacet
facet normal 0.6087614290087242 -0.7933533402912324 0.0
  outer loop
    vertex 50.37229266900013 51.818931648619255 0.0
    vertex 50.99361301255977 52.295687516412926 9.999999999999996
    vertex 50.37229266900013 51.818931648619255 9.999999999999996
  endloop
endfacet
facet normal 0.38268343236508334 -0.9238795325112894 0.0
  outer loop
    vertex 50.37229266900013 51.818931648619255 9.999999999999996
    vertex 49.6487498043077 51.51923038110537 0.0
    vertex 50.37229266900013 51.818931648619255 0.0
  endloop
endfacet
facet normal 0.38268343236508334 -0.9238795325112894 0.0
  outer loop
    vertex 49.6487498043077 51.51923038110537 0.0
    vertex 50.37229266900013 51.818931648619255 9.999999999999996
    vertex 49.6487498043077 51.51923038110537 9.999999999999996
  endloop
endfacet
facet normal 0.13052619222005876 -0.9914448613738096 0.0
  outer loop
    vertex 49.6487498043077 51.51923038110537 9.999999999999996
    vertex 48.87229266900013 51.41700785997257 0.0
    vertex 49.6487498043077 51.51923038110537 0.0
  endloop
endfacet
facet normal 0.13052619222005876 -0.9914448613738096 0.0
  outer loop
    vertex 48.87229266900013 51.41700785997257 0.0
    vertex 49.6487498043077 51.51923038110537 9.999999999999996
    vertex 48.87229266900013 51.41700785997257 9.999999999999996
  endloop
endfacet
facet normal -0.1305261922200446 -0.9914448613738114 -0.0
  outer loop
    vertex 48.87229266900013 51.41700785997257 9.999999999999996
    vertex 48.09583553369257 51.51923038110536 0.0
    vertex 48.87229266900013 51.41700785997257 0.0
  endloop
endfacet
facet normal -0.1305261922200446 -0.9914448613738114 -0.0
  outer loop
    vertex 48.09583553369257 51.51923038110536 0.0
    vertex 48.87229266900013 51.41700785997257 9.999999999999996
    vertex 48.09583553369257 51.51923038110536 9.999999999999996
  endloop
endfacet
facet normal -0.9914448613738103 0.130526192220053 0.0
  outer loop
    vertex 50.57229266900013 54.417007859972564 9.999999999999996
    vertex 50.51436657369155 53.97701548329828 0.0
    vertex 50.51436657369155 53.97701548329828 9.999999999999996
  endloop
endfacet
facet normal -0.9914448613738103 0.130526192220053 0.0
  outer loop
    vertex 50.51436657369155 53.97701548329828 0.0
    vertex 50.57229266900013 54.417007859972564 9.999999999999996
    vertex 50.57229266900013 54.417007859972564 0.0
  endloop
endfacet
facet normal -0.9914448613738103 -0.130526192220053 -0.0
  outer loop
    vertex 50.51436657369155 54.85700023664685 9.999999999999996
    vertex 50.57229266900013 54.417007859972564 0.0
    vertex 50.57229266900013 54.417007859972564 9.999999999999996
  endloop
endfacet
facet normal -0.9914448613738103 -0.130526192220053 -0.0
  outer loop
    vertex 50.57229266900013 54.417007859972564 0.0
    vertex 50.51436657369155 54.85700023664685 9.999999999999996
    vertex 50.51436657369155 54.85700023664685 0.0
  endloop
endfacet
facet normal -0.923879532511286 -0.3826834323650919 -0.0
  outer loop
    vertex 50.344535855433676 55.267007859972566 9.999999999999996
    vertex 50.51436657369155 54.85700023664685 0.0
    vertex 50.51436657369155 54.85700023664685 9.999999999999996
  endloop
endfacet
facet normal -0.923879532511286 -0.3826834323650919 -0.0
  outer loop
    vertex 50.51436657369155 54.85700023664685 0.0
    vertex 50.344535855433676 55.267007859972566 9.999999999999996
    vertex 50.344535855433676 55.267007859972566 0.0
  endloop
endfacet
facet normal -0.7933533402912432 -0.6087614290087101 -0.0
  outer loop
    vertex 50.074374197017264 55.6190893879897 9.999999999999996
    vertex 50.344535855433676 55.267007859972566 0.0
    vertex 50.344535855433676 55.267007859972566 9.999999999999996
  endloop
endfacet
facet normal -0.7933533402912432 -0.6087614290087101 -0.0
  outer loop
    vertex 50.344535855433676 55.267007859972566 0.0
    vertex 50.074374197017264 55.6190893879897 9.999999999999996
    vertex 50.074374197017264 55.6190893879897 0.0
  endloop
endfacet
facet normal -0.6087614290087163 -0.7933533402912384 -0.0
  outer loop
    vertex 50.074374197017264 55.6190893879897 9.999999999999996
    vertex 49.722292669000126 55.889251046406116 0.0
    vertex 50.074374197017264 55.6190893879897 0.0
  endloop
endfacet
facet normal -0.6087614290087163 -0.7933533402912384 -0.0
  outer loop
    vertex 49.722292669000126 55.889251046406116 0.0
    vertex 50.074374197017264 55.6190893879897 9.999999999999996
    vertex 49.722292669000126 55.889251046406116 9.999999999999996
  endloop
endfacet
facet normal -0.3826834323650919 -0.923879532511286 -0.0
  outer loop
    vertex 49.722292669000126 55.889251046406116 9.999999999999996
    vertex 49.312285045674415 56.059081764663986 0.0
    vertex 49.722292669000126 55.889251046406116 0.0
  endloop
endfacet
facet normal -0.3826834323650919 -0.923879532511286 -0.0
  outer loop
    vertex 49.312285045674415 56.059081764663986 0.0
    vertex 49.722292669000126 55.889251046406116 9.999999999999996
    vertex 49.312285045674415 56.059081764663986 9.999999999999996
  endloop
endfacet
facet normal -0.130526192220053 -0.9914448613738103 -0.0
  outer loop
    vertex 49.312285045674415 56.059081764663986 9.999999999999996
    vertex 48.872292669000124 56.117007859972574 0.0
    vertex 49.312285045674415 56.059081764663986 0.0
  endloop
endfacet
facet normal -0.130526192220053 -0.9914448613738103 -0.0
  outer loop
    vertex 48.872292669000124 56.117007859972574 0.0
    vertex 49.312285045674415 56.059081764663986 9.999999999999996
    vertex 48.872292669000124 56.117007859972574 9.999999999999996
  endloop
endfacet
facet normal 0.130526192220053 -0.9914448613738103 0.0
  outer loop
    vertex 48.872292669000124 56.117007859972574 9.999999999999996
    vertex 48.43230029232584 56.059081764663986 0.0
    vertex 48.872292669000124 56.117007859972574 0.0
  endloop
endfacet
facet normal 0.130526192220053 -0.9914448613738103 0.0
  outer loop
    vertex 48.43230029232584 56.059081764663986 0.0
    vertex 48.872292669000124 56.117007859972574 9.999999999999996
    vertex 48.43230029232584 56.059081764663986 9.999999999999996
  endloop
endfacet
facet normal 0.38268343236508745 -0.9238795325112878 0.0
  outer loop
    vertex 48.43230029232584 56.059081764663986 9.999999999999996
    vertex 48.02229266900012 55.889251046406116 0.0
    vertex 48.43230029232584 56.059081764663986 0.0
  endloop
endfacet
facet normal 0.38268343236508745 -0.9238795325112878 0.0
  outer loop
    vertex 48.02229266900012 55.889251046406116 0.0
    vertex 48.43230029232584 56.059081764663986 9.999999999999996
    vertex 48.02229266900012 55.889251046406116 9.999999999999996
  endloop
endfacet
facet normal 0.6087614290087384 -0.7933533402912215 0.0
  outer loop
    vertex 48.02229266900012 55.889251046406116 9.999999999999996
    vertex 47.67021114098299 55.61908938798969 0.0
    vertex 48.02229266900012 55.889251046406116 0.0
  endloop
endfacet
facet normal 0.6087614290087384 -0.7933533402912215 0.0
  outer loop
    vertex 47.67021114098299 55.61908938798969 0.0
    vertex 48.02229266900012 55.889251046406116 9.999999999999996
    vertex 47.67021114098299 55.61908938798969 9.999999999999996
  endloop
endfacet
facet normal 0.7933533402912338 -0.6087614290087224 0.0
  outer loop
    vertex 47.67021114098299 55.61908938798969 0.0
    vertex 47.40004948256658 55.267007859972566 9.999999999999996
    vertex 47.40004948256658 55.267007859972566 0.0
  endloop
endfacet
facet normal 0.7933533402912338 -0.6087614290087224 0.0
  outer loop
    vertex 47.40004948256658 55.267007859972566 9.999999999999996
    vertex 47.67021114098299 55.61908938798969 0.0
    vertex 47.67021114098299 55.61908938798969 9.999999999999996
  endloop
endfacet
facet normal 0.923879532511286 -0.3826834323650919 0.0
  outer loop
    vertex 47.40004948256658 55.267007859972566 0.0
    vertex 47.23021876430871 54.85700023664685 9.999999999999996
    vertex 47.23021876430871 54.85700023664685 0.0
  endloop
endfacet
facet normal 0.923879532511286 -0.3826834323650919 0.0
  outer loop
    vertex 47.23021876430871 54.85700023664685 9.999999999999996
    vertex 47.40004948256658 55.267007859972566 0.0
    vertex 47.40004948256658 55.267007859972566 9.999999999999996
  endloop
endfacet
facet normal 0.9914448613738103 -0.130526192220053 0.0
  outer loop
    vertex 47.23021876430871 54.85700023664685 0.0
    vertex 47.17229266900012 54.417007859972564 9.999999999999996
    vertex 47.17229266900012 54.417007859972564 0.0
  endloop
endfacet
facet normal 0.9914448613738103 -0.130526192220053 0.0
  outer loop
    vertex 47.17229266900012 54.417007859972564 9.999999999999996
    vertex 47.23021876430871 54.85700023664685 0.0
    vertex 47.23021876430871 54.85700023664685 9.999999999999996
  endloop
endfacet
facet normal 0.9914448613738103 0.130526192220053 0.0
  outer loop
    vertex 47.17229266900012 54.417007859972564 0.0
    vertex 47.23021876430871 53.97701548329828 9.999999999999996
    vertex 47.23021876430871 53.97701548329828 0.0
  endloop
endfacet
facet normal 0.9914448613738103 0.130526192220053 0.0
  outer loop
    vertex 47.23021876430871 53.97701548329828 9.999999999999996
    vertex 47.17229266900012 54.417007859972564 0.0
    vertex 47.17229266900012 54.417007859972564 9.999999999999996
  endloop
endfacet
facet normal 0.923879532511286 0.3826834323650919 0.0
  outer loop
    vertex 47.23021876430871 53.97701548329828 0.0
    vertex 47.40004948256658 53.56700785997257 9.999999999999996
    vertex 47.40004948256658 53.56700785997257 0.0
  endloop
endfacet
facet normal 0.923879532511286 0.3826834323650919 0.0
  outer loop
    vertex 47.40004948256658 53.56700785997257 9.999999999999996
    vertex 47.23021876430871 53.97701548329828 0.0
    vertex 47.23021876430871 53.97701548329828 9.999999999999996
  endloop
endfacet
facet normal 0.7933533402912338 0.6087614290087224 0.0
  outer loop
    vertex 47.40004948256658 53.56700785997257 0.0
    vertex 47.67021114098299 53.21492633195544 9.999999999999996
    vertex 47.67021114098299 53.21492633195544 0.0
  endloop
endfacet
facet normal 0.7933533402912338 0.6087614290087224 0.0
  outer loop
    vertex 47.67021114098299 53.21492633195544 9.999999999999996
    vertex 47.40004948256658 53.56700785997257 0.0
    vertex 47.40004948256658 53.56700785997257 9.999999999999996
  endloop
endfacet
facet normal 0.6087614290087323 0.7933533402912262 0.0
  outer loop
    vertex 47.67021114098299 53.21492633195544 9.999999999999996
    vertex 48.02229266900013 52.94476467353901 0.0
    vertex 47.67021114098299 53.21492633195544 0.0
  endloop
endfacet
facet normal 0.6087614290087323 0.7933533402912262 0.0
  outer loop
    vertex 48.02229266900013 52.94476467353901 0.0
    vertex 47.67021114098299 53.21492633195544 9.999999999999996
    vertex 48.02229266900013 52.94476467353901 9.999999999999996
  endloop
endfacet
facet normal 0.3826834323650919 0.923879532511286 0.0
  outer loop
    vertex 48.02229266900013 52.94476467353901 9.999999999999996
    vertex 48.43230029232584 52.77493395528114 0.0
    vertex 48.02229266900013 52.94476467353901 0.0
  endloop
endfacet
facet normal 0.3826834323650919 0.923879532511286 0.0
  outer loop
    vertex 48.43230029232584 52.77493395528114 0.0
    vertex 48.02229266900013 52.94476467353901 9.999999999999996
    vertex 48.43230029232584 52.77493395528114 9.999999999999996
  endloop
endfacet
facet normal 0.130526192220053 0.9914448613738103 0.0
  outer loop
    vertex 48.43230029232584 52.77493395528114 9.999999999999996
    vertex 48.872292669000124 52.717007859972554 0.0
    vertex 48.43230029232584 52.77493395528114 0.0
  endloop
endfacet
facet normal 0.130526192220053 0.9914448613738103 0.0
  outer loop
    vertex 48.872292669000124 52.717007859972554 0.0
    vertex 48.43230029232584 52.77493395528114 9.999999999999996
    vertex 48.872292669000124 52.717007859972554 9.999999999999996
  endloop
endfacet
facet normal -0.130526192220053 0.9914448613738103 0.0
  outer loop
    vertex 48.872292669000124 52.717007859972554 9.999999999999996
    vertex 49.312285045674415 52.77493395528114 0.0
    vertex 48.872292669000124 52.717007859972554 0.0
  endloop
endfacet
facet normal -0.130526192220053 0.9914448613738103 0.0
  outer loop
    vertex 49.312285045674415 52.77493395528114 0.0
    vertex 48.872292669000124 52.717007859972554 9.999999999999996
    vertex 49.312285045674415 52.77493395528114 9.999999999999996
  endloop
endfacet
facet normal -0.38268343236508745 0.9238795325112878 0.0
  outer loop
    vertex 49.312285045674415 52.77493395528114 9.999999999999996
    vertex 49.72229266900013 52.94476467353901 0.0
    vertex 49.312285045674415 52.77493395528114 0.0
  endloop
endfacet
facet normal -0.38268343236508745 0.9238795325112878 0.0
  outer loop
    vertex 49.72229266900013 52.94476467353901 0.0
    vertex 49.312285045674415 52.77493395528114 9.999999999999996
    vertex 49.72229266900013 52.94476467353901 9.999999999999996
  endloop
endfacet
facet normal -0.6087614290087384 0.7933533402912215 0.0
  outer loop
    vertex 49.72229266900013 52.94476467353901 9.999999999999996
    vertex 50.074374197017264 53.21492633195544 0.0
    vertex 49.72229266900013 52.94476467353901 0.0
  endloop
endfacet
facet normal -0.6087614290087384 0.7933533402912215 0.0
  outer loop
    vertex 50.074374197017264 53.21492633195544 0.0
    vertex 49.72229266900013 52.94476467353901 9.999999999999996
    vertex 50.074374197017264 53.21492633195544 9.999999999999996
  endloop
endfacet
facet normal -0.7933533402912338 0.6087614290087224 0.0
  outer loop
    vertex 50.344535855433676 53.56700785997257 9.999999999999996
    vertex 50.074374197017264 53.21492633195544 0.0
    vertex 50.074374197017264 53.21492633195544 9.999999999999996
  endloop
endfacet
facet normal -0.7933533402912338 0.6087614290087224 0.0
  outer loop
    vertex 50.074374197017264 53.21492633195544 0.0
    vertex 50.344535855433676 53.56700785997257 9.999999999999996
    vertex 50.344535855433676 53.56700785997257 0.0
  endloop
endfacet
facet normal -0.923879532511286 0.3826834323650919 0.0
  outer loop
    vertex 50.51436657369155 53.97701548329828 9.999999999999996
    vertex 50.344535855433676 53.56700785997257 0.0
    vertex 50.344535855433676 53.56700785997257 9.999999999999996
  endloop
endfacet
facet normal -0.923879532511286 0.3826834323650919 0.0
  outer loop
    vertex 50.344535855433676 53.56700785997257 0.0
    vertex 50.51436657369155 53.97701548329828 9.999999999999996
    vertex 50.51436657369155 53.97701548329828 0.0
  endloop
endfacet
endsolid spacer
