solid spacer_pi
facet normal -1.0 1.2062034961517343e-17 -3.5249581031848777e-16
  outer loop
    vertex -3.4999999999998983 21.75 0.0
    vertex -3.499999999999898 6.000000000000006 -1.9999999999999998
    vertex -3.499999999999898 5.000000000000007 0.0
  endloop
endfacet
facet normal -1.0 1.2062034961517343e-17 -3.5249581031848777e-16
  outer loop
    vertex -3.499999999999898 6.000000000000006 -1.9999999999999998
    vertex -3.4999999999998983 21.75 0.0
    vertex -3.4999999999998983 21.75 -1.9999999999999973
  endloop
endfacet
facet normal -1.0 1.2062034961517343e-17 -3.5249581031848777e-16
  outer loop
    vertex -3.499999999999898 5.000000000000007 5.500000000000005
    vertex -3.4999999999998983 -1.9999999999999998 -2.0000000000000013
    vertex -3.4999999999998983 -1.9999999999999998 5.500000000000004
  endloop
endfacet
facet normal -1.0 1.2062034961517343e-17 -3.5249581031848777e-16
  outer loop
    vertex -3.4999999999998983 -1.9999999999999998 -2.0000000000000013
    vertex -3.499999999999898 5.000000000000007 5.500000000000005
    vertex -3.499999999999898 4.000000000000007 -1.9999999999999998
  endloop
endfacet
facet normal -1.0 1.2062034961517343e-17 -3.5249581031848777e-16
  outer loop
    vertex -3.499999999999898 4.000000000000007 -1.9999999999999998
    vertex -3.499999999999898 5.000000000000007 5.500000000000005
    vertex -3.499999999999898 4.000000000000007 -5.0
  endloop
endfacet
facet normal -1.0 1.2062034961517343e-17 -3.5249581031848777e-16
  outer loop
    vertex -3.499999999999898 4.000000000000007 -5.0
    vertex -3.499999999999898 5.000000000000007 5.500000000000005
    vertex -3.499999999999898 5.000000000000007 0.0
  endloop
endfacet
facet normal -1.0 1.2062034961517343e-17 -3.5249581031848777e-16
  outer loop
    vertex -3.499999999999898 4.000000000000007 -5.0
    vertex -3.499999999999898 5.000000000000007 0.0
    vertex -3.499999999999898 6.000000000000006 -5.0
  endloop
endfacet
facet normal -1.0 1.2062034961517343e-17 -3.5249581031848777e-16
  outer loop
    vertex -3.499999999999898 6.000000000000006 -5.0
    vertex -3.499999999999898 5.000000000000007 0.0
    vertex -3.499999999999898 6.000000000000006 -1.9999999999999998
  endloop
endfacet
facet normal -0.6087614290086991 -0.7933533402912517 0.0
  outer loop
    vertex -7.439339828220098 26.06066017177984 5.500000000000007
    vertex -7.749999999999924 26.299038105676665 -1.9999999999999973
    vertex -7.439339828220098 26.06066017177984 -1.9999999999999973
  endloop
endfacet
facet normal -0.6087614290086991 -0.7933533402912517 0.0
  outer loop
    vertex -7.749999999999924 26.299038105676665 -1.9999999999999973
    vertex -7.439339828220098 26.06066017177984 5.500000000000007
    vertex -7.749999999999924 26.299038105676665 5.500000000000007
  endloop
endfacet
facet normal -0.7933533402912502 -0.6087614290087012 0.0
  outer loop
    vertex -7.439339828220098 26.06066017177984 5.500000000000007
    vertex -7.2009618943232665 25.75000000000001 -1.9999999999999973
    vertex -7.2009618943232665 25.75000000000001 5.500000000000007
  endloop
endfacet
facet normal -0.7933533402912502 -0.6087614290087012 0.0
  outer loop
    vertex -7.2009618943232665 25.75000000000001 -1.9999999999999973
    vertex -7.439339828220098 26.06066017177984 5.500000000000007
    vertex -7.439339828220098 26.06066017177984 -1.9999999999999973
  endloop
endfacet
facet normal -0.38268343236508806 -0.9238795325112875 0.0
  outer loop
    vertex -9.341161896583118 21.86074106456053 5.500000000000007
    vertex -10.124999999999925 22.185417437700572 -1.9999999999999973
    vertex -9.341161896583118 21.86074106456053 -1.9999999999999973
  endloop
endfacet
facet normal -0.38268343236508806 -0.9238795325112875 0.0
  outer loop
    vertex -10.124999999999925 22.185417437700572 -1.9999999999999973
    vertex -9.341161896583118 21.86074106456053 5.500000000000007
    vertex -10.124999999999925 22.185417437700572 5.500000000000007
  endloop
endfacet
facet normal -0.7933533402912301 0.6087614290087274 0.0
  outer loop
    vertex -10.798097038856207 27.298097038856312 5.500000000000007
    vertex -11.314582562299366 26.62500000000003 -1.9999999999999973
    vertex -11.314582562299366 26.62500000000003 5.500000000000007
  endloop
endfacet
facet normal -0.7933533402912301 0.6087614290087274 0.0
  outer loop
    vertex -11.314582562299366 26.62500000000003 -1.9999999999999973
    vertex -10.798097038856207 27.298097038856312 5.500000000000007
    vertex -10.798097038856207 27.298097038856312 -1.9999999999999973
  endloop
endfacet
facet normal 0.9914448613738114 -0.13052619222004555 -0.0
  outer loop
    vertex -9.948888739433524 25.388228567653783 -1.9999999999999973
    vertex -9.99999999999992 25.000000000000004 5.500000000000007
    vertex -9.99999999999992 25.000000000000004 -1.9999999999999973
  endloop
endfacet
facet normal 0.9914448613738114 -0.13052619222004555 -0.0
  outer loop
    vertex -9.99999999999992 25.000000000000004 5.500000000000007
    vertex -9.948888739433524 25.388228567653783 -1.9999999999999973
    vertex -9.948888739433524 25.388228567653783 5.500000000000007
  endloop
endfacet
facet normal 0.793353340291257 -0.6087614290086921 -0.0
  outer loop
    vertex -9.560660171779746 26.06066017177984 -1.9999999999999973
    vertex -9.799038105676573 25.75000000000001 5.500000000000007
    vertex -9.799038105676573 25.75000000000001 -1.9999999999999973
  endloop
endfacet
facet normal 0.793353340291257 -0.6087614290086921 -0.0
  outer loop
    vertex -9.799038105676573 25.75000000000001 5.500000000000007
    vertex -9.560660171779746 26.06066017177984 -1.9999999999999973
    vertex -9.560660171779746 26.06066017177984 5.500000000000007
  endloop
endfacet
facet normal 0.7933533402912464 0.6087614290087061 -0.0
  outer loop
    vertex -9.799038105676573 24.250000000000007 -1.9999999999999973
    vertex -9.560660171779746 23.939339828220188 5.500000000000007
    vertex -9.560660171779746 23.939339828220188 -1.9999999999999973
  endloop
endfacet
facet normal 0.7933533402912464 0.6087614290087061 -0.0
  outer loop
    vertex -9.560660171779746 23.939339828220188 5.500000000000007
    vertex -9.799038105676573 24.250000000000007 -1.9999999999999973
    vertex -9.799038105676573 24.250000000000007 5.500000000000007
  endloop
endfacet
facet normal 0.6087614290086922 -0.793353340291257 0.0
  outer loop
    vertex -9.249999999999915 26.299038105676665 5.500000000000007
    vertex -9.560660171779746 26.06066017177984 -1.9999999999999973
    vertex -9.249999999999915 26.299038105676665 -1.9999999999999973
  endloop
endfacet
facet normal 0.6087614290086922 -0.793353340291257 0.0
  outer loop
    vertex -9.560660171779746 26.06066017177984 -1.9999999999999973
    vertex -9.249999999999915 26.299038105676665 5.500000000000007
    vertex -9.560660171779746 26.06066017177984 5.500000000000007
  endloop
endfacet
facet normal -0.0 1.0 -0.0
  outer loop
    vertex -8.499999999999922 28.250000000000043 5.500000000000007
    vertex -3.4999999999998983 28.250000000000043 -1.9999999999999973
    vertex -8.499999999999922 28.250000000000043 -1.9999999999999973
  endloop
endfacet
facet normal -0.0 1.0 -0.0
  outer loop
    vertex -3.4999999999998983 28.250000000000043 -1.9999999999999973
    vertex -8.499999999999922 28.250000000000043 5.500000000000007
    vertex -3.4999999999998983 28.250000000000043 5.500000000000007
  endloop
endfacet
facet normal -0.13052619222001724 -0.9914448613738149 0.0
  outer loop
    vertex -8.111771432346144 26.44888873943362 5.500000000000007
    vertex -8.499999999999922 26.500000000000004 -1.9999999999999973
    vertex -8.111771432346144 26.44888873943362 -1.9999999999999973
  endloop
endfacet
facet normal -0.13052619222001724 -0.9914448613738149 0.0
  outer loop
    vertex -8.499999999999922 26.500000000000004 -1.9999999999999973
    vertex -8.111771432346144 26.44888873943362 5.500000000000007
    vertex -8.499999999999922 26.500000000000004 5.500000000000007
  endloop
endfacet
facet normal -0.9914448613738105 0.13052619222005196 0.0
  outer loop
    vertex -11.639258935439415 25.841161896583206 5.500000000000007
    vertex -11.749999999999945 25.000000000000004 -1.9999999999999973
    vertex -11.749999999999945 25.000000000000004 5.500000000000007
  endloop
endfacet
facet normal -0.9914448613738105 0.13052619222005196 0.0
  outer loop
    vertex -11.749999999999945 25.000000000000004 -1.9999999999999973
    vertex -11.639258935439415 25.841161896583206 5.500000000000007
    vertex -11.639258935439415 25.841161896583206 -1.9999999999999973
  endloop
endfacet
facet normal -0.9238795325112823 -0.3826834323651003 0.0
  outer loop
    vertex -7.2009618943232665 25.75000000000001 5.500000000000007
    vertex -7.051111260566314 25.388228567653783 -1.9999999999999973
    vertex -7.051111260566314 25.388228567653783 5.500000000000007
  endloop
endfacet
facet normal -0.9238795325112823 -0.3826834323651003 0.0
  outer loop
    vertex -7.051111260566314 25.388228567653783 -1.9999999999999973
    vertex -7.2009618943232665 25.75000000000001 5.500000000000007
    vertex -7.2009618943232665 25.75000000000001 -1.9999999999999973
  endloop
endfacet
facet normal 0.38268343236510544 -0.9238795325112803 0.0
  outer loop
    vertex -8.888228567653695 26.44888873943362 5.500000000000007
    vertex -9.249999999999915 26.299038105676665 -1.9999999999999973
    vertex -8.888228567653695 26.44888873943362 -1.9999999999999973
  endloop
endfacet
facet normal 0.38268343236510544 -0.9238795325112803 0.0
  outer loop
    vertex -9.249999999999915 26.299038105676665 -1.9999999999999973
    vertex -8.888228567653695 26.44888873943362 5.500000000000007
    vertex -9.249999999999915 26.299038105676665 5.500000000000007
  endloop
endfacet
facet normal -0.6087614290087274 0.7933533402912301 -0.0
  outer loop
    vertex -10.798097038856207 27.298097038856312 5.500000000000007
    vertex -10.124999999999925 27.81458256229947 -1.9999999999999973
    vertex -10.798097038856207 27.298097038856312 -1.9999999999999973
  endloop
endfacet
facet normal -0.6087614290087274 0.7933533402912301 -0.0
  outer loop
    vertex -10.124999999999925 27.81458256229947 -1.9999999999999973
    vertex -10.798097038856207 27.298097038856312 5.500000000000007
    vertex -10.124999999999925 27.81458256229947 5.500000000000007
  endloop
endfacet
facet normal -0.9914448613738114 -0.13052619222004555 0.0
  outer loop
    vertex -7.051111260566314 25.388228567653783 5.500000000000007
    vertex -6.999999999999919 25.000000000000004 -1.9999999999999973
    vertex -6.999999999999919 25.000000000000004 5.500000000000007
  endloop
endfacet
facet normal -0.9914448613738114 -0.13052619222004555 0.0
  outer loop
    vertex -6.999999999999919 25.000000000000004 -1.9999999999999973
    vertex -7.051111260566314 25.388228567653783 5.500000000000007
    vertex -7.051111260566314 25.388228567653783 -1.9999999999999973
  endloop
endfacet
facet normal -0.9238795325112803 0.38268343236510544 0.0
  outer loop
    vertex -7.051111260566314 24.611771432346227 5.500000000000007
    vertex -7.2009618943232665 24.250000000000007 -1.9999999999999973
    vertex -7.2009618943232665 24.250000000000007 5.500000000000007
  endloop
endfacet
facet normal -0.9238795325112803 0.38268343236510544 0.0
  outer loop
    vertex -7.2009618943232665 24.250000000000007 -1.9999999999999973
    vertex -7.051111260566314 24.611771432346227 5.500000000000007
    vertex -7.051111260566314 24.611771432346227 -1.9999999999999973
  endloop
endfacet
facet normal -0.38268343236510544 -0.9238795325112803 0.0
  outer loop
    vertex -7.749999999999924 26.299038105676665 5.500000000000007
    vertex -8.111771432346144 26.44888873943362 -1.9999999999999973
    vertex -7.749999999999924 26.299038105676665 -1.9999999999999973
  endloop
endfacet
facet normal -0.38268343236510544 -0.9238795325112803 0.0
  outer loop
    vertex -8.111771432346144 26.44888873943362 -1.9999999999999973
    vertex -7.749999999999924 26.299038105676665 5.500000000000007
    vertex -8.111771432346144 26.44888873943362 5.500000000000007
  endloop
endfacet
facet normal -0.9914448613738114 0.13052619222004555 0.0
  outer loop
    vertex -6.999999999999919 25.000000000000004 5.500000000000007
    vertex -7.051111260566314 24.611771432346227 -1.9999999999999973
    vertex -7.051111260566314 24.611771432346227 5.500000000000007
  endloop
endfacet
facet normal -0.9914448613738114 0.13052619222004555 0.0
  outer loop
    vertex -7.051111260566314 24.611771432346227 -1.9999999999999973
    vertex -6.999999999999919 25.000000000000004 5.500000000000007
    vertex -6.999999999999919 25.000000000000004 -1.9999999999999973
  endloop
endfacet
facet normal 0.9238795325112823 -0.3826834323651003 -0.0
  outer loop
    vertex -9.799038105676573 25.75000000000001 -1.9999999999999973
    vertex -9.948888739433524 25.388228567653783 5.500000000000007
    vertex -9.948888739433524 25.388228567653783 -1.9999999999999973
  endloop
endfacet
facet normal 0.9238795325112823 -0.3826834323651003 -0.0
  outer loop
    vertex -9.948888739433524 25.388228567653783 5.500000000000007
    vertex -9.799038105676573 25.75000000000001 -1.9999999999999973
    vertex -9.799038105676573 25.75000000000001 5.500000000000007
  endloop
endfacet
facet normal -0.9238795325112881 0.3826834323650867 0.0
  outer loop
    vertex -11.314582562299366 26.62500000000003 5.500000000000007
    vertex -11.639258935439415 25.841161896583206 -1.9999999999999973
    vertex -11.639258935439415 25.841161896583206 5.500000000000007
  endloop
endfacet
facet normal -0.9238795325112881 0.3826834323650867 0.0
  outer loop
    vertex -11.639258935439415 25.841161896583206 -1.9999999999999973
    vertex -11.314582562299366 26.62500000000003 5.500000000000007
    vertex -11.314582562299366 26.62500000000003 -1.9999999999999973
  endloop
endfacet
facet normal -0.13052619222005452 0.99144486137381 -0.0
  outer loop
    vertex -9.341161896583108 28.139258935439514 5.500000000000007
    vertex -8.499999999999922 28.250000000000043 -1.9999999999999973
    vertex -9.341161896583108 28.139258935439514 -1.9999999999999973
  endloop
endfacet
facet normal -0.13052619222005452 0.99144486137381 -0.0
  outer loop
    vertex -8.499999999999922 28.250000000000043 -1.9999999999999973
    vertex -9.341161896583108 28.139258935439514 5.500000000000007
    vertex -8.499999999999922 28.250000000000043 5.500000000000007
  endloop
endfacet
facet normal -0.38268343236508334 0.9238795325112894 -0.0
  outer loop
    vertex -10.124999999999925 27.81458256229947 5.500000000000007
    vertex -9.341161896583108 28.139258935439514 -1.9999999999999973
    vertex -10.124999999999925 27.81458256229947 -1.9999999999999973
  endloop
endfacet
facet normal -0.38268343236508334 0.9238795325112894 -0.0
  outer loop
    vertex -9.341161896583108 28.139258935439514 -1.9999999999999973
    vertex -10.124999999999925 27.81458256229947 5.500000000000007
    vertex -9.341161896583108 28.139258935439514 5.500000000000007
  endloop
endfacet
facet normal 0.13052619222001907 -0.9914448613738147 0.0
  outer loop
    vertex -8.499999999999922 26.500000000000004 5.500000000000007
    vertex -8.888228567653695 26.44888873943362 -1.9999999999999973
    vertex -8.499999999999922 26.500000000000004 -1.9999999999999973
  endloop
endfacet
facet normal 0.13052619222001907 -0.9914448613738147 0.0
  outer loop
    vertex -8.888228567653695 26.44888873943362 -1.9999999999999973
    vertex -8.499999999999922 26.500000000000004 5.500000000000007
    vertex -8.888228567653695 26.44888873943362 5.500000000000007
  endloop
endfacet
facet normal -0.9914448613738103 -0.1305261922200537 0.0
  outer loop
    vertex -11.749999999999945 25.000000000000004 5.500000000000007
    vertex -11.639258935439415 24.158838103416816 -1.9999999999999973
    vertex -11.639258935439415 24.158838103416816 5.500000000000007
  endloop
endfacet
facet normal -0.9914448613738103 -0.1305261922200537 0.0
  outer loop
    vertex -11.639258935439415 24.158838103416816 -1.9999999999999973
    vertex -11.749999999999945 25.000000000000004 5.500000000000007
    vertex -11.749999999999945 25.000000000000004 -1.9999999999999973
  endloop
endfacet
facet normal 0.9914448613738114 0.13052619222004555 -0.0
  outer loop
    vertex -9.99999999999992 25.000000000000004 -1.9999999999999973
    vertex -9.948888739433524 24.611771432346227 5.500000000000007
    vertex -9.948888739433524 24.611771432346227 -1.9999999999999973
  endloop
endfacet
facet normal 0.9914448613738114 0.13052619222004555 -0.0
  outer loop
    vertex -9.948888739433524 24.611771432346227 5.500000000000007
    vertex -9.99999999999992 25.000000000000004 -1.9999999999999973
    vertex -9.99999999999992 25.000000000000004 5.500000000000007
  endloop
endfacet
facet normal 0.6087614290087102 0.793353340291243 -0.0
  outer loop
    vertex -9.560660171779746 23.939339828220188 5.500000000000007
    vertex -9.249999999999915 23.70096189432335 -1.9999999999999973
    vertex -9.560660171779746 23.939339828220188 -1.9999999999999973
  endloop
endfacet
facet normal 0.6087614290087102 0.793353340291243 -0.0
  outer loop
    vertex -9.249999999999915 23.70096189432335 -1.9999999999999973
    vertex -9.560660171779746 23.939339828220188 5.500000000000007
    vertex -9.249999999999915 23.70096189432335 5.500000000000007
  endloop
endfacet
facet normal 0.13052619222004738 0.9914448613738109 -0.0
  outer loop
    vertex -8.888228567653695 23.5511112605664 5.500000000000007
    vertex -8.499999999999922 23.500000000000007 -1.9999999999999973
    vertex -8.888228567653695 23.5511112605664 -1.9999999999999973
  endloop
endfacet
facet normal 0.13052619222004738 0.9914448613738109 -0.0
  outer loop
    vertex -8.499999999999922 23.500000000000007 -1.9999999999999973
    vertex -8.888228567653695 23.5511112605664 5.500000000000007
    vertex -8.499999999999922 23.500000000000007 5.500000000000007
  endloop
endfacet
facet normal -0.1305261922200455 0.9914448613738112 -0.0
  outer loop
    vertex -8.499999999999922 23.500000000000007 5.500000000000007
    vertex -8.111771432346144 23.5511112605664 -1.9999999999999973
    vertex -8.499999999999922 23.500000000000007 -1.9999999999999973
  endloop
endfacet
facet normal -0.1305261922200455 0.9914448613738112 -0.0
  outer loop
    vertex -8.111771432346144 23.5511112605664 -1.9999999999999973
    vertex -8.499999999999922 23.500000000000007 5.500000000000007
    vertex -8.111771432346144 23.5511112605664 5.500000000000007
  endloop
endfacet
facet normal -0.9238795325112862 -0.3826834323650914 0.0
  outer loop
    vertex -11.639258935439415 24.158838103416816 5.500000000000007
    vertex -11.314582562299366 23.375000000000004 -1.9999999999999973
    vertex -11.314582562299366 23.375000000000004 5.500000000000007
  endloop
endfacet
facet normal -0.9238795325112862 -0.3826834323650914 0.0
  outer loop
    vertex -11.314582562299366 23.375000000000004 -1.9999999999999973
    vertex -11.639258935439415 24.158838103416816 5.500000000000007
    vertex -11.639258935439415 24.158838103416816 -1.9999999999999973
  endloop
endfacet
facet normal 0.9238795325112803 0.38268343236510544 -0.0
  outer loop
    vertex -9.948888739433524 24.611771432346227 -1.9999999999999973
    vertex -9.799038105676573 24.250000000000007 5.500000000000007
    vertex -9.799038105676573 24.250000000000007 -1.9999999999999973
  endloop
endfacet
facet normal 0.9238795325112803 0.38268343236510544 -0.0
  outer loop
    vertex -9.799038105676573 24.250000000000007 5.500000000000007
    vertex -9.948888739433524 24.611771432346227 -1.9999999999999973
    vertex -9.948888739433524 24.611771432346227 5.500000000000007
  endloop
endfacet
facet normal -0.7933533402912274 -0.6087614290087306 0.0
  outer loop
    vertex -11.314582562299366 23.375000000000004 5.500000000000007
    vertex -10.798097038856207 22.701902961143727 -1.9999999999999973
    vertex -10.798097038856207 22.701902961143727 5.500000000000007
  endloop
endfacet
facet normal -0.7933533402912274 -0.6087614290087306 0.0
  outer loop
    vertex -10.798097038856207 22.701902961143727 -1.9999999999999973
    vertex -11.314582562299366 23.375000000000004 5.500000000000007
    vertex -11.314582562299366 23.375000000000004 -1.9999999999999973
  endloop
endfacet
facet normal -0.7933533402912395 0.6087614290087152 0.0
  outer loop
    vertex -7.2009618943232665 24.250000000000007 5.500000000000007
    vertex -7.439339828220098 23.939339828220188 -1.9999999999999973
    vertex -7.439339828220098 23.939339828220188 5.500000000000007
  endloop
endfacet
facet normal -0.7933533402912395 0.6087614290087152 0.0
  outer loop
    vertex -7.439339828220098 23.939339828220188 -1.9999999999999973
    vertex -7.2009618943232665 24.250000000000007 5.500000000000007
    vertex -7.2009618943232665 24.250000000000007 -1.9999999999999973
  endloop
endfacet
facet normal 0.0 -1.0 0.0
  outer loop
    vertex -3.4999999999998983 21.75 0.0
    vertex -8.499999999999922 21.75 -1.9999999999999973
    vertex -3.4999999999998983 21.75 -1.9999999999999973
  endloop
endfacet
facet normal 0.0 -1.0 0.0
  outer loop
    vertex -8.499999999999922 21.75 -1.9999999999999973
    vertex -3.4999999999998983 21.75 0.0
    vertex -8.499999999999922 21.75 5.500000000000007
  endloop
endfacet
facet normal 0.0 -1.0 0.0
  outer loop
    vertex -8.499999999999922 21.75 5.500000000000007
    vertex -3.4999999999998983 21.75 0.0
    vertex -3.4999999999998983 21.75 5.500000000000007
  endloop
endfacet
facet normal -0.3826834323650931 0.9238795325112854 -0.0
  outer loop
    vertex -8.111771432346144 23.5511112605664 5.500000000000007
    vertex -7.749999999999924 23.70096189432335 -1.9999999999999973
    vertex -8.111771432346144 23.5511112605664 -1.9999999999999973
  endloop
endfacet
facet normal -0.3826834323650931 0.9238795325112854 -0.0
  outer loop
    vertex -7.749999999999924 23.70096189432335 -1.9999999999999973
    vertex -8.111771432346144 23.5511112605664 5.500000000000007
    vertex -7.749999999999924 23.70096189432335 5.500000000000007
  endloop
endfacet
facet normal 0.38268343236509317 0.9238795325112854 -0.0
  outer loop
    vertex -9.249999999999915 23.70096189432335 5.500000000000007
    vertex -8.888228567653695 23.5511112605664 -1.9999999999999973
    vertex -9.249999999999915 23.70096189432335 -1.9999999999999973
  endloop
endfacet
facet normal 0.38268343236509317 0.9238795325112854 -0.0
  outer loop
    vertex -8.888228567653695 23.5511112605664 -1.9999999999999973
    vertex -9.249999999999915 23.70096189432335 5.500000000000007
    vertex -8.888228567653695 23.5511112605664 5.500000000000007
  endloop
endfacet
facet normal -0.6087614290087173 0.7933533402912377 -0.0
  outer loop
    vertex -7.749999999999924 23.70096189432335 5.500000000000007
    vertex -7.439339828220098 23.939339828220188 -1.9999999999999973
    vertex -7.749999999999924 23.70096189432335 -1.9999999999999973
  endloop
endfacet
facet normal -0.6087614290087173 0.7933533402912377 -0.0
  outer loop
    vertex -7.439339828220098 23.939339828220188 -1.9999999999999973
    vertex -7.749999999999924 23.70096189432335 5.500000000000007
    vertex -7.439339828220098 23.939339828220188 5.500000000000007
  endloop
endfacet
facet normal -0.13052619222005282 -0.9914448613738103 0.0
  outer loop
    vertex -8.499999999999922 21.75 5.500000000000007
    vertex -9.341161896583118 21.86074106456053 -1.9999999999999973
    vertex -8.499999999999922 21.75 -1.9999999999999973
  endloop
endfacet
facet normal -0.13052619222005282 -0.9914448613738103 0.0
  outer loop
    vertex -9.341161896583118 21.86074106456053 -1.9999999999999973
    vertex -8.499999999999922 21.75 5.500000000000007
    vertex -9.341161896583118 21.86074106456053 5.500000000000007
  endloop
endfacet
facet normal -0.6087614290087232 -0.7933533402912332 0.0
  outer loop
    vertex -10.124999999999925 22.185417437700572 5.500000000000007
    vertex -10.798097038856207 22.701902961143727 -1.9999999999999973
    vertex -10.124999999999925 22.185417437700572 -1.9999999999999973
  endloop
endfacet
facet normal -0.6087614290087232 -0.7933533402912332 0.0
  outer loop
    vertex -10.798097038856207 22.701902961143727 -1.9999999999999973
    vertex -10.124999999999925 22.185417437700572 5.500000000000007
    vertex -10.798097038856207 22.701902961143727 5.500000000000007
  endloop
endfacet
facet normal -0.0 -0.0 1.0
  outer loop
    vertex -3.499999999999898 5.000000000000007 0.0
    vertex -3.499999999999898 25.000000000000004 0.0
    vertex -3.4999999999998983 21.75 0.0
  endloop
endfacet
facet normal -0.0 -0.0 1.0
  outer loop
    vertex -3.499999999999898 25.000000000000004 0.0
    vertex -3.499999999999898 5.000000000000007 0.0
    vertex 7.578558299544865 5.000000000000007 0.0
  endloop
endfacet
facet normal -0.0 -0.0 1.0
  outer loop
    vertex -3.499999999999898 25.000000000000004 0.0
    vertex 7.578558299544865 5.000000000000007 0.0
    vertex 7.578558299544865 25.000000000000004 0.0
  endloop
endfacet
facet normal -3.95849486346263e-17 -2.8083916261052862e-18 1.0
  outer loop
    vertex 7.578558299544865 -5.999999999999993 5.500000000000005
    vertex -1.9999999999998987 -4.999999999999994 5.500000000000005
    vertex -1.9999999999998987 -5.999999999999993 5.500000000000005
  endloop
endfacet
facet normal -3.95849486346263e-17 -2.8083916261052862e-18 1.0
  outer loop
    vertex -1.9999999999998987 -4.999999999999994 5.500000000000005
    vertex -3.499999999999898 5.000000000000007 5.500000000000005
    vertex -3.4999999999998983 -1.9999999999999998 5.500000000000004
  endloop
endfacet
facet normal -3.95849486346263e-17 -2.8083916261052862e-18 1.0
  outer loop
    vertex -3.499999999999898 5.000000000000007 5.500000000000005
    vertex -1.9999999999998987 -4.999999999999994 5.500000000000005
    vertex 7.578558299544865 5.000000000000007 5.500000000000005
  endloop
endfacet
facet normal -3.95849486346263e-17 -2.8083916261052862e-18 1.0
  outer loop
    vertex 7.578558299544865 5.000000000000007 5.500000000000005
    vertex -1.9999999999998987 -4.999999999999994 5.500000000000005
    vertex 7.578558299544865 -5.999999999999993 5.500000000000005
  endloop
endfacet
facet normal 0.0 1.0 1.962329495393869e-17
  outer loop
    vertex -3.499999999999898 5.000000000000007 5.500000000000005
    vertex 7.578558299544865 5.000000000000007 0.0
    vertex -3.499999999999898 5.000000000000007 0.0
  endloop
endfacet
facet normal 0.0 1.0 1.962329495393869e-17
  outer loop
    vertex 7.578558299544865 5.000000000000007 0.0
    vertex -3.499999999999898 5.000000000000007 5.500000000000005
    vertex 7.578558299544865 5.000000000000007 5.500000000000005
  endloop
endfacet
facet normal 1.0 -2.169204986575302e-16 3.2133872893780735e-32
  outer loop
    vertex -3.499999999999898 25.000000000000004 0.0
    vertex -3.4999999999998983 21.75 5.500000000000007
    vertex -3.4999999999998983 21.75 0.0
  endloop
endfacet
facet normal 1.0 -2.169204986575302e-16 3.2133872893780735e-32
  outer loop
    vertex -3.4999999999998983 21.75 5.500000000000007
    vertex -3.499999999999898 25.000000000000004 0.0
    vertex -3.499999999999898 25.000000000000004 5.500000000000007
  endloop
endfacet
facet normal 0.0 -1.0 -3.0836537573484655e-31
  outer loop
    vertex 7.578558299544865 25.000000000000004 5.500000000000007
    vertex -3.499999999999898 25.000000000000004 0.0
    vertex 7.578558299544865 25.000000000000004 0.0
  endloop
endfacet
facet normal 0.0 -1.0 -3.0836537573484655e-31
  outer loop
    vertex -3.499999999999898 25.000000000000004 0.0
    vertex 7.578558299544865 25.000000000000004 5.500000000000007
    vertex -3.499999999999898 25.000000000000004 5.500000000000007
  endloop
endfacet
facet normal 0.0 1.0 1.7624790515924364e-16
  outer loop
    vertex -1.9999999999998987 -5.999999999999993 7.69999999999999
    vertex 7.578558299544865 -5.999999999999993 5.500000000000005
    vertex -1.9999999999998987 -5.999999999999993 5.500000000000005
  endloop
endfacet
facet normal 0.0 1.0 1.7624790515924364e-16
  outer loop
    vertex 7.578558299544865 -5.999999999999993 5.500000000000005
    vertex -1.9999999999998987 -5.999999999999993 7.69999999999999
    vertex 7.578558299544865 -5.999999999999993 7.69999999999999
  endloop
endfacet
facet normal 0.0 -1.0 0.0
  outer loop
    vertex 7.578558299544865 36.0 7.699999999999989
    vertex -3.4999999999998983 36.0 5.500000000000007
    vertex 7.578558299544865 36.0 5.500000000000007
  endloop
endfacet
facet normal 0.0 -1.0 0.0
  outer loop
    vertex -3.4999999999998983 36.0 5.500000000000007
    vertex 7.578558299544865 36.0 7.699999999999989
    vertex -3.4999999999998983 36.0 7.699999999999989
  endloop
endfacet
facet normal 4.9078349164120583e-17 2.0228781132688768e-17 -1.0
  outer loop
    vertex -3.499999999999898 4.000000000000007 -1.9999999999999998
    vertex -1.9999999999998983 -4.999999999999994 -1.9999999999999998
    vertex -3.4999999999998983 -1.9999999999999998 -2.0000000000000013
  endloop
endfacet
facet normal 4.9078349164120583e-17 2.0228781132688768e-17 -1.0
  outer loop
    vertex -1.9999999999998983 -4.999999999999994 -1.9999999999999998
    vertex -3.499999999999898 4.000000000000007 -1.9999999999999998
    vertex 7.578558299544865 4.000000000000007 -1.9999999999999998
  endloop
endfacet
facet normal 4.9078349164120583e-17 2.0228781132688768e-17 -1.0
  outer loop
    vertex -1.9999999999998983 -4.999999999999994 -1.9999999999999998
    vertex 7.578558299544865 4.000000000000007 -1.9999999999999998
    vertex 7.578558299544865 -4.999999999999992 -1.9999999999999998
  endloop
endfacet
facet normal -1.173817632543727e-16 1.8371050130184072e-17 -1.0
  outer loop
    vertex -11.639258935439415 25.841161896583206 -1.9999999999999973
    vertex -11.639258935439415 24.158838103416816 -1.9999999999999973
    vertex -11.749999999999945 25.000000000000004 -1.9999999999999973
  endloop
endfacet
facet normal -1.173817632543727e-16 1.8371050130184072e-17 -1.0
  outer loop
    vertex -11.639258935439415 24.158838103416816 -1.9999999999999973
    vertex -11.639258935439415 25.841161896583206 -1.9999999999999973
    vertex -11.314582562299366 26.62500000000003 -1.9999999999999973
  endloop
endfacet
facet normal -1.173817632543727e-16 1.8371050130184072e-17 -1.0
  outer loop
    vertex -11.639258935439415 24.158838103416816 -1.9999999999999973
    vertex -11.314582562299366 26.62500000000003 -1.9999999999999973
    vertex -11.314582562299366 23.375000000000004 -1.9999999999999973
  endloop
endfacet
facet normal -1.173817632543727e-16 1.8371050130184072e-17 -1.0
  outer loop
    vertex -11.314582562299366 23.375000000000004 -1.9999999999999973
    vertex -11.314582562299366 26.62500000000003 -1.9999999999999973
    vertex -10.798097038856207 27.298097038856312 -1.9999999999999973
  endloop
endfacet
facet normal -1.173817632543727e-16 1.8371050130184072e-17 -1.0
  outer loop
    vertex -11.314582562299366 23.375000000000004 -1.9999999999999973
    vertex -10.798097038856207 27.298097038856312 -1.9999999999999973
    vertex -10.798097038856207 22.701902961143727 -1.9999999999999973
  endloop
endfacet
facet normal -1.173817632543727e-16 1.8371050130184072e-17 -1.0
  outer loop
    vertex -10.798097038856207 22.701902961143727 -1.9999999999999973
    vertex -10.798097038856207 27.298097038856312 -1.9999999999999973
    vertex -10.124999999999925 27.81458256229947 -1.9999999999999973
  endloop
endfacet
facet normal -1.173817632543727e-16 1.8371050130184072e-17 -1.0
  outer loop
    vertex -10.798097038856207 22.701902961143727 -1.9999999999999973
    vertex -10.124999999999925 27.81458256229947 -1.9999999999999973
    vertex -10.124999999999925 22.185417437700572 -1.9999999999999973
  endloop
endfacet
facet normal -1.173817632543727e-16 1.8371050130184072e-17 -1.0
  outer loop
    vertex -10.124999999999925 22.185417437700572 -1.9999999999999973
    vertex -10.124999999999925 27.81458256229947 -1.9999999999999973
    vertex -9.99999999999992 25.000000000000004 -1.9999999999999973
  endloop
endfacet
facet normal -1.173817632543727e-16 1.8371050130184072e-17 -1.0
  outer loop
    vertex -9.99999999999992 25.000000000000004 -1.9999999999999973
    vertex -10.124999999999925 27.81458256229947 -1.9999999999999973
    vertex -9.948888739433524 25.388228567653783 -1.9999999999999973
  endloop
endfacet
facet normal -1.173817632543727e-16 1.8371050130184072e-17 -1.0
  outer loop
    vertex -9.948888739433524 25.388228567653783 -1.9999999999999973
    vertex -10.124999999999925 27.81458256229947 -1.9999999999999973
    vertex -9.341161896583108 28.139258935439514 -1.9999999999999973
  endloop
endfacet
facet normal -1.173817632543727e-16 1.8371050130184072e-17 -1.0
  outer loop
    vertex -9.948888739433524 25.388228567653783 -1.9999999999999973
    vertex -9.341161896583108 28.139258935439514 -1.9999999999999973
    vertex -9.799038105676573 25.75000000000001 -1.9999999999999973
  endloop
endfacet
facet normal -1.173817632543727e-16 1.8371050130184072e-17 -1.0
  outer loop
    vertex -9.799038105676573 25.75000000000001 -1.9999999999999973
    vertex -9.341161896583108 28.139258935439514 -1.9999999999999973
    vertex -9.560660171779746 26.06066017177984 -1.9999999999999973
  endloop
endfacet
facet normal -1.173817632543727e-16 1.8371050130184072e-17 -1.0
  outer loop
    vertex -9.560660171779746 26.06066017177984 -1.9999999999999973
    vertex -9.341161896583108 28.139258935439514 -1.9999999999999973
    vertex -9.249999999999915 26.299038105676665 -1.9999999999999973
  endloop
endfacet
facet normal -1.173817632543727e-16 1.8371050130184072e-17 -1.0
  outer loop
    vertex -9.249999999999915 26.299038105676665 -1.9999999999999973
    vertex -9.341161896583108 28.139258935439514 -1.9999999999999973
    vertex -8.499999999999922 28.250000000000043 -1.9999999999999973
  endloop
endfacet
facet normal -1.173817632543727e-16 1.8371050130184072e-17 -1.0
  outer loop
    vertex -9.249999999999915 26.299038105676665 -1.9999999999999973
    vertex -8.499999999999922 28.250000000000043 -1.9999999999999973
    vertex -8.888228567653695 26.44888873943362 -1.9999999999999973
  endloop
endfacet
facet normal -1.173817632543727e-16 1.8371050130184072e-17 -1.0
  outer loop
    vertex -8.888228567653695 26.44888873943362 -1.9999999999999973
    vertex -8.499999999999922 28.250000000000043 -1.9999999999999973
    vertex -8.499999999999922 26.500000000000004 -1.9999999999999973
  endloop
endfacet
facet normal -1.173817632543727e-16 1.8371050130184072e-17 -1.0
  outer loop
    vertex -8.499999999999922 26.500000000000004 -1.9999999999999973
    vertex -8.499999999999922 28.250000000000043 -1.9999999999999973
    vertex -3.4999999999998983 28.250000000000043 -1.9999999999999973
  endloop
endfacet
facet normal -1.173817632543727e-16 1.8371050130184072e-17 -1.0
  outer loop
    vertex -8.499999999999922 26.500000000000004 -1.9999999999999973
    vertex -3.4999999999998983 28.250000000000043 -1.9999999999999973
    vertex -8.111771432346144 26.44888873943362 -1.9999999999999973
  endloop
endfacet
facet normal -1.173817632543727e-16 1.8371050130184072e-17 -1.0
  outer loop
    vertex -8.111771432346144 26.44888873943362 -1.9999999999999973
    vertex -3.4999999999998983 28.250000000000043 -1.9999999999999973
    vertex -7.749999999999924 26.299038105676665 -1.9999999999999973
  endloop
endfacet
facet normal -1.173817632543727e-16 1.8371050130184072e-17 -1.0
  outer loop
    vertex -7.749999999999924 26.299038105676665 -1.9999999999999973
    vertex -3.4999999999998983 28.250000000000043 -1.9999999999999973
    vertex -7.439339828220098 26.06066017177984 -1.9999999999999973
  endloop
endfacet
facet normal -1.173817632543727e-16 1.8371050130184072e-17 -1.0
  outer loop
    vertex -7.439339828220098 26.06066017177984 -1.9999999999999973
    vertex -3.4999999999998983 28.250000000000043 -1.9999999999999973
    vertex -7.2009618943232665 25.75000000000001 -1.9999999999999973
  endloop
endfacet
facet normal -1.173817632543727e-16 1.8371050130184072e-17 -1.0
  outer loop
    vertex -7.2009618943232665 25.75000000000001 -1.9999999999999973
    vertex -3.4999999999998983 28.250000000000043 -1.9999999999999973
    vertex -7.051111260566314 25.388228567653783 -1.9999999999999973
  endloop
endfacet
facet normal -1.173817632543727e-16 1.8371050130184072e-17 -1.0
  outer loop
    vertex -7.051111260566314 25.388228567653783 -1.9999999999999973
    vertex -3.4999999999998983 28.250000000000043 -1.9999999999999973
    vertex -6.999999999999919 25.000000000000004 -1.9999999999999973
  endloop
endfacet
facet normal -1.173817632543727e-16 1.8371050130184072e-17 -1.0
  outer loop
    vertex -3.4999999999998948 35.0 -1.9999999999999998
    vertex -3.4999999999998983 26.000000000000004 -1.999999999999999
    vertex -3.4999999999998983 28.250000000000043 -1.9999999999999973
  endloop
endfacet
facet normal -1.173817632543727e-16 1.8371050130184072e-17 -1.0
  outer loop
    vertex -3.4999999999998983 26.000000000000004 -1.999999999999999
    vertex -3.4999999999998948 35.0 -1.9999999999999998
    vertex 7.578558299544865 26.000000000000004 -1.999999999999999
  endloop
endfacet
facet normal -1.173817632543727e-16 1.8371050130184072e-17 -1.0
  outer loop
    vertex 7.578558299544865 26.000000000000004 -1.999999999999999
    vertex -3.4999999999998948 35.0 -1.9999999999999998
    vertex 7.578558299544865 35.0 -1.9999999999999998
  endloop
endfacet
facet normal -1.173817632543727e-16 1.8371050130184072e-17 -1.0
  outer loop
    vertex -10.124999999999925 22.185417437700572 -1.9999999999999973
    vertex -9.948888739433524 24.611771432346227 -1.9999999999999973
    vertex -9.341161896583118 21.86074106456053 -1.9999999999999973
  endloop
endfacet
facet normal -1.173817632543727e-16 1.8371050130184072e-17 -1.0
  outer loop
    vertex -9.948888739433524 24.611771432346227 -1.9999999999999973
    vertex -10.124999999999925 22.185417437700572 -1.9999999999999973
    vertex -9.99999999999992 25.000000000000004 -1.9999999999999973
  endloop
endfacet
facet normal -1.173817632543727e-16 1.8371050130184072e-17 -1.0
  outer loop
    vertex -9.341161896583118 21.86074106456053 -1.9999999999999973
    vertex -9.948888739433524 24.611771432346227 -1.9999999999999973
    vertex -9.799038105676573 24.250000000000007 -1.9999999999999973
  endloop
endfacet
facet normal -1.173817632543727e-16 1.8371050130184072e-17 -1.0
  outer loop
    vertex -9.341161896583118 21.86074106456053 -1.9999999999999973
    vertex -9.799038105676573 24.250000000000007 -1.9999999999999973
    vertex -9.560660171779746 23.939339828220188 -1.9999999999999973
  endloop
endfacet
facet normal -1.173817632543727e-16 1.8371050130184072e-17 -1.0
  outer loop
    vertex -9.341161896583118 21.86074106456053 -1.9999999999999973
    vertex -9.560660171779746 23.939339828220188 -1.9999999999999973
    vertex -9.249999999999915 23.70096189432335 -1.9999999999999973
  endloop
endfacet
facet normal -1.173817632543727e-16 1.8371050130184072e-17 -1.0
  outer loop
    vertex -9.341161896583118 21.86074106456053 -1.9999999999999973
    vertex -9.249999999999915 23.70096189432335 -1.9999999999999973
    vertex -8.499999999999922 21.75 -1.9999999999999973
  endloop
endfacet
facet normal -1.173817632543727e-16 1.8371050130184072e-17 -1.0
  outer loop
    vertex -8.499999999999922 21.75 -1.9999999999999973
    vertex -9.249999999999915 23.70096189432335 -1.9999999999999973
    vertex -8.888228567653695 23.5511112605664 -1.9999999999999973
  endloop
endfacet
facet normal -1.173817632543727e-16 1.8371050130184072e-17 -1.0
  outer loop
    vertex -8.499999999999922 21.75 -1.9999999999999973
    vertex -8.888228567653695 23.5511112605664 -1.9999999999999973
    vertex -8.499999999999922 23.500000000000007 -1.9999999999999973
  endloop
endfacet
facet normal -1.173817632543727e-16 1.8371050130184072e-17 -1.0
  outer loop
    vertex -8.499999999999922 21.75 -1.9999999999999973
    vertex -8.499999999999922 23.500000000000007 -1.9999999999999973
    vertex -8.111771432346144 23.5511112605664 -1.9999999999999973
  endloop
endfacet
facet normal -1.173817632543727e-16 1.8371050130184072e-17 -1.0
  outer loop
    vertex -8.499999999999922 21.75 -1.9999999999999973
    vertex -8.111771432346144 23.5511112605664 -1.9999999999999973
    vertex -3.4999999999998983 21.75 -1.9999999999999973
  endloop
endfacet
facet normal -1.173817632543727e-16 1.8371050130184072e-17 -1.0
  outer loop
    vertex -3.4999999999998983 21.75 -1.9999999999999973
    vertex -8.111771432346144 23.5511112605664 -1.9999999999999973
    vertex -7.749999999999924 23.70096189432335 -1.9999999999999973
  endloop
endfacet
facet normal -1.173817632543727e-16 1.8371050130184072e-17 -1.0
  outer loop
    vertex -3.4999999999998983 21.75 -1.9999999999999973
    vertex -7.749999999999924 23.70096189432335 -1.9999999999999973
    vertex -7.439339828220098 23.939339828220188 -1.9999999999999973
  endloop
endfacet
facet normal -1.173817632543727e-16 1.8371050130184072e-17 -1.0
  outer loop
    vertex -3.4999999999998983 21.75 -1.9999999999999973
    vertex -7.439339828220098 23.939339828220188 -1.9999999999999973
    vertex -7.2009618943232665 24.250000000000007 -1.9999999999999973
  endloop
endfacet
facet normal -1.173817632543727e-16 1.8371050130184072e-17 -1.0
  outer loop
    vertex -3.4999999999998983 21.75 -1.9999999999999973
    vertex -7.2009618943232665 24.250000000000007 -1.9999999999999973
    vertex -7.051111260566314 24.611771432346227 -1.9999999999999973
  endloop
endfacet
facet normal -1.173817632543727e-16 1.8371050130184072e-17 -1.0
  outer loop
    vertex -3.4999999999998983 21.75 -1.9999999999999973
    vertex -7.051111260566314 24.611771432346227 -1.9999999999999973
    vertex -6.999999999999919 25.000000000000004 -1.9999999999999973
  endloop
endfacet
facet normal -1.173817632543727e-16 1.8371050130184072e-17 -1.0
  outer loop
    vertex -3.4999999999998983 21.75 -1.9999999999999973
    vertex -6.999999999999919 25.000000000000004 -1.9999999999999973
    vertex -3.4999999999998983 28.250000000000043 -1.9999999999999973
  endloop
endfacet
facet normal -1.173817632543727e-16 1.8371050130184072e-17 -1.0
  outer loop
    vertex -3.4999999999998983 21.75 -1.9999999999999973
    vertex -3.4999999999998983 28.250000000000043 -1.9999999999999973
    vertex -3.4999999999998983 26.000000000000004 -1.999999999999999
  endloop
endfacet
facet normal -1.173817632543727e-16 1.8371050130184072e-17 -1.0
  outer loop
    vertex -3.4999999999998983 21.75 -1.9999999999999973
    vertex -3.4999999999998983 26.000000000000004 -1.999999999999999
    vertex -3.4999999999998983 24.000000000000004 -1.999999999999999
  endloop
endfacet
facet normal -1.173817632543727e-16 1.8371050130184072e-17 -1.0
  outer loop
    vertex -3.4999999999998983 21.75 -1.9999999999999973
    vertex -3.4999999999998983 24.000000000000004 -1.999999999999999
    vertex 7.578558299544865 24.000000000000004 -1.999999999999999
  endloop
endfacet
facet normal -1.173817632543727e-16 1.8371050130184072e-17 -1.0
  outer loop
    vertex -3.4999999999998983 21.75 -1.9999999999999973
    vertex 7.578558299544865 24.000000000000004 -1.999999999999999
    vertex -3.499999999999898 6.000000000000006 -1.9999999999999998
  endloop
endfacet
facet normal -1.173817632543727e-16 1.8371050130184072e-17 -1.0
  outer loop
    vertex -3.499999999999898 6.000000000000006 -1.9999999999999998
    vertex 7.578558299544865 24.000000000000004 -1.999999999999999
    vertex 7.578558299544865 6.000000000000006 -1.9999999999999998
  endloop
endfacet
facet normal 0.0 0.0 -1.0
  outer loop
    vertex 7.578558299544865 6.000000000000006 -5.0
    vertex -3.499999999999898 4.000000000000007 -5.0
    vertex -3.499999999999898 6.000000000000006 -5.0
  endloop
endfacet
facet normal 0.0 0.0 -1.0
  outer loop
    vertex -3.499999999999898 4.000000000000007 -5.0
    vertex 7.578558299544865 6.000000000000006 -5.0
    vertex 7.578558299544865 4.000000000000007 -5.0
  endloop
endfacet
facet normal -0.0 -1.0 -0.0
  outer loop
    vertex 7.578558299544865 4.000000000000007 -1.9999999999999998
    vertex -3.499999999999898 4.000000000000007 -5.0
    vertex 7.578558299544865 4.000000000000007 -5.0
  endloop
endfacet
facet normal -0.0 -1.0 -0.0
  outer loop
    vertex -3.499999999999898 4.000000000000007 -5.0
    vertex 7.578558299544865 4.000000000000007 -1.9999999999999998
    vertex -3.499999999999898 4.000000000000007 -1.9999999999999998
  endloop
endfacet
facet normal -0.0 1.0 0.0
  outer loop
    vertex -3.499999999999898 6.000000000000006 -1.9999999999999998
    vertex 7.578558299544865 6.000000000000006 -5.0
    vertex -3.499999999999898 6.000000000000006 -5.0
  endloop
endfacet
facet normal -0.0 1.0 0.0
  outer loop
    vertex 7.578558299544865 6.000000000000006 -5.0
    vertex -3.499999999999898 6.000000000000006 -1.9999999999999998
    vertex 7.578558299544865 6.000000000000006 -1.9999999999999998
  endloop
endfacet
facet normal -1.1229826357448733e-17 5.851052717225766e-32 -1.0
  outer loop
    vertex 7.578558299544865 26.000000000000004 -4.999999999999999
    vertex -3.4999999999998983 24.000000000000004 -4.999999999999999
    vertex -3.4999999999998983 26.000000000000004 -4.999999999999999
  endloop
endfacet
facet normal -1.1229826357448733e-17 5.851052717225766e-32 -1.0
  outer loop
    vertex -3.4999999999998983 24.000000000000004 -4.999999999999999
    vertex 7.578558299544865 26.000000000000004 -4.999999999999999
    vertex 7.578558299544865 24.000000000000004 -4.999999999999999
  endloop
endfacet
facet normal -1.0 0.0 0.0
  outer loop
    vertex -3.4999999999998983 26.000000000000004 -1.999999999999999
    vertex -3.4999999999998983 24.000000000000004 -4.999999999999999
    vertex -3.4999999999998983 24.000000000000004 -1.999999999999999
  endloop
endfacet
facet normal -1.0 0.0 0.0
  outer loop
    vertex -3.4999999999998983 24.000000000000004 -4.999999999999999
    vertex -3.4999999999998983 26.000000000000004 -1.999999999999999
    vertex -3.4999999999998983 26.000000000000004 -4.999999999999999
  endloop
endfacet
facet normal -0.0 1.0 5.851052717225767e-32
  outer loop
    vertex -3.4999999999998983 26.000000000000004 -1.999999999999999
    vertex 7.578558299544865 26.000000000000004 -4.999999999999999
    vertex -3.4999999999998983 26.000000000000004 -4.999999999999999
  endloop
endfacet
facet normal -0.0 1.0 5.851052717225767e-32
  outer loop
    vertex 7.578558299544865 26.000000000000004 -4.999999999999999
    vertex -3.4999999999998983 26.000000000000004 -1.999999999999999
    vertex 7.578558299544865 26.000000000000004 -1.999999999999999
  endloop
endfacet
facet normal -0.0 -1.0 -5.851052717225767e-32
  outer loop
    vertex 7.578558299544865 24.000000000000004 -1.999999999999999
    vertex -3.4999999999998983 24.000000000000004 -4.999999999999999
    vertex 7.578558299544865 24.000000000000004 -4.999999999999999
  endloop
endfacet
facet normal -0.0 -1.0 -5.851052717225767e-32
  outer loop
    vertex -3.4999999999998983 24.000000000000004 -4.999999999999999
    vertex 7.578558299544865 24.000000000000004 -1.999999999999999
    vertex -3.4999999999998983 24.000000000000004 -1.999999999999999
  endloop
endfacet
facet normal 0.0 -1.0 0.0
  outer loop
    vertex 7.578558299544865 -6.999999999999993 8.69999999999999
    vertex -1.9999999999998987 -6.999999999999993 4.0
    vertex 7.578558299544865 -6.999999999999993 4.0
  endloop
endfacet
facet normal 0.0 -1.0 0.0
  outer loop
    vertex -1.9999999999998987 -6.999999999999993 4.0
    vertex 7.578558299544865 -6.999999999999993 8.69999999999999
    vertex -1.9999999999998987 -6.999999999999993 8.69999999999999
  endloop
endfacet
facet normal 1.0 2.811073744030271e-17 9.050242808122945e-18
  outer loop
    vertex 7.578558299544865 26.000000000000004 -4.999999999999999
    vertex 7.578558299544865 24.000000000000004 -1.999999999999999
    vertex 7.578558299544865 24.000000000000004 -4.999999999999999
  endloop
endfacet
facet normal 1.0 2.811073744030271e-17 9.050242808122945e-18
  outer loop
    vertex 7.578558299544865 24.000000000000004 -1.999999999999999
    vertex 7.578558299544865 26.000000000000004 -4.999999999999999
    vertex 7.578558299544865 25.000000000000004 0.0
  endloop
endfacet
facet normal 1.0 2.811073744030271e-17 9.050242808122945e-18
  outer loop
    vertex 7.578558299544865 25.000000000000004 0.0
    vertex 7.578558299544865 26.000000000000004 -4.999999999999999
    vertex 7.578558299544865 25.000000000000004 5.500000000000007
  endloop
endfacet
facet normal 1.0 2.811073744030271e-17 9.050242808122945e-18
  outer loop
    vertex 7.578558299544865 25.000000000000004 5.500000000000007
    vertex 7.578558299544865 26.000000000000004 -4.999999999999999
    vertex 7.578558299544865 26.000000000000004 -1.999999999999999
  endloop
endfacet
facet normal 1.0 2.811073744030271e-17 9.050242808122945e-18
  outer loop
    vertex 7.578558299544865 25.000000000000004 5.500000000000007
    vertex 7.578558299544865 26.000000000000004 -1.999999999999999
    vertex 7.578558299544865 36.0 5.500000000000007
  endloop
endfacet
facet normal 1.0 2.811073744030271e-17 9.050242808122945e-18
  outer loop
    vertex 7.578558299544865 36.0 5.500000000000007
    vertex 7.578558299544865 26.000000000000004 -1.999999999999999
    vertex 7.5785582995448575 35.0 3.000000000000001
  endloop
endfacet
facet normal 1.0 2.811073744030271e-17 9.050242808122945e-18
  outer loop
    vertex 7.5785582995448575 35.0 3.000000000000001
    vertex 7.578558299544865 26.000000000000004 -1.999999999999999
    vertex 7.578558299544865 35.0 -1.9999999999999998
  endloop
endfacet
facet normal 1.0 2.811073744030271e-17 9.050242808122945e-18
  outer loop
    vertex 7.578558299544865 36.0 5.500000000000007
    vertex 7.5785582995448575 35.0 3.000000000000001
    vertex 7.578558299544858 37.0 4.0
  endloop
endfacet
facet normal 1.0 2.811073744030271e-17 9.050242808122945e-18
  outer loop
    vertex 7.578558299544865 36.0 5.500000000000007
    vertex 7.578558299544858 37.0 4.0
    vertex 7.578558299544865 36.0 7.699999999999989
  endloop
endfacet
facet normal 1.0 2.811073744030271e-17 9.050242808122945e-18
  outer loop
    vertex 7.578558299544865 36.0 7.699999999999989
    vertex 7.578558299544865 31.5 8.699999999999989
    vertex 7.578558299544865 31.5 7.699999999999989
  endloop
endfacet
facet normal 1.0 2.811073744030271e-17 9.050242808122945e-18
  outer loop
    vertex 7.578558299544865 31.5 8.699999999999989
    vertex 7.578558299544865 36.0 7.699999999999989
    vertex 7.578558299544865 37.0 8.699999999999989
  endloop
endfacet
facet normal 1.0 2.811073744030271e-17 9.050242808122945e-18
  outer loop
    vertex 7.578558299544865 37.0 8.699999999999989
    vertex 7.578558299544865 36.0 7.699999999999989
    vertex 7.578558299544858 37.0 4.0
  endloop
endfacet
facet normal 1.0 2.811073744030271e-17 9.050242808122945e-18
  outer loop
    vertex 7.578558299544865 6.000000000000006 -5.0
    vertex 7.578558299544865 4.000000000000007 -1.9999999999999998
    vertex 7.578558299544865 4.000000000000007 -5.0
  endloop
endfacet
facet normal 1.0 2.811073744030271e-17 9.050242808122945e-18
  outer loop
    vertex 7.578558299544865 4.000000000000007 -1.9999999999999998
    vertex 7.578558299544865 6.000000000000006 -5.0
    vertex 7.578558299544865 5.000000000000007 0.0
  endloop
endfacet
facet normal 1.0 2.811073744030271e-17 9.050242808122945e-18
  outer loop
    vertex 7.578558299544865 5.000000000000007 0.0
    vertex 7.578558299544865 6.000000000000006 -5.0
    vertex 7.578558299544865 6.000000000000006 -1.9999999999999998
  endloop
endfacet
facet normal 1.0 2.811073744030271e-17 9.050242808122945e-18
  outer loop
    vertex 7.578558299544865 5.000000000000007 0.0
    vertex 7.578558299544865 6.000000000000006 -1.9999999999999998
    vertex 7.578558299544865 25.000000000000004 0.0
  endloop
endfacet
facet normal 1.0 2.811073744030271e-17 9.050242808122945e-18
  outer loop
    vertex 7.578558299544865 25.000000000000004 0.0
    vertex 7.578558299544865 6.000000000000006 -1.9999999999999998
    vertex 7.578558299544865 24.000000000000004 -1.999999999999999
  endloop
endfacet
facet normal 1.0 2.811073744030271e-17 9.050242808122945e-18
  outer loop
    vertex 7.578558299544865 -6.999999999999993 4.0
    vertex 7.578558299544865 -5.999999999999993 5.500000000000005
    vertex 7.578558299544865 -6.999999999999993 8.69999999999999
  endloop
endfacet
facet normal 1.0 2.811073744030271e-17 9.050242808122945e-18
  outer loop
    vertex 7.578558299544865 -5.999999999999993 5.500000000000005
    vertex 7.578558299544865 -6.999999999999993 4.0
    vertex 7.578558299544863 -4.999999999999994 3.0
  endloop
endfacet
facet normal 1.0 2.811073744030271e-17 9.050242808122945e-18
  outer loop
    vertex 7.578558299544865 -5.999999999999993 5.500000000000005
    vertex 7.578558299544863 -4.999999999999994 3.0
    vertex 7.578558299544865 5.000000000000007 5.500000000000005
  endloop
endfacet
facet normal 1.0 2.811073744030271e-17 9.050242808122945e-18
  outer loop
    vertex 7.578558299544865 5.000000000000007 5.500000000000005
    vertex 7.578558299544863 -4.999999999999994 3.0
    vertex 7.578558299544865 -4.999999999999992 -1.9999999999999998
  endloop
endfacet
facet normal 1.0 2.811073744030271e-17 9.050242808122945e-18
  outer loop
    vertex 7.578558299544865 5.000000000000007 5.500000000000005
    vertex 7.578558299544865 -4.999999999999992 -1.9999999999999998
    vertex 7.578558299544865 4.000000000000007 -1.9999999999999998
  endloop
endfacet
facet normal 1.0 2.811073744030271e-17 9.050242808122945e-18
  outer loop
    vertex 7.578558299544865 5.000000000000007 5.500000000000005
    vertex 7.578558299544865 4.000000000000007 -1.9999999999999998
    vertex 7.578558299544865 5.000000000000007 0.0
  endloop
endfacet
facet normal 1.0 2.811073744030271e-17 9.050242808122945e-18
  outer loop
    vertex 7.578558299544865 -6.999999999999993 8.69999999999999
    vertex 7.578558299544865 -5.999999999999993 7.69999999999999
    vertex 7.578558299544865 -1.4999999999999922 8.69999999999999
  endloop
endfacet
facet normal 1.0 2.811073744030271e-17 9.050242808122945e-18
  outer loop
    vertex 7.578558299544865 -5.999999999999993 7.69999999999999
    vertex 7.578558299544865 -6.999999999999993 8.69999999999999
    vertex 7.578558299544865 -5.999999999999993 5.500000000000005
  endloop
endfacet
facet normal 1.0 2.811073744030271e-17 9.050242808122945e-18
  outer loop
    vertex 7.578558299544865 -1.4999999999999922 8.69999999999999
    vertex 7.578558299544865 -5.999999999999993 7.69999999999999
    vertex 7.578558299544865 -1.4999999999999922 7.699999999999991
  endloop
endfacet
facet normal -1.0 0.0 0.0
  outer loop
    vertex -1.9999999999998987 -6.999999999999993 8.69999999999999
    vertex -1.9999999999998987 -5.999999999999993 7.69999999999999
    vertex -1.9999999999998987 -6.999999999999993 4.0
  endloop
endfacet
facet normal -1.0 0.0 0.0
  outer loop
    vertex -1.9999999999998987 -5.999999999999993 7.69999999999999
    vertex -1.9999999999998987 -6.999999999999993 8.69999999999999
    vertex -1.9999999999998987 -1.4999999999999922 8.69999999999999
  endloop
endfacet
facet normal -1.0 0.0 0.0
  outer loop
    vertex -1.9999999999998987 -6.999999999999993 4.0
    vertex -1.9999999999998987 -5.999999999999993 7.69999999999999
    vertex -1.9999999999998987 -5.999999999999993 5.500000000000005
  endloop
endfacet
facet normal -1.0 0.0 0.0
  outer loop
    vertex -1.9999999999998987 -5.999999999999993 7.69999999999999
    vertex -1.9999999999998987 -1.4999999999999922 8.69999999999999
    vertex -1.9999999999998987 -1.4999999999999922 7.699999999999991
  endloop
endfacet
facet normal -1.0 0.0 0.0
  outer loop
    vertex -1.9999999999998987 -5.999999999999993 5.500000000000005
    vertex -1.9999999999998987 -4.999999999999994 3.0
    vertex -1.9999999999998987 -6.999999999999993 4.0
  endloop
endfacet
facet normal -1.0 0.0 0.0
  outer loop
    vertex -1.9999999999998987 -4.999999999999994 3.0
    vertex -1.9999999999998987 -5.999999999999993 5.500000000000005
    vertex -1.9999999999998987 -4.999999999999994 5.500000000000005
  endloop
endfacet
facet normal 7.360101578861614e-17 -1.0 -1.4099832412739488e-16
  outer loop
    vertex 7.578558299544863 -4.999999999999994 3.0
    vertex -1.9999999999998983 -4.999999999999994 -1.9999999999999998
    vertex 7.578558299544865 -4.999999999999992 -1.9999999999999998
  endloop
endfacet
facet normal 7.360101578861614e-17 -1.0 -1.4099832412739488e-16
  outer loop
    vertex -1.9999999999998983 -4.999999999999994 -1.9999999999999998
    vertex 7.578558299544863 -4.999999999999994 3.0
    vertex -1.9999999999998987 -4.999999999999994 3.0
  endloop
endfacet
facet normal -0.0 1.0 -0.0
  outer loop
    vertex -3.4999999999998983 35.0 3.0
    vertex 7.578558299544865 35.0 -1.9999999999999998
    vertex -3.4999999999998948 35.0 -1.9999999999999998
  endloop
endfacet
facet normal -0.0 1.0 -0.0
  outer loop
    vertex 7.578558299544865 35.0 -1.9999999999999998
    vertex -3.4999999999998983 35.0 3.0
    vertex 7.5785582995448575 35.0 3.000000000000001
  endloop
endfacet
facet normal -1.5263358006137836e-33 -0.44721359549995826 -0.8944271909999159
  outer loop
    vertex 7.578558299544863 -4.999999999999994 3.0
    vertex -1.9999999999998987 -6.999999999999993 4.0
    vertex -1.9999999999998987 -4.999999999999994 3.0
  endloop
endfacet
facet normal -1.5263358006137836e-33 -0.44721359549995826 -0.8944271909999159
  outer loop
    vertex -1.9999999999998987 -6.999999999999993 4.0
    vertex 7.578558299544863 -4.999999999999994 3.0
    vertex 7.578558299544865 -6.999999999999993 4.0
  endloop
endfacet
facet normal -0.0 1.0 -0.0
  outer loop
    vertex -3.4999999999998983 37.0 8.699999999999989
    vertex 7.578558299544858 37.0 4.0
    vertex -3.4999999999998983 37.0 4.0
  endloop
endfacet
facet normal -0.0 1.0 -0.0
  outer loop
    vertex 7.578558299544858 37.0 4.0
    vertex -3.4999999999998983 37.0 8.699999999999989
    vertex 7.578558299544865 37.0 8.699999999999989
  endloop
endfacet
facet normal 2.8545932333746974e-17 0.44721359549995854 -0.8944271909999155
  outer loop
    vertex 7.578558299544858 37.0 4.0
    vertex -3.4999999999998983 35.0 3.0
    vertex -3.4999999999998983 37.0 4.0
  endloop
endfacet
facet normal 2.8545932333746974e-17 0.44721359549995854 -0.8944271909999155
  outer loop
    vertex -3.4999999999998983 35.0 3.0
    vertex 7.578558299544858 37.0 4.0
    vertex 7.5785582995448575 35.0 3.000000000000001
  endloop
endfacet
facet normal -0.8944271909999155 -0.44721359549995854 -2.1672907138193734e-17
  outer loop
    vertex -3.4999999999998983 -1.9999999999999998 5.500000000000004
    vertex -1.9999999999998987 -4.999999999999994 3.0
    vertex -1.9999999999998987 -4.999999999999994 5.500000000000005
  endloop
endfacet
facet normal -0.8944271909999155 -0.44721359549995854 -2.1672907138193734e-17
  outer loop
    vertex -1.9999999999998987 -4.999999999999994 3.0
    vertex -3.4999999999998983 -1.9999999999999998 5.500000000000004
    vertex -1.9999999999998983 -4.999999999999994 -1.9999999999999998
  endloop
endfacet
facet normal -0.8944271909999155 -0.44721359549995854 -2.1672907138193734e-17
  outer loop
    vertex -1.9999999999998983 -4.999999999999994 -1.9999999999999998
    vertex -3.4999999999998983 -1.9999999999999998 5.500000000000004
    vertex -3.4999999999998983 -1.9999999999999998 -2.0000000000000013
  endloop
endfacet
facet normal 4.197193749318083e-32 -6.5239617031022e-32 1.0
  outer loop
    vertex -11.639258935439415 24.158838103416816 5.500000000000007
    vertex -11.639258935439415 25.841161896583206 5.500000000000007
    vertex -11.749999999999945 25.000000000000004 5.500000000000007
  endloop
endfacet
facet normal 4.197193749318083e-32 -6.5239617031022e-32 1.0
  outer loop
    vertex -11.639258935439415 25.841161896583206 5.500000000000007
    vertex -11.639258935439415 24.158838103416816 5.500000000000007
    vertex -11.314582562299366 23.375000000000004 5.500000000000007
  endloop
endfacet
facet normal 4.197193749318083e-32 -6.5239617031022e-32 1.0
  outer loop
    vertex -11.639258935439415 25.841161896583206 5.500000000000007
    vertex -11.314582562299366 23.375000000000004 5.500000000000007
    vertex -11.314582562299366 26.62500000000003 5.500000000000007
  endloop
endfacet
facet normal 4.197193749318083e-32 -6.5239617031022e-32 1.0
  outer loop
    vertex -11.314582562299366 26.62500000000003 5.500000000000007
    vertex -11.314582562299366 23.375000000000004 5.500000000000007
    vertex -10.798097038856207 22.701902961143727 5.500000000000007
  endloop
endfacet
facet normal 4.197193749318083e-32 -6.5239617031022e-32 1.0
  outer loop
    vertex -11.314582562299366 26.62500000000003 5.500000000000007
    vertex -10.798097038856207 22.701902961143727 5.500000000000007
    vertex -10.798097038856207 27.298097038856312 5.500000000000007
  endloop
endfacet
facet normal 4.197193749318083e-32 -6.5239617031022e-32 1.0
  outer loop
    vertex -10.798097038856207 27.298097038856312 5.500000000000007
    vertex -10.798097038856207 22.701902961143727 5.500000000000007
    vertex -10.124999999999925 22.185417437700572 5.500000000000007
  endloop
endfacet
facet normal 4.197193749318083e-32 -6.5239617031022e-32 1.0
  outer loop
    vertex -10.798097038856207 27.298097038856312 5.500000000000007
    vertex -10.124999999999925 22.185417437700572 5.500000000000007
    vertex -10.124999999999925 27.81458256229947 5.500000000000007
  endloop
endfacet
facet normal 4.197193749318083e-32 -6.5239617031022e-32 1.0
  outer loop
    vertex -10.124999999999925 27.81458256229947 5.500000000000007
    vertex -10.124999999999925 22.185417437700572 5.500000000000007
    vertex -9.99999999999992 25.000000000000004 5.500000000000007
  endloop
endfacet
facet normal 4.197193749318083e-32 -6.5239617031022e-32 1.0
  outer loop
    vertex -9.99999999999992 25.000000000000004 5.500000000000007
    vertex -10.124999999999925 22.185417437700572 5.500000000000007
    vertex -9.948888739433524 24.611771432346227 5.500000000000007
  endloop
endfacet
facet normal 4.197193749318083e-32 -6.5239617031022e-32 1.0
  outer loop
    vertex -9.948888739433524 24.611771432346227 5.500000000000007
    vertex -10.124999999999925 22.185417437700572 5.500000000000007
    vertex -9.341161896583118 21.86074106456053 5.500000000000007
  endloop
endfacet
facet normal 4.197193749318083e-32 -6.5239617031022e-32 1.0
  outer loop
    vertex -9.948888739433524 24.611771432346227 5.500000000000007
    vertex -9.341161896583118 21.86074106456053 5.500000000000007
    vertex -9.799038105676573 24.250000000000007 5.500000000000007
  endloop
endfacet
facet normal 4.197193749318083e-32 -6.5239617031022e-32 1.0
  outer loop
    vertex -9.799038105676573 24.250000000000007 5.500000000000007
    vertex -9.341161896583118 21.86074106456053 5.500000000000007
    vertex -9.560660171779746 23.939339828220188 5.500000000000007
  endloop
endfacet
facet normal 4.197193749318083e-32 -6.5239617031022e-32 1.0
  outer loop
    vertex -9.560660171779746 23.939339828220188 5.500000000000007
    vertex -9.341161896583118 21.86074106456053 5.500000000000007
    vertex -9.249999999999915 23.70096189432335 5.500000000000007
  endloop
endfacet
facet normal 4.197193749318083e-32 -6.5239617031022e-32 1.0
  outer loop
    vertex -9.249999999999915 23.70096189432335 5.500000000000007
    vertex -9.341161896583118 21.86074106456053 5.500000000000007
    vertex -8.499999999999922 21.75 5.500000000000007
  endloop
endfacet
facet normal 4.197193749318083e-32 -6.5239617031022e-32 1.0
  outer loop
    vertex -9.249999999999915 23.70096189432335 5.500000000000007
    vertex -8.499999999999922 21.75 5.500000000000007
    vertex -8.888228567653695 23.5511112605664 5.500000000000007
  endloop
endfacet
facet normal 4.197193749318083e-32 -6.5239617031022e-32 1.0
  outer loop
    vertex -8.888228567653695 23.5511112605664 5.500000000000007
    vertex -8.499999999999922 21.75 5.500000000000007
    vertex -8.499999999999922 23.500000000000007 5.500000000000007
  endloop
endfacet
facet normal 4.197193749318083e-32 -6.5239617031022e-32 1.0
  outer loop
    vertex -8.499999999999922 23.500000000000007 5.500000000000007
    vertex -8.499999999999922 21.75 5.500000000000007
    vertex -3.4999999999998983 21.75 5.500000000000007
  endloop
endfacet
facet normal 4.197193749318083e-32 -6.5239617031022e-32 1.0
  outer loop
    vertex -8.499999999999922 23.500000000000007 5.500000000000007
    vertex -3.4999999999998983 21.75 5.500000000000007
    vertex -8.111771432346144 23.5511112605664 5.500000000000007
  endloop
endfacet
facet normal 4.197193749318083e-32 -6.5239617031022e-32 1.0
  outer loop
    vertex -8.111771432346144 23.5511112605664 5.500000000000007
    vertex -3.4999999999998983 21.75 5.500000000000007
    vertex -7.749999999999924 23.70096189432335 5.500000000000007
  endloop
endfacet
facet normal 4.197193749318083e-32 -6.5239617031022e-32 1.0
  outer loop
    vertex -7.749999999999924 23.70096189432335 5.500000000000007
    vertex -3.4999999999998983 21.75 5.500000000000007
    vertex -7.439339828220098 23.939339828220188 5.500000000000007
  endloop
endfacet
facet normal 4.197193749318083e-32 -6.5239617031022e-32 1.0
  outer loop
    vertex -7.439339828220098 23.939339828220188 5.500000000000007
    vertex -3.4999999999998983 21.75 5.500000000000007
    vertex -7.2009618943232665 24.250000000000007 5.500000000000007
  endloop
endfacet
facet normal 4.197193749318083e-32 -6.5239617031022e-32 1.0
  outer loop
    vertex -7.2009618943232665 24.250000000000007 5.500000000000007
    vertex -3.4999999999998983 21.75 5.500000000000007
    vertex -7.051111260566314 24.611771432346227 5.500000000000007
  endloop
endfacet
facet normal 4.197193749318083e-32 -6.5239617031022e-32 1.0
  outer loop
    vertex -7.051111260566314 24.611771432346227 5.500000000000007
    vertex -3.4999999999998983 21.75 5.500000000000007
    vertex -6.999999999999919 25.000000000000004 5.500000000000007
  endloop
endfacet
facet normal 4.197193749318083e-32 -6.5239617031022e-32 1.0
  outer loop
    vertex -10.124999999999925 27.81458256229947 5.500000000000007
    vertex -9.948888739433524 25.388228567653783 5.500000000000007
    vertex -9.341161896583108 28.139258935439514 5.500000000000007
  endloop
endfacet
facet normal 4.197193749318083e-32 -6.5239617031022e-32 1.0
  outer loop
    vertex -9.948888739433524 25.388228567653783 5.500000000000007
    vertex -10.124999999999925 27.81458256229947 5.500000000000007
    vertex -9.99999999999992 25.000000000000004 5.500000000000007
  endloop
endfacet
facet normal 4.197193749318083e-32 -6.5239617031022e-32 1.0
  outer loop
    vertex -9.341161896583108 28.139258935439514 5.500000000000007
    vertex -9.948888739433524 25.388228567653783 5.500000000000007
    vertex -9.799038105676573 25.75000000000001 5.500000000000007
  endloop
endfacet
facet normal 4.197193749318083e-32 -6.5239617031022e-32 1.0
  outer loop
    vertex -9.341161896583108 28.139258935439514 5.500000000000007
    vertex -9.799038105676573 25.75000000000001 5.500000000000007
    vertex -9.560660171779746 26.06066017177984 5.500000000000007
  endloop
endfacet
facet normal 4.197193749318083e-32 -6.5239617031022e-32 1.0
  outer loop
    vertex -9.341161896583108 28.139258935439514 5.500000000000007
    vertex -9.560660171779746 26.06066017177984 5.500000000000007
    vertex -9.249999999999915 26.299038105676665 5.500000000000007
  endloop
endfacet
facet normal 4.197193749318083e-32 -6.5239617031022e-32 1.0
  outer loop
    vertex -9.341161896583108 28.139258935439514 5.500000000000007
    vertex -9.249999999999915 26.299038105676665 5.500000000000007
    vertex -8.499999999999922 28.250000000000043 5.500000000000007
  endloop
endfacet
facet normal 4.197193749318083e-32 -6.5239617031022e-32 1.0
  outer loop
    vertex -8.499999999999922 28.250000000000043 5.500000000000007
    vertex -9.249999999999915 26.299038105676665 5.500000000000007
    vertex -8.888228567653695 26.44888873943362 5.500000000000007
  endloop
endfacet
facet normal 4.197193749318083e-32 -6.5239617031022e-32 1.0
  outer loop
    vertex -8.499999999999922 28.250000000000043 5.500000000000007
    vertex -8.888228567653695 26.44888873943362 5.500000000000007
    vertex -8.499999999999922 26.500000000000004 5.500000000000007
  endloop
endfacet
facet normal 4.197193749318083e-32 -6.5239617031022e-32 1.0
  outer loop
    vertex -8.499999999999922 28.250000000000043 5.500000000000007
    vertex -8.499999999999922 26.500000000000004 5.500000000000007
    vertex -8.111771432346144 26.44888873943362 5.500000000000007
  endloop
endfacet
facet normal 4.197193749318083e-32 -6.5239617031022e-32 1.0
  outer loop
    vertex -8.499999999999922 28.250000000000043 5.500000000000007
    vertex -8.111771432346144 26.44888873943362 5.500000000000007
    vertex -3.4999999999998983 28.250000000000043 5.500000000000007
  endloop
endfacet
facet normal 4.197193749318083e-32 -6.5239617031022e-32 1.0
  outer loop
    vertex -3.4999999999998983 28.250000000000043 5.500000000000007
    vertex -8.111771432346144 26.44888873943362 5.500000000000007
    vertex -7.749999999999924 26.299038105676665 5.500000000000007
  endloop
endfacet
facet normal 4.197193749318083e-32 -6.5239617031022e-32 1.0
  outer loop
    vertex -3.4999999999998983 28.250000000000043 5.500000000000007
    vertex -7.749999999999924 26.299038105676665 5.500000000000007
    vertex -7.439339828220098 26.06066017177984 5.500000000000007
  endloop
endfacet
facet normal 4.197193749318083e-32 -6.5239617031022e-32 1.0
  outer loop
    vertex -3.4999999999998983 28.250000000000043 5.500000000000007
    vertex -7.439339828220098 26.06066017177984 5.500000000000007
    vertex -7.2009618943232665 25.75000000000001 5.500000000000007
  endloop
endfacet
facet normal 4.197193749318083e-32 -6.5239617031022e-32 1.0
  outer loop
    vertex -3.4999999999998983 28.250000000000043 5.500000000000007
    vertex -7.2009618943232665 25.75000000000001 5.500000000000007
    vertex -7.051111260566314 25.388228567653783 5.500000000000007
  endloop
endfacet
facet normal 4.197193749318083e-32 -6.5239617031022e-32 1.0
  outer loop
    vertex -3.4999999999998983 28.250000000000043 5.500000000000007
    vertex -7.051111260566314 25.388228567653783 5.500000000000007
    vertex -6.999999999999919 25.000000000000004 5.500000000000007
  endloop
endfacet
facet normal 4.197193749318083e-32 -6.5239617031022e-32 1.0
  outer loop
    vertex -3.4999999999998983 28.250000000000043 5.500000000000007
    vertex -6.999999999999919 25.000000000000004 5.500000000000007
    vertex -3.4999999999998983 21.75 5.500000000000007
  endloop
endfacet
facet normal 4.197193749318083e-32 -6.5239617031022e-32 1.0
  outer loop
    vertex -3.4999999999998983 28.250000000000043 5.500000000000007
    vertex -3.4999999999998983 21.75 5.500000000000007
    vertex -3.499999999999898 25.000000000000004 5.500000000000007
  endloop
endfacet
facet normal 4.197193749318083e-32 -6.5239617031022e-32 1.0
  outer loop
    vertex -3.4999999999998983 28.250000000000043 5.500000000000007
    vertex -3.499999999999898 25.000000000000004 5.500000000000007
    vertex -3.4999999999998948 31.5 5.500000000000007
  endloop
endfacet
facet normal 4.197193749318083e-32 -6.5239617031022e-32 1.0
  outer loop
    vertex -3.4999999999998948 31.5 5.500000000000007
    vertex -3.499999999999898 25.000000000000004 5.500000000000007
    vertex 7.578558299544865 25.000000000000004 5.500000000000007
  endloop
endfacet
facet normal 4.197193749318083e-32 -6.5239617031022e-32 1.0
  outer loop
    vertex -3.4999999999998948 31.5 5.500000000000007
    vertex 7.578558299544865 25.000000000000004 5.500000000000007
    vertex -3.4999999999998948 34.5 5.500000000000007
  endloop
endfacet
facet normal 4.197193749318083e-32 -6.5239617031022e-32 1.0
  outer loop
    vertex -3.4999999999998948 34.5 5.500000000000007
    vertex 7.578558299544865 36.0 5.500000000000007
    vertex -3.4999999999998983 36.0 5.500000000000007
  endloop
endfacet
facet normal 4.197193749318083e-32 -6.5239617031022e-32 1.0
  outer loop
    vertex 7.578558299544865 36.0 5.500000000000007
    vertex -3.4999999999998948 34.5 5.500000000000007
    vertex 7.578558299544865 25.000000000000004 5.500000000000007
  endloop
endfacet
facet normal -0.0 -0.0 1.0
  outer loop
    vertex -3.4999999999998983 31.5 8.699999999999989
    vertex -5.499999999999898 34.5 8.699999999999989
    vertex -5.499999999999898 31.5 8.699999999999989
  endloop
endfacet
facet normal -0.0 -0.0 1.0
  outer loop
    vertex -5.499999999999898 34.5 8.699999999999989
    vertex -3.4999999999998983 31.5 8.699999999999989
    vertex -3.4999999999998983 34.5 8.699999999999989
  endloop
endfacet
facet normal -0.0 -0.0 1.0
  outer loop
    vertex -3.4999999999998983 34.5 8.699999999999989
    vertex -3.4999999999998983 31.5 8.699999999999989
    vertex 7.578558299544865 31.5 8.699999999999989
  endloop
endfacet
facet normal -0.0 -0.0 1.0
  outer loop
    vertex -3.4999999999998983 34.5 8.699999999999989
    vertex 7.578558299544865 31.5 8.699999999999989
    vertex -3.4999999999998983 37.0 8.699999999999989
  endloop
endfacet
facet normal -0.0 -0.0 1.0
  outer loop
    vertex -3.4999999999998983 37.0 8.699999999999989
    vertex 7.578558299544865 31.5 8.699999999999989
    vertex 7.578558299544865 37.0 8.699999999999989
  endloop
endfacet
facet normal 0.0 -1.0 0.0
  outer loop
    vertex 7.578558299544865 31.5 8.699999999999989
    vertex -3.4999999999998983 31.5 7.699999999999989
    vertex 7.578558299544865 31.5 7.699999999999989
  endloop
endfacet
facet normal 0.0 -1.0 0.0
  outer loop
    vertex -3.4999999999998983 31.5 7.699999999999989
    vertex 7.578558299544865 31.5 8.699999999999989
    vertex -3.4999999999998983 31.5 8.699999999999989
  endloop
endfacet
facet normal 0.0 0.0 -1.0
  outer loop
    vertex 7.578558299544865 36.0 7.699999999999989
    vertex -3.4999999999998983 34.5 7.699999999999989
    vertex -3.4999999999998983 36.0 7.699999999999989
  endloop
endfacet
facet normal 0.0 0.0 -1.0
  outer loop
    vertex -3.4999999999998983 34.5 7.699999999999989
    vertex 7.578558299544865 36.0 7.699999999999989
    vertex -3.4999999999998983 31.5 7.699999999999989
  endloop
endfacet
facet normal 0.0 0.0 -1.0
  outer loop
    vertex -3.4999999999998983 31.5 7.699999999999989
    vertex 7.578558299544865 36.0 7.699999999999989
    vertex 7.578558299544865 31.5 7.699999999999989
  endloop
endfacet
facet normal 9.268107558612912e-33 -2.73783153645427e-16 1.0
  outer loop
    vertex 7.578558299544865 -6.999999999999993 8.69999999999999
    vertex -1.9999999999998987 -1.4999999999999922 8.69999999999999
    vertex -1.9999999999998987 -6.999999999999993 8.69999999999999
  endloop
endfacet
facet normal 9.268107558612912e-33 -2.73783153645427e-16 1.0
  outer loop
    vertex -1.9999999999998987 -1.4999999999999922 8.69999999999999
    vertex 7.578558299544865 -6.999999999999993 8.69999999999999
    vertex 7.578558299544865 -1.4999999999999922 8.69999999999999
  endloop
endfacet
facet normal 0.0 1.0 1.7624790515924364e-16
  outer loop
    vertex -1.9999999999998987 -1.4999999999999922 8.69999999999999
    vertex 7.578558299544865 -1.4999999999999922 7.699999999999991
    vertex -1.9999999999998987 -1.4999999999999922 7.699999999999991
  endloop
endfacet
facet normal 0.0 1.0 1.7624790515924364e-16
  outer loop
    vertex 7.578558299544865 -1.4999999999999922 7.699999999999991
    vertex -1.9999999999998987 -1.4999999999999922 8.69999999999999
    vertex 7.578558299544865 -1.4999999999999922 8.69999999999999
  endloop
endfacet
facet normal 0.0 1.7624790515924364e-16 -1.0
  outer loop
    vertex 7.578558299544865 -1.4999999999999922 7.699999999999991
    vertex -1.9999999999998987 -5.999999999999993 7.69999999999999
    vertex -1.9999999999998987 -1.4999999999999922 7.699999999999991
  endloop
endfacet
facet normal 0.0 1.7624790515924364e-16 -1.0
  outer loop
    vertex -1.9999999999998987 -5.999999999999993 7.69999999999999
    vertex 7.578558299544865 -1.4999999999999922 7.699999999999991
    vertex 7.578558299544865 -5.999999999999993 7.69999999999999
  endloop
endfacet
facet normal -0.0 1.0 -0.0
  outer loop
    vertex -5.499999999999898 34.5 4.500000000000007
    vertex -4.499999999999899 34.5 5.500000000000007
    vertex -3.4999999999998948 34.5 4.500000000000007
  endloop
endfacet
facet normal -0.0 1.0 -0.0
  outer loop
    vertex -4.499999999999899 34.5 5.500000000000007
    vertex -5.499999999999898 34.5 4.500000000000007
    vertex -5.499999999999898 34.5 8.699999999999989
  endloop
endfacet
facet normal -0.0 1.0 -0.0
  outer loop
    vertex -4.499999999999899 34.5 5.500000000000007
    vertex -5.499999999999898 34.5 8.699999999999989
    vertex -4.499999999999899 34.5 7.699999999999989
  endloop
endfacet
facet normal -0.0 1.0 -0.0
  outer loop
    vertex -4.499999999999899 34.5 7.699999999999989
    vertex -5.499999999999898 34.5 8.699999999999989
    vertex -3.4999999999998983 34.5 7.699999999999989
  endloop
endfacet
facet normal -0.0 1.0 -0.0
  outer loop
    vertex -3.4999999999998983 34.5 7.699999999999989
    vertex -5.499999999999898 34.5 8.699999999999989
    vertex -3.4999999999998983 34.5 8.699999999999989
  endloop
endfacet
facet normal -0.0 1.0 -0.0
  outer loop
    vertex -3.4999999999998948 34.5 5.500000000000007
    vertex -3.4999999999998948 34.5 4.500000000000007
    vertex -4.499999999999899 34.5 5.500000000000007
  endloop
endfacet
facet normal -0.0 -0.0 -1.0
  outer loop
    vertex -3.4999999999998983 34.5 7.699999999999989
    vertex -4.499999999999899 31.5 7.699999999999989
    vertex -4.499999999999899 34.5 7.699999999999989
  endloop
endfacet
facet normal -0.0 -0.0 -1.0
  outer loop
    vertex -4.499999999999899 31.5 7.699999999999989
    vertex -3.4999999999998983 34.5 7.699999999999989
    vertex -3.4999999999998983 31.5 7.699999999999989
  endloop
endfacet
facet normal 0.0 -1.0 0.0
  outer loop
    vertex -3.4999999999998983 31.5 8.699999999999989
    vertex -4.499999999999899 31.5 7.699999999999989
    vertex -3.4999999999998983 31.5 7.699999999999989
  endloop
endfacet
facet normal 0.0 -1.0 0.0
  outer loop
    vertex -3.4999999999998948 31.5 5.500000000000007
    vertex -5.499999999999898 31.5 4.500000000000007
    vertex -3.4999999999998948 31.5 4.500000000000007
  endloop
endfacet
facet normal 0.0 -1.0 0.0
  outer loop
    vertex -5.499999999999898 31.5 4.500000000000007
    vertex -3.4999999999998948 31.5 5.500000000000007
    vertex -4.499999999999899 31.5 5.500000000000007
  endloop
endfacet
facet normal 0.0 -1.0 0.0
  outer loop
    vertex -5.499999999999898 31.5 4.500000000000007
    vertex -4.499999999999899 31.5 5.500000000000007
    vertex -5.499999999999898 31.5 8.699999999999989
  endloop
endfacet
facet normal 0.0 -1.0 0.0
  outer loop
    vertex -5.499999999999898 31.5 8.699999999999989
    vertex -4.499999999999899 31.5 5.500000000000007
    vertex -4.499999999999899 31.5 7.699999999999989
  endloop
endfacet
facet normal 0.0 -1.0 0.0
  outer loop
    vertex -5.499999999999898 31.5 8.699999999999989
    vertex -4.499999999999899 31.5 7.699999999999989
    vertex -3.4999999999998983 31.5 8.699999999999989
  endloop
endfacet
facet normal -1.0 0.0 0.0
  outer loop
    vertex -5.499999999999898 34.5 8.699999999999989
    vertex -5.499999999999898 31.5 4.500000000000007
    vertex -5.499999999999898 31.5 8.699999999999989
  endloop
endfacet
facet normal -1.0 0.0 0.0
  outer loop
    vertex -5.499999999999898 31.5 4.500000000000007
    vertex -5.499999999999898 34.5 8.699999999999989
    vertex -5.499999999999898 34.5 4.500000000000007
  endloop
endfacet
facet normal 1.0 0.0 -0.0
  outer loop
    vertex -4.499999999999899 34.5 5.500000000000007
    vertex -4.499999999999899 31.5 7.699999999999989
    vertex -4.499999999999899 31.5 5.500000000000007
  endloop
endfacet
facet normal 1.0 0.0 -0.0
  outer loop
    vertex -4.499999999999899 31.5 7.699999999999989
    vertex -4.499999999999899 34.5 5.500000000000007
    vertex -4.499999999999899 34.5 7.699999999999989
  endloop
endfacet
facet normal 0.0 0.0 -1.0
  outer loop
    vertex -3.4999999999998948 34.5 4.500000000000007
    vertex -5.499999999999898 31.5 4.500000000000007
    vertex -5.499999999999898 34.5 4.500000000000007
  endloop
endfacet
facet normal 0.0 0.0 -1.0
  outer loop
    vertex -5.499999999999898 31.5 4.500000000000007
    vertex -3.4999999999998948 34.5 4.500000000000007
    vertex -3.4999999999998948 31.5 4.500000000000007
  endloop
endfacet
facet normal -0.0 -0.0 1.0
  outer loop
    vertex -3.4999999999998948 31.5 5.500000000000007
    vertex -4.499999999999899 34.5 5.500000000000007
    vertex -4.499999999999899 31.5 5.500000000000007
  endloop
endfacet
facet normal -0.0 -0.0 1.0
  outer loop
    vertex -4.499999999999899 34.5 5.500000000000007
    vertex -3.4999999999998948 31.5 5.500000000000007
    vertex -3.4999999999998948 34.5 5.500000000000007
  endloop
endfacet
facet normal -1.0 3.2713585336354156e-17 -1.4209302981247522e-16
  outer loop
    vertex -3.4999999999998983 37.0 8.699999999999989
    vertex -3.4999999999998983 34.5 7.699999999999989
    vertex -3.4999999999998983 34.5 8.699999999999989
  endloop
endfacet
facet normal -1.0 3.2713585336354156e-17 -1.4209302981247522e-16
  outer loop
    vertex -3.4999999999998983 34.5 7.699999999999989
    vertex -3.4999999999998983 37.0 8.699999999999989
    vertex -3.4999999999998983 36.0 7.699999999999989
  endloop
endfacet
facet normal -1.0 3.2713585336354156e-17 -1.4209302981247522e-16
  outer loop
    vertex -3.4999999999998983 36.0 7.699999999999989
    vertex -3.4999999999998983 37.0 8.699999999999989
    vertex -3.4999999999998983 36.0 5.500000000000007
  endloop
endfacet
facet normal -1.0 3.2713585336354156e-17 -1.4209302981247522e-16
  outer loop
    vertex -3.4999999999998983 36.0 5.500000000000007
    vertex -3.4999999999998948 34.5 4.500000000000007
    vertex -3.4999999999998948 34.5 5.500000000000007
  endloop
endfacet
facet normal -1.0 3.2713585336354156e-17 -1.4209302981247522e-16
  outer loop
    vertex -3.4999999999998948 34.5 4.500000000000007
    vertex -3.4999999999998983 36.0 5.500000000000007
    vertex -3.4999999999998983 35.0 3.0
  endloop
endfacet
facet normal -1.0 3.2713585336354156e-17 -1.4209302981247522e-16
  outer loop
    vertex -3.4999999999998983 35.0 3.0
    vertex -3.4999999999998983 36.0 5.500000000000007
    vertex -3.4999999999998983 37.0 4.0
  endloop
endfacet
facet normal -1.0 3.2713585336354156e-17 -1.4209302981247522e-16
  outer loop
    vertex -3.4999999999998983 37.0 4.0
    vertex -3.4999999999998983 36.0 5.500000000000007
    vertex -3.4999999999998983 37.0 8.699999999999989
  endloop
endfacet
facet normal -1.0 3.2713585336354156e-17 -1.4209302981247522e-16
  outer loop
    vertex -3.4999999999998948 31.5 5.500000000000007
    vertex -3.4999999999998983 28.250000000000043 -1.9999999999999973
    vertex -3.4999999999998983 28.250000000000043 5.500000000000007
  endloop
endfacet
facet normal -1.0 3.2713585336354156e-17 -1.4209302981247522e-16
  outer loop
    vertex -3.4999999999998983 28.250000000000043 -1.9999999999999973
    vertex -3.4999999999998948 31.5 5.500000000000007
    vertex -3.4999999999998948 31.5 4.500000000000007
  endloop
endfacet
facet normal -1.0 3.2713585336354156e-17 -1.4209302981247522e-16
  outer loop
    vertex -3.4999999999998983 28.250000000000043 -1.9999999999999973
    vertex -3.4999999999998948 31.5 4.500000000000007
    vertex -3.4999999999998948 35.0 -1.9999999999999998
  endloop
endfacet
facet normal -1.0 3.2713585336354156e-17 -1.4209302981247522e-16
  outer loop
    vertex -3.4999999999998948 35.0 -1.9999999999999998
    vertex -3.4999999999998948 31.5 4.500000000000007
    vertex -3.4999999999998948 34.5 4.500000000000007
  endloop
endfacet
facet normal -1.0 3.2713585336354156e-17 -1.4209302981247522e-16
  outer loop
    vertex -3.4999999999998948 35.0 -1.9999999999999998
    vertex -3.4999999999998948 34.5 4.500000000000007
    vertex -3.4999999999998983 35.0 3.0
  endloop
endfacet
endsolid spacer_pi
