solid boost_case
facet normal 0.0 0.0 -1.0
  outer loop
    vertex 2.0240020209373433 108.18779655512326 0.0
    vertex 1.8633940342151565 104.95421819133374 0.0
    vertex 1.613394034215158 107.98530710457928 0.0
  endloop
endfacet
facet normal 0.0 0.0 -1.0
  outer loop
    vertex 1.8633940342151565 104.95421819133374 0.0
    vertex 2.0240020209373433 108.18779655512326 0.0
    vertex 1.9145052947815513 105.34244675898752 0.0
  endloop
endfacet
facet normal 0.0 0.0 -1.0
  outer loop
    vertex 1.9145052947815513 105.34244675898752 0.0
    vertex 2.0240020209373433 108.18779655512326 0.0
    vertex 2.0643559285384807 105.70421819133372 0.0
  endloop
endfacet
facet normal 0.0 0.0 -1.0
  outer loop
    vertex 2.0643559285384807 105.70421819133372 0.0
    vertex 2.0240020209373433 108.18779655512326 0.0
    vertex 2.457527376356335 108.33495858334547 0.0
  endloop
endfacet
facet normal 0.0 0.0 -1.0
  outer loop
    vertex 2.0643559285384807 105.70421819133372 0.0
    vertex 2.457527376356335 108.33495858334547 0.0
    vertex 2.3027338624353297 106.01487836311357 0.0
  endloop
endfacet
facet normal 0.0 0.0 -1.0
  outer loop
    vertex 2.3027338624353297 106.01487836311357 0.0
    vertex 2.457527376356335 108.33495858334547 0.0
    vertex 2.6133940342151436 106.2532562970104 0.0
  endloop
endfacet
facet normal 0.0 0.0 -1.0
  outer loop
    vertex 2.6133940342151436 106.2532562970104 0.0
    vertex 2.457527376356335 108.33495858334547 0.0
    vertex 2.9065523614449758 108.42427520614207 0.0
  endloop
endfacet
facet normal 0.0 0.0 -1.0
  outer loop
    vertex 2.6133940342151436 106.2532562970104 0.0
    vertex 2.9065523614449758 108.42427520614207 0.0
    vertex 2.9751654665613754 106.40310693076736 0.0
  endloop
endfacet
facet normal 0.0 0.0 -1.0
  outer loop
    vertex 2.9751654665613754 106.40310693076736 0.0
    vertex 2.9065523614449758 108.42427520614207 0.0
    vertex 4.863394034215151 108.45421819133374 0.0
  endloop
endfacet
facet normal 0.0 0.0 -1.0
  outer loop
    vertex 2.9751654665613754 106.40310693076736 0.0
    vertex 4.863394034215151 108.45421819133374 0.0
    vertex 3.363394034215154 106.45421819133374 0.0
  endloop
endfacet
facet normal 0.0 0.0 -1.0
  outer loop
    vertex 3.363394034215154 106.45421819133374 0.0
    vertex 4.863394034215151 108.45421819133374 0.0
    vertex 3.7516226018689323 106.40310693076736 0.0
  endloop
endfacet
facet normal 0.0 0.0 -1.0
  outer loop
    vertex 3.7516226018689323 106.40310693076736 0.0
    vertex 4.863394034215151 108.45421819133374 0.0
    vertex 4.113394034215141 106.2532562970104 0.0
  endloop
endfacet
facet normal 0.0 0.0 -1.0
  outer loop
    vertex 4.113394034215141 106.2532562970104 0.0
    vertex 4.863394034215151 108.45421819133374 0.0
    vertex 4.4240542059949775 106.01487836311357 0.0
  endloop
endfacet
facet normal 0.0 0.0 -1.0
  outer loop
    vertex 4.4240542059949775 106.01487836311357 0.0
    vertex 4.863394034215151 108.45421819133374 0.0
    vertex 4.662432139891804 105.70421819133372 0.0
  endloop
endfacet
facet normal 0.0 0.0 -1.0
  outer loop
    vertex 4.662432139891804 105.70421819133372 0.0
    vertex 4.863394034215151 108.45421819133374 0.0
    vertex 4.812282773648756 105.34244675898752 0.0
  endloop
endfacet
facet normal 0.0 0.0 -1.0
  outer loop
    vertex 4.812282773648756 105.34244675898752 0.0
    vertex 4.863394034215151 108.45421819133374 0.0
    vertex 4.863394034215151 104.95421819133374 0.0
  endloop
endfacet
facet normal 0.0 0.0 -1.0
  outer loop
    vertex 4.863394034215151 104.95421819133374 0.0
    vertex 4.863394034215151 108.45421819133374 0.0
    vertex 43.86339403421513 103.45421819133372 0.0
  endloop
endfacet
facet normal 0.0 0.0 -1.0
  outer loop
    vertex 4.863394034215151 104.95421819133374 0.0
    vertex 43.86339403421513 103.45421819133372 0.0
    vertex 26.363394034215116 101.45421819133372 0.0
  endloop
endfacet
facet normal 0.0 0.0 -1.0
  outer loop
    vertex 4.863394034215151 104.95421819133374 0.0
    vertex 26.363394034215116 101.45421819133372 0.0
    vertex 25.97516546656134 101.40310693076734 0.0
  endloop
endfacet
facet normal 0.0 0.0 -1.0
  outer loop
    vertex 4.863394034215151 104.95421819133374 0.0
    vertex 25.97516546656134 101.40310693076734 0.0
    vertex 25.61339403421513 101.25325629701035 0.0
  endloop
endfacet
facet normal 0.0 0.0 -1.0
  outer loop
    vertex 4.863394034215151 104.95421819133374 0.0
    vertex 25.61339403421513 101.25325629701035 0.0
    vertex 25.302733862435293 101.01487836311352 0.0
  endloop
endfacet
facet normal 0.0 0.0 -1.0
  outer loop
    vertex 4.863394034215151 104.95421819133374 0.0
    vertex 25.302733862435293 101.01487836311352 0.0
    vertex 25.06435592853847 100.70421819133371 0.0
  endloop
endfacet
facet normal 0.0 0.0 -1.0
  outer loop
    vertex 4.863394034215151 104.95421819133374 0.0
    vertex 25.06435592853847 100.70421819133371 0.0
    vertex 19.86339403421512 90.95421819133371 0.0
  endloop
endfacet
facet normal 0.0 0.0 -1.0
  outer loop
    vertex 19.86339403421512 90.95421819133371 0.0
    vertex 25.06435592853847 100.70421819133371 0.0
    vertex 24.914505294781513 100.34244675898748 0.0
  endloop
endfacet
facet normal 0.0 0.0 -1.0
  outer loop
    vertex 19.86339403421512 90.95421819133371 0.0
    vertex 24.914505294781513 100.34244675898748 0.0
    vertex 19.86339403421512 78.45421819133371 0.0
  endloop
endfacet
facet normal 0.0 0.0 -1.0
  outer loop
    vertex 19.86339403421512 78.45421819133371 0.0
    vertex 24.914505294781513 100.34244675898748 0.0
    vertex 24.86339403421512 99.95421819133371 0.0
  endloop
endfacet
facet normal 0.0 0.0 -1.0
  outer loop
    vertex 26.363394034215116 101.45421819133372 0.0
    vertex 43.86339403421513 103.45421819133372 0.0
    vertex 26.751622601868895 101.40310693076734 0.0
  endloop
endfacet
facet normal 0.0 0.0 -1.0
  outer loop
    vertex 26.751622601868895 101.40310693076734 0.0
    vertex 43.86339403421513 103.45421819133372 0.0
    vertex 27.113394034215126 101.25325629701035 0.0
  endloop
endfacet
facet normal 0.0 0.0 -1.0
  outer loop
    vertex 27.113394034215126 101.25325629701035 0.0
    vertex 43.86339403421513 103.45421819133372 0.0
    vertex 27.424054205994942 101.01487836311352 0.0
  endloop
endfacet
facet normal 0.0 0.0 -1.0
  outer loop
    vertex 27.424054205994942 101.01487836311352 0.0
    vertex 43.86339403421513 103.45421819133372 0.0
    vertex 27.470600392897037 100.95421819133372 0.0
  endloop
endfacet
facet normal 0.0 0.0 -1.0
  outer loop
    vertex 27.470600392897037 100.95421819133372 0.0
    vertex 43.86339403421513 103.45421819133372 0.0
    vertex 27.662432139891767 100.70421819133371 0.0
  endloop
endfacet
facet normal 0.0 0.0 -1.0
  outer loop
    vertex 27.662432139891767 100.70421819133371 0.0
    vertex 43.86339403421513 103.45421819133372 0.0
    vertex 27.812282773648718 100.34244675898748 0.0
  endloop
endfacet
facet normal 0.0 0.0 -1.0
  outer loop
    vertex 27.812282773648718 100.34244675898748 0.0
    vertex 43.86339403421513 103.45421819133372 0.0
    vertex 27.863394034215116 99.95421819133371 0.0
  endloop
endfacet
facet normal 0.0 0.0 -1.0
  outer loop
    vertex 43.86339403421513 103.45421819133372 0.0
    vertex 59.91450529478144 82.34244675898749 0.0
    vertex 59.86339403421507 81.95421819133371 0.0
  endloop
endfacet
facet normal 0.0 0.0 -1.0
  outer loop
    vertex 59.91450529478144 82.34244675898749 0.0
    vertex 43.86339403421513 103.45421819133372 0.0
    vertex 67.86339403421506 103.45421819133372 0.0
  endloop
endfacet
facet normal 0.0 0.0 -1.0
  outer loop
    vertex 59.91450529478144 82.34244675898749 0.0
    vertex 67.86339403421506 103.45421819133372 0.0
    vertex 60.064355928538376 82.70421819133371 0.0
  endloop
endfacet
facet normal 0.0 0.0 -1.0
  outer loop
    vertex 60.064355928538376 82.70421819133371 0.0
    vertex 67.86339403421506 103.45421819133372 0.0
    vertex 60.30273386243525 83.01487836311354 0.0
  endloop
endfacet
facet normal 0.0 0.0 -1.0
  outer loop
    vertex 60.30273386243525 83.01487836311354 0.0
    vertex 67.86339403421506 103.45421819133372 0.0
    vertex 60.61339403421504 83.25325629701037 0.0
  endloop
endfacet
facet normal 0.0 0.0 -1.0
  outer loop
    vertex 60.61339403421504 83.25325629701037 0.0
    vertex 67.86339403421506 103.45421819133372 0.0
    vertex 60.97516546656129 83.40310693076732 0.0
  endloop
endfacet
facet normal 0.0 0.0 -1.0
  outer loop
    vertex 60.97516546656129 83.40310693076732 0.0
    vertex 67.86339403421506 103.45421819133372 0.0
    vertex 61.36339403421509 83.45421819133371 0.0
  endloop
endfacet
facet normal 0.0 0.0 -1.0
  outer loop
    vertex 61.36339403421509 83.45421819133371 0.0
    vertex 67.86339403421506 103.45421819133372 0.0
    vertex 61.751622601868846 83.40310693076732 0.0
  endloop
endfacet
facet normal 0.0 0.0 -1.0
  outer loop
    vertex 61.751622601868846 83.40310693076732 0.0
    vertex 67.86339403421506 103.45421819133372 0.0
    vertex 62.113394034215055 83.25325629701037 0.0
  endloop
endfacet
facet normal 0.0 0.0 -1.0
  outer loop
    vertex 62.113394034215055 83.25325629701037 0.0
    vertex 67.86339403421506 103.45421819133372 0.0
    vertex 62.42405420599489 83.01487836311354 0.0
  endloop
endfacet
facet normal 0.0 0.0 -1.0
  outer loop
    vertex 62.42405420599489 83.01487836311354 0.0
    vertex 67.86339403421506 103.45421819133372 0.0
    vertex 62.66243213989172 82.70421819133371 0.0
  endloop
endfacet
facet normal 0.0 0.0 -1.0
  outer loop
    vertex 62.66243213989172 82.70421819133371 0.0
    vertex 67.86339403421506 103.45421819133372 0.0
    vertex 62.8122827736487 82.34244675898749 0.0
  endloop
endfacet
facet normal 0.0 0.0 -1.0
  outer loop
    vertex 62.8122827736487 82.34244675898749 0.0
    vertex 67.86339403421506 103.45421819133372 0.0
    vertex 62.86339403421507 81.95421819133371 0.0
  endloop
endfacet
facet normal 0.0 0.0 -1.0
  outer loop
    vertex 19.86339403421512 78.45421819133371 0.0
    vertex 60.97516546656129 80.50532945190011 0.0
    vertex 67.86339403421506 78.45421819133371 0.0
  endloop
endfacet
facet normal 0.0 0.0 -1.0
  outer loop
    vertex 60.97516546656129 80.50532945190011 0.0
    vertex 19.86339403421512 78.45421819133371 0.0
    vertex 60.61339403421504 80.65518008565707 0.0
  endloop
endfacet
facet normal 0.0 0.0 -1.0
  outer loop
    vertex 60.61339403421504 80.65518008565707 0.0
    vertex 19.86339403421512 78.45421819133371 0.0
    vertex 25.61339403421513 98.65518008565705 0.0
  endloop
endfacet
facet normal 0.0 0.0 -1.0
  outer loop
    vertex 25.61339403421513 98.65518008565705 0.0
    vertex 19.86339403421512 78.45421819133371 0.0
    vertex 25.302733862435293 98.89355801955388 0.0
  endloop
endfacet
facet normal 0.0 0.0 -1.0
  outer loop
    vertex 25.302733862435293 98.89355801955388 0.0
    vertex 19.86339403421512 78.45421819133371 0.0
    vertex 25.06435592853847 99.20421819133371 0.0
  endloop
endfacet
facet normal 0.0 0.0 -1.0
  outer loop
    vertex 25.06435592853847 99.20421819133371 0.0
    vertex 19.86339403421512 78.45421819133371 0.0
    vertex 24.914505294781513 99.56598962367993 0.0
  endloop
endfacet
facet normal 0.0 0.0 -1.0
  outer loop
    vertex 24.914505294781513 99.56598962367993 0.0
    vertex 19.86339403421512 78.45421819133371 0.0
    vertex 24.86339403421512 99.95421819133371 0.0
  endloop
endfacet
facet normal 0.0 0.0 -1.0
  outer loop
    vertex 60.61339403421504 80.65518008565707 0.0
    vertex 25.61339403421513 98.65518008565705 0.0
    vertex 25.97516546656134 98.5053294519001 0.0
  endloop
endfacet
facet normal 0.0 0.0 -1.0
  outer loop
    vertex 60.61339403421504 80.65518008565707 0.0
    vertex 25.97516546656134 98.5053294519001 0.0
    vertex 26.363394034215116 98.45421819133371 0.0
  endloop
endfacet
facet normal 0.0 0.0 -1.0
  outer loop
    vertex 60.61339403421504 80.65518008565707 0.0
    vertex 26.363394034215116 98.45421819133371 0.0
    vertex 26.751622601868895 98.5053294519001 0.0
  endloop
endfacet
facet normal 0.0 0.0 -1.0
  outer loop
    vertex 60.61339403421504 80.65518008565707 0.0
    vertex 26.751622601868895 98.5053294519001 0.0
    vertex 27.113394034215126 98.65518008565705 0.0
  endloop
endfacet
facet normal 0.0 0.0 -1.0
  outer loop
    vertex 60.61339403421504 80.65518008565707 0.0
    vertex 27.113394034215126 98.65518008565705 0.0
    vertex 27.424054205994942 98.89355801955388 0.0
  endloop
endfacet
facet normal 0.0 0.0 -1.0
  outer loop
    vertex 60.61339403421504 80.65518008565707 0.0
    vertex 27.424054205994942 98.89355801955388 0.0
    vertex 27.66243213989179 99.20421819133371 0.0
  endloop
endfacet
facet normal 0.0 0.0 -1.0
  outer loop
    vertex 60.61339403421504 80.65518008565707 0.0
    vertex 27.66243213989179 99.20421819133371 0.0
    vertex 27.812282773648718 99.56598962367993 0.0
  endloop
endfacet
facet normal 0.0 0.0 -1.0
  outer loop
    vertex 60.61339403421504 80.65518008565707 0.0
    vertex 27.812282773648718 99.56598962367993 0.0
    vertex 27.863394034215116 99.95421819133371 0.0
  endloop
endfacet
facet normal 0.0 0.0 -1.0
  outer loop
    vertex 60.61339403421504 80.65518008565707 0.0
    vertex 27.863394034215116 99.95421819133371 0.0
    vertex 60.30273386243525 80.8935580195539 0.0
  endloop
endfacet
facet normal 0.0 0.0 -1.0
  outer loop
    vertex 60.30273386243525 80.8935580195539 0.0
    vertex 27.863394034215116 99.95421819133371 0.0
    vertex 60.25618767553313 80.95421819133371 0.0
  endloop
endfacet
facet normal 0.0 0.0 -1.0
  outer loop
    vertex 60.25618767553313 80.95421819133371 0.0
    vertex 27.863394034215116 99.95421819133371 0.0
    vertex 60.06435592853842 81.20421819133372 0.0
  endloop
endfacet
facet normal 0.0 0.0 -1.0
  outer loop
    vertex 60.06435592853842 81.20421819133372 0.0
    vertex 27.863394034215116 99.95421819133371 0.0
    vertex 43.86339403421513 103.45421819133372 0.0
  endloop
endfacet
facet normal 0.0 0.0 -1.0
  outer loop
    vertex 60.06435592853842 81.20421819133372 0.0
    vertex 43.86339403421513 103.45421819133372 0.0
    vertex 59.91450529478144 81.56598962367994 0.0
  endloop
endfacet
facet normal 0.0 0.0 -1.0
  outer loop
    vertex 59.91450529478144 81.56598962367994 0.0
    vertex 43.86339403421513 103.45421819133372 0.0
    vertex 59.86339403421507 81.95421819133371 0.0
  endloop
endfacet
facet normal 0.0 0.0 -1.0
  outer loop
    vertex 67.86339403421506 78.45421819133371 0.0
    vertex 60.97516546656129 80.50532945190011 0.0
    vertex 61.36339403421509 80.45421819133372 0.0
  endloop
endfacet
facet normal 0.0 0.0 -1.0
  outer loop
    vertex 67.86339403421506 78.45421819133371 0.0
    vertex 61.36339403421509 80.45421819133372 0.0
    vertex 61.751622601868846 80.50532945190011 0.0
  endloop
endfacet
facet normal 0.0 0.0 -1.0
  outer loop
    vertex 67.86339403421506 78.45421819133371 0.0
    vertex 61.751622601868846 80.50532945190011 0.0
    vertex 62.113394034215055 80.65518008565707 0.0
  endloop
endfacet
facet normal 0.0 0.0 -1.0
  outer loop
    vertex 67.86339403421506 78.45421819133371 0.0
    vertex 62.113394034215055 80.65518008565707 0.0
    vertex 62.42405420599489 80.8935580195539 0.0
  endloop
endfacet
facet normal 0.0 0.0 -1.0
  outer loop
    vertex 67.86339403421506 78.45421819133371 0.0
    vertex 62.42405420599489 80.8935580195539 0.0
    vertex 62.66243213989172 81.20421819133372 0.0
  endloop
endfacet
facet normal 0.0 0.0 -1.0
  outer loop
    vertex 67.86339403421506 78.45421819133371 0.0
    vertex 62.66243213989172 81.20421819133372 0.0
    vertex 62.8122827736487 81.56598962367994 0.0
  endloop
endfacet
facet normal 0.0 0.0 -1.0
  outer loop
    vertex 67.86339403421506 78.45421819133371 0.0
    vertex 62.8122827736487 81.56598962367994 0.0
    vertex 62.86339403421507 81.95421819133371 0.0
  endloop
endfacet
facet normal 0.0 0.0 -1.0
  outer loop
    vertex 67.86339403421506 78.45421819133371 0.0
    vertex 62.86339403421507 81.95421819133371 0.0
    vertex 67.86339403421506 103.45421819133372 0.0
  endloop
endfacet
facet normal 0.0 0.0 -1.0
  outer loop
    vertex -0.10666298059317655 105.41105986410392 0.0
    vertex 19.86339403421512 90.95421819133371 0.0
    vertex -0.13660596578483988 103.45421819133372 0.0
  endloop
endfacet
facet normal 0.0 0.0 -1.0
  outer loop
    vertex 19.86339403421512 90.95421819133371 0.0
    vertex -0.10666298059317655 105.41105986410392 0.0
    vertex 2.6133940342151436 103.65518008565707 0.0
  endloop
endfacet
facet normal 0.0 0.0 -1.0
  outer loop
    vertex 2.6133940342151436 103.65518008565707 0.0
    vertex -0.10666298059317655 105.41105986410392 0.0
    vertex 2.3027338624353297 103.89355801955392 0.0
  endloop
endfacet
facet normal 0.0 0.0 -1.0
  outer loop
    vertex 2.3027338624353297 103.89355801955392 0.0
    vertex -0.10666298059317655 105.41105986410392 0.0
    vertex -0.01734635779657944 105.86008484919256 0.0
  endloop
endfacet
facet normal 0.0 0.0 -1.0
  outer loop
    vertex 2.3027338624353297 103.89355801955392 0.0
    vertex -0.01734635779657944 105.86008484919256 0.0
    vertex 0.12981567042565628 106.29361020461154 0.0
  endloop
endfacet
facet normal 0.0 0.0 -1.0
  outer loop
    vertex 2.3027338624353297 103.89355801955392 0.0
    vertex 0.12981567042565628 106.29361020461154 0.0
    vertex 2.0643559285384807 104.20421819133374 0.0
  endloop
endfacet
facet normal 0.0 0.0 -1.0
  outer loop
    vertex 2.0643559285384807 104.20421819133374 0.0
    vertex 0.12981567042565628 106.29361020461154 0.0
    vertex 0.332305120969624 106.70421819133375 0.0
  endloop
endfacet
facet normal 0.0 0.0 -1.0
  outer loop
    vertex 2.0643559285384807 104.20421819133374 0.0
    vertex 0.332305120969624 106.70421819133375 0.0
    vertex 0.5866573431958361 107.08488319286427 0.0
  endloop
endfacet
facet normal 0.0 0.0 -1.0
  outer loop
    vertex 2.0643559285384807 104.20421819133374 0.0
    vertex 0.5866573431958361 107.08488319286427 0.0
    vertex 1.9145052947815513 104.56598962367994 0.0
  endloop
endfacet
facet normal 0.0 0.0 -1.0
  outer loop
    vertex 1.9145052947815513 104.56598962367994 0.0
    vertex 0.5866573431958361 107.08488319286427 0.0
    vertex 0.8885203000622425 107.42909192548666 0.0
  endloop
endfacet
facet normal 0.0 0.0 -1.0
  outer loop
    vertex 1.9145052947815513 104.56598962367994 0.0
    vertex 0.8885203000622425 107.42909192548666 0.0
    vertex 1.2327290326846365 107.73095488235307 0.0
  endloop
endfacet
facet normal 0.0 0.0 -1.0
  outer loop
    vertex 1.9145052947815513 104.56598962367994 0.0
    vertex 1.2327290326846365 107.73095488235307 0.0
    vertex 1.8633940342151565 104.95421819133374 0.0
  endloop
endfacet
facet normal 0.0 0.0 -1.0
  outer loop
    vertex 1.8633940342151565 104.95421819133374 0.0
    vertex 1.2327290326846365 107.73095488235307 0.0
    vertex 1.613394034215158 107.98530710457928 0.0
  endloop
endfacet
facet normal 0.0 0.0 -1.0
  outer loop
    vertex 19.86339403421512 90.95421819133371 0.0
    vertex 2.6133940342151436 103.65518008565707 0.0
    vertex 2.9751654665613754 103.50532945190014 0.0
  endloop
endfacet
facet normal 0.0 0.0 -1.0
  outer loop
    vertex 19.86339403421512 90.95421819133371 0.0
    vertex 2.9751654665613754 103.50532945190014 0.0
    vertex 3.363394034215154 103.45421819133372 0.0
  endloop
endfacet
facet normal 0.0 0.0 -1.0
  outer loop
    vertex 19.86339403421512 90.95421819133371 0.0
    vertex 3.363394034215154 103.45421819133372 0.0
    vertex 3.7516226018689323 103.50532945190014 0.0
  endloop
endfacet
facet normal 0.0 0.0 -1.0
  outer loop
    vertex 19.86339403421512 90.95421819133371 0.0
    vertex 3.7516226018689323 103.50532945190014 0.0
    vertex 4.113394034215141 103.65518008565707 0.0
  endloop
endfacet
facet normal 0.0 0.0 -1.0
  outer loop
    vertex 19.86339403421512 90.95421819133371 0.0
    vertex 4.113394034215141 103.65518008565707 0.0
    vertex 4.4240542059949775 103.89355801955392 0.0
  endloop
endfacet
facet normal 0.0 0.0 -1.0
  outer loop
    vertex 19.86339403421512 90.95421819133371 0.0
    vertex 4.4240542059949775 103.89355801955392 0.0
    vertex 4.662432139891804 104.20421819133374 0.0
  endloop
endfacet
facet normal 0.0 0.0 -1.0
  outer loop
    vertex 19.86339403421512 90.95421819133371 0.0
    vertex 4.662432139891804 104.20421819133374 0.0
    vertex 4.812282773648756 104.56598962367994 0.0
  endloop
endfacet
facet normal 0.0 0.0 -1.0
  outer loop
    vertex 19.86339403421512 90.95421819133371 0.0
    vertex 4.812282773648756 104.56598962367994 0.0
    vertex 4.863394034215151 104.95421819133374 0.0
  endloop
endfacet
facet normal -0.0 -0.0 1.0
  outer loop
    vertex 19.86339403421512 90.95421819133371 1.9999999999999998
    vertex -0.10666298059317655 105.41105986410392 1.9999999999999998
    vertex -0.13660596578483988 103.45421819133372 1.9999999999999998
  endloop
endfacet
facet normal -0.0 -0.0 1.0
  outer loop
    vertex -0.10666298059317655 105.41105986410392 1.9999999999999998
    vertex 19.86339403421512 90.95421819133371 1.9999999999999998
    vertex 2.6133940342151436 103.65518008565707 1.9999999999999998
  endloop
endfacet
facet normal -0.0 -0.0 1.0
  outer loop
    vertex -0.10666298059317655 105.41105986410392 1.9999999999999998
    vertex 2.6133940342151436 103.65518008565707 1.9999999999999998
    vertex 2.3027338624353297 103.89355801955392 1.9999999999999998
  endloop
endfacet
facet normal -0.0 -0.0 1.0
  outer loop
    vertex -0.10666298059317655 105.41105986410392 1.9999999999999998
    vertex 2.3027338624353297 103.89355801955392 1.9999999999999998
    vertex -0.01734635779657944 105.86008484919256 1.9999999999999998
  endloop
endfacet
facet normal -0.0 -0.0 1.0
  outer loop
    vertex -0.01734635779657944 105.86008484919256 1.9999999999999998
    vertex 2.3027338624353297 103.89355801955392 1.9999999999999998
    vertex 0.12981567042565628 106.29361020461154 1.9999999999999998
  endloop
endfacet
facet normal -0.0 -0.0 1.0
  outer loop
    vertex 0.12981567042565628 106.29361020461154 1.9999999999999998
    vertex 2.3027338624353297 103.89355801955392 1.9999999999999998
    vertex 2.0643559285384807 104.20421819133374 1.9999999999999998
  endloop
endfacet
facet normal -0.0 -0.0 1.0
  outer loop
    vertex 0.12981567042565628 106.29361020461154 1.9999999999999998
    vertex 2.0643559285384807 104.20421819133374 1.9999999999999998
    vertex 0.332305120969624 106.70421819133375 1.9999999999999998
  endloop
endfacet
facet normal -0.0 -0.0 1.0
  outer loop
    vertex 0.332305120969624 106.70421819133375 1.9999999999999998
    vertex 2.0643559285384807 104.20421819133374 1.9999999999999998
    vertex 0.5866573431958361 107.08488319286427 1.9999999999999998
  endloop
endfacet
facet normal -0.0 -0.0 1.0
  outer loop
    vertex 0.5866573431958361 107.08488319286427 1.9999999999999998
    vertex 2.0643559285384807 104.20421819133374 1.9999999999999998
    vertex 1.9145052947815513 104.56598962367994 1.9999999999999998
  endloop
endfacet
facet normal -0.0 -0.0 1.0
  outer loop
    vertex 0.5866573431958361 107.08488319286427 1.9999999999999998
    vertex 1.9145052947815513 104.56598962367994 1.9999999999999998
    vertex 0.8885203000622425 107.42909192548666 1.9999999999999998
  endloop
endfacet
facet normal -0.0 -0.0 1.0
  outer loop
    vertex 0.8885203000622425 107.42909192548666 1.9999999999999998
    vertex 1.9145052947815513 104.56598962367994 1.9999999999999998
    vertex 1.2327290326846365 107.73095488235307 1.9999999999999998
  endloop
endfacet
facet normal -0.0 -0.0 1.0
  outer loop
    vertex 1.2327290326846365 107.73095488235307 1.9999999999999998
    vertex 1.9145052947815513 104.56598962367994 1.9999999999999998
    vertex 1.8633940342151565 104.95421819133374 1.9999999999999998
  endloop
endfacet
facet normal -0.0 -0.0 1.0
  outer loop
    vertex 1.2327290326846365 107.73095488235307 1.9999999999999998
    vertex 1.8633940342151565 104.95421819133374 1.9999999999999998
    vertex 1.613394034215158 107.98530710457928 1.9999999999999998
  endloop
endfacet
facet normal -0.0 -0.0 1.0
  outer loop
    vertex 2.6133940342151436 103.65518008565707 1.9999999999999998
    vertex 19.86339403421512 90.95421819133371 1.9999999999999998
    vertex 2.9751654665613754 103.50532945190014 1.9999999999999998
  endloop
endfacet
facet normal -0.0 -0.0 1.0
  outer loop
    vertex 2.9751654665613754 103.50532945190014 1.9999999999999998
    vertex 19.86339403421512 90.95421819133371 1.9999999999999998
    vertex 3.363394034215154 103.45421819133372 1.9999999999999998
  endloop
endfacet
facet normal -0.0 -0.0 1.0
  outer loop
    vertex 3.363394034215154 103.45421819133372 1.9999999999999998
    vertex 19.86339403421512 90.95421819133371 1.9999999999999998
    vertex 3.7516226018689323 103.50532945190014 1.9999999999999998
  endloop
endfacet
facet normal -0.0 -0.0 1.0
  outer loop
    vertex 3.7516226018689323 103.50532945190014 1.9999999999999998
    vertex 19.86339403421512 90.95421819133371 1.9999999999999998
    vertex 4.113394034215141 103.65518008565707 1.9999999999999998
  endloop
endfacet
facet normal -0.0 -0.0 1.0
  outer loop
    vertex 4.113394034215141 103.65518008565707 1.9999999999999998
    vertex 19.86339403421512 90.95421819133371 1.9999999999999998
    vertex 4.4240542059949775 103.89355801955392 1.9999999999999998
  endloop
endfacet
facet normal -0.0 -0.0 1.0
  outer loop
    vertex 4.4240542059949775 103.89355801955392 1.9999999999999998
    vertex 19.86339403421512 90.95421819133371 1.9999999999999998
    vertex 4.662432139891804 104.20421819133374 1.9999999999999998
  endloop
endfacet
facet normal -0.0 -0.0 1.0
  outer loop
    vertex 4.662432139891804 104.20421819133374 1.9999999999999998
    vertex 19.86339403421512 90.95421819133371 1.9999999999999998
    vertex 4.812282773648756 104.56598962367994 1.9999999999999998
  endloop
endfacet
facet normal -0.0 -0.0 1.0
  outer loop
    vertex 4.812282773648756 104.56598962367994 1.9999999999999998
    vertex 19.86339403421512 90.95421819133371 1.9999999999999998
    vertex 4.863394034215151 104.95421819133374 1.9999999999999998
  endloop
endfacet
facet normal -0.0 -0.0 1.0
  outer loop
    vertex 4.863394034215151 104.95421819133374 1.9999999999999998
    vertex 19.86339403421512 90.95421819133371 1.9999999999999998
    vertex 4.863394034215151 108.45421819133374 1.9999999999999998
  endloop
endfacet
facet normal -0.0 -0.0 1.0
  outer loop
    vertex 4.863394034215151 108.45421819133374 1.9999999999999998
    vertex 19.86339403421512 90.95421819133371 1.9999999999999998
    vertex 25.06435592853847 100.70421819133371 1.9999999999999998
  endloop
endfacet
facet normal -0.0 -0.0 1.0
  outer loop
    vertex 4.863394034215151 108.45421819133374 1.9999999999999998
    vertex 25.06435592853847 100.70421819133371 1.9999999999999998
    vertex 25.302733862435293 101.01487836311352 1.9999999999999998
  endloop
endfacet
facet normal -0.0 -0.0 1.0
  outer loop
    vertex 4.863394034215151 108.45421819133374 1.9999999999999998
    vertex 25.302733862435293 101.01487836311352 1.9999999999999998
    vertex 25.61339403421513 101.25325629701035 1.9999999999999998
  endloop
endfacet
facet normal -0.0 -0.0 1.0
  outer loop
    vertex 4.863394034215151 108.45421819133374 1.9999999999999998
    vertex 25.61339403421513 101.25325629701035 1.9999999999999998
    vertex 25.97516546656134 101.40310693076734 1.9999999999999998
  endloop
endfacet
facet normal -0.0 -0.0 1.0
  outer loop
    vertex 4.863394034215151 108.45421819133374 1.9999999999999998
    vertex 25.97516546656134 101.40310693076734 1.9999999999999998
    vertex 26.363394034215116 101.45421819133372 1.9999999999999998
  endloop
endfacet
facet normal -0.0 -0.0 1.0
  outer loop
    vertex 4.863394034215151 108.45421819133374 1.9999999999999998
    vertex 26.363394034215116 101.45421819133372 1.9999999999999998
    vertex 43.86339403421513 103.45421819133372 1.9999999999999998
  endloop
endfacet
facet normal -0.0 -0.0 1.0
  outer loop
    vertex 25.06435592853847 100.70421819133371 1.9999999999999998
    vertex 19.86339403421512 90.95421819133371 1.9999999999999998
    vertex 24.914505294781513 100.34244675898748 1.9999999999999998
  endloop
endfacet
facet normal -0.0 -0.0 1.0
  outer loop
    vertex 24.914505294781513 100.34244675898748 1.9999999999999998
    vertex 19.86339403421512 90.95421819133371 1.9999999999999998
    vertex 24.86339403421512 99.95421819133371 1.9999999999999998
  endloop
endfacet
facet normal -0.0 -0.0 1.0
  outer loop
    vertex 43.86339403421513 103.45421819133372 1.9999999999999998
    vertex 26.363394034215116 101.45421819133372 1.9999999999999998
    vertex 26.751622601868895 101.40310693076734 1.9999999999999998
  endloop
endfacet
facet normal -0.0 -0.0 1.0
  outer loop
    vertex 43.86339403421513 103.45421819133372 1.9999999999999998
    vertex 26.751622601868895 101.40310693076734 1.9999999999999998
    vertex 27.113394034215126 101.25325629701035 1.9999999999999998
  endloop
endfacet
facet normal -0.0 -0.0 1.0
  outer loop
    vertex 43.86339403421513 103.45421819133372 1.9999999999999998
    vertex 27.113394034215126 101.25325629701035 1.9999999999999998
    vertex 27.424054205994942 101.01487836311352 1.9999999999999998
  endloop
endfacet
facet normal -0.0 -0.0 1.0
  outer loop
    vertex 43.86339403421513 103.45421819133372 1.9999999999999998
    vertex 27.424054205994942 101.01487836311352 1.9999999999999998
    vertex 27.470600392897037 100.95421819133372 1.9999999999999998
  endloop
endfacet
facet normal -0.0 -0.0 1.0
  outer loop
    vertex 43.86339403421513 103.45421819133372 1.9999999999999998
    vertex 27.470600392897037 100.95421819133372 1.9999999999999998
    vertex 27.662432139891767 100.70421819133371 1.9999999999999998
  endloop
endfacet
facet normal -0.0 -0.0 1.0
  outer loop
    vertex 43.86339403421513 103.45421819133372 1.9999999999999998
    vertex 27.662432139891767 100.70421819133371 1.9999999999999998
    vertex 27.812282773648718 100.34244675898748 1.9999999999999998
  endloop
endfacet
facet normal -0.0 -0.0 1.0
  outer loop
    vertex 43.86339403421513 103.45421819133372 1.9999999999999998
    vertex 27.812282773648718 100.34244675898748 1.9999999999999998
    vertex 27.863394034215116 99.95421819133371 1.9999999999999998
  endloop
endfacet
facet normal -0.0 -0.0 1.0
  outer loop
    vertex 1.8633940342151565 104.95421819133374 1.9999999999999998
    vertex 2.0240020209373433 108.18779655512326 1.9999999999999998
    vertex 1.613394034215158 107.98530710457928 1.9999999999999998
  endloop
endfacet
facet normal -0.0 -0.0 1.0
  outer loop
    vertex 2.0240020209373433 108.18779655512326 1.9999999999999998
    vertex 1.8633940342151565 104.95421819133374 1.9999999999999998
    vertex 1.9145052947815513 105.34244675898752 1.9999999999999998
  endloop
endfacet
facet normal -0.0 -0.0 1.0
  outer loop
    vertex 2.0240020209373433 108.18779655512326 1.9999999999999998
    vertex 1.9145052947815513 105.34244675898752 1.9999999999999998
    vertex 2.0643559285384807 105.70421819133372 1.9999999999999998
  endloop
endfacet
facet normal -0.0 -0.0 1.0
  outer loop
    vertex 2.0240020209373433 108.18779655512326 1.9999999999999998
    vertex 2.0643559285384807 105.70421819133372 1.9999999999999998
    vertex 2.457527376356335 108.33495858334547 1.9999999999999998
  endloop
endfacet
facet normal -0.0 -0.0 1.0
  outer loop
    vertex 2.457527376356335 108.33495858334547 1.9999999999999998
    vertex 2.0643559285384807 105.70421819133372 1.9999999999999998
    vertex 2.3027338624353297 106.01487836311357 1.9999999999999998
  endloop
endfacet
facet normal -0.0 -0.0 1.0
  outer loop
    vertex 2.457527376356335 108.33495858334547 1.9999999999999998
    vertex 2.3027338624353297 106.01487836311357 1.9999999999999998
    vertex 2.6133940342151436 106.2532562970104 1.9999999999999998
  endloop
endfacet
facet normal -0.0 -0.0 1.0
  outer loop
    vertex 2.457527376356335 108.33495858334547 1.9999999999999998
    vertex 2.6133940342151436 106.2532562970104 1.9999999999999998
    vertex 2.9065523614449758 108.42427520614207 1.9999999999999998
  endloop
endfacet
facet normal -0.0 -0.0 1.0
  outer loop
    vertex 2.9065523614449758 108.42427520614207 1.9999999999999998
    vertex 2.6133940342151436 106.2532562970104 1.9999999999999998
    vertex 2.9751654665613754 106.40310693076736 1.9999999999999998
  endloop
endfacet
facet normal -0.0 -0.0 1.0
  outer loop
    vertex 2.9065523614449758 108.42427520614207 1.9999999999999998
    vertex 2.9751654665613754 106.40310693076736 1.9999999999999998
    vertex 4.863394034215151 108.45421819133374 1.9999999999999998
  endloop
endfacet
facet normal -0.0 -0.0 1.0
  outer loop
    vertex 4.863394034215151 108.45421819133374 1.9999999999999998
    vertex 2.9751654665613754 106.40310693076736 1.9999999999999998
    vertex 3.363394034215154 106.45421819133374 1.9999999999999998
  endloop
endfacet
facet normal -0.0 -0.0 1.0
  outer loop
    vertex 4.863394034215151 108.45421819133374 1.9999999999999998
    vertex 3.363394034215154 106.45421819133374 1.9999999999999998
    vertex 3.7516226018689323 106.40310693076736 1.9999999999999998
  endloop
endfacet
facet normal -0.0 -0.0 1.0
  outer loop
    vertex 4.863394034215151 108.45421819133374 1.9999999999999998
    vertex 3.7516226018689323 106.40310693076736 1.9999999999999998
    vertex 4.113394034215141 106.2532562970104 1.9999999999999998
  endloop
endfacet
facet normal -0.0 -0.0 1.0
  outer loop
    vertex 4.863394034215151 108.45421819133374 1.9999999999999998
    vertex 4.113394034215141 106.2532562970104 1.9999999999999998
    vertex 4.4240542059949775 106.01487836311357 1.9999999999999998
  endloop
endfacet
facet normal -0.0 -0.0 1.0
  outer loop
    vertex 4.863394034215151 108.45421819133374 1.9999999999999998
    vertex 4.4240542059949775 106.01487836311357 1.9999999999999998
    vertex 4.662432139891804 105.70421819133372 1.9999999999999998
  endloop
endfacet
facet normal -0.0 -0.0 1.0
  outer loop
    vertex 4.863394034215151 108.45421819133374 1.9999999999999998
    vertex 4.662432139891804 105.70421819133372 1.9999999999999998
    vertex 4.812282773648756 105.34244675898752 1.9999999999999998
  endloop
endfacet
facet normal -0.0 -0.0 1.0
  outer loop
    vertex 4.863394034215151 108.45421819133374 1.9999999999999998
    vertex 4.812282773648756 105.34244675898752 1.9999999999999998
    vertex 4.863394034215151 104.95421819133374 1.9999999999999998
  endloop
endfacet
facet normal -0.0 -0.0 1.0
  outer loop
    vertex 67.86339403421506 78.45421819133371 1.9999999999999998
    vertex 19.86339403421512 90.95421819133371 1.9999999999999998
    vertex 19.86339403421512 78.45421819133371 1.9999999999999998
  endloop
endfacet
facet normal -0.0 -0.0 1.0
  outer loop
    vertex 19.86339403421512 90.95421819133371 1.9999999999999998
    vertex 67.86339403421506 78.45421819133371 1.9999999999999998
    vertex 60.97516546656129 80.50532945190011 1.9999999999999998
  endloop
endfacet
facet normal -0.0 -0.0 1.0
  outer loop
    vertex 19.86339403421512 90.95421819133371 1.9999999999999998
    vertex 60.97516546656129 80.50532945190011 1.9999999999999998
    vertex 60.61339403421504 80.65518008565707 1.9999999999999998
  endloop
endfacet
facet normal -0.0 -0.0 1.0
  outer loop
    vertex 19.86339403421512 90.95421819133371 1.9999999999999998
    vertex 60.61339403421504 80.65518008565707 1.9999999999999998
    vertex 25.61339403421513 98.65518008565705 1.9999999999999998
  endloop
endfacet
facet normal -0.0 -0.0 1.0
  outer loop
    vertex 19.86339403421512 90.95421819133371 1.9999999999999998
    vertex 25.61339403421513 98.65518008565705 1.9999999999999998
    vertex 25.302733862435293 98.89355801955388 1.9999999999999998
  endloop
endfacet
facet normal -0.0 -0.0 1.0
  outer loop
    vertex 19.86339403421512 90.95421819133371 1.9999999999999998
    vertex 25.302733862435293 98.89355801955388 1.9999999999999998
    vertex 25.06435592853847 99.20421819133371 1.9999999999999998
  endloop
endfacet
facet normal -0.0 -0.0 1.0
  outer loop
    vertex 19.86339403421512 90.95421819133371 1.9999999999999998
    vertex 25.06435592853847 99.20421819133371 1.9999999999999998
    vertex 24.914505294781513 99.56598962367993 1.9999999999999998
  endloop
endfacet
facet normal -0.0 -0.0 1.0
  outer loop
    vertex 19.86339403421512 90.95421819133371 1.9999999999999998
    vertex 24.914505294781513 99.56598962367993 1.9999999999999998
    vertex 24.86339403421512 99.95421819133371 1.9999999999999998
  endloop
endfacet
facet normal -0.0 -0.0 1.0
  outer loop
    vertex 25.61339403421513 98.65518008565705 1.9999999999999998
    vertex 60.61339403421504 80.65518008565707 1.9999999999999998
    vertex 25.97516546656134 98.5053294519001 1.9999999999999998
  endloop
endfacet
facet normal -0.0 -0.0 1.0
  outer loop
    vertex 25.97516546656134 98.5053294519001 1.9999999999999998
    vertex 60.61339403421504 80.65518008565707 1.9999999999999998
    vertex 26.363394034215116 98.45421819133371 1.9999999999999998
  endloop
endfacet
facet normal -0.0 -0.0 1.0
  outer loop
    vertex 26.363394034215116 98.45421819133371 1.9999999999999998
    vertex 60.61339403421504 80.65518008565707 1.9999999999999998
    vertex 26.751622601868895 98.5053294519001 1.9999999999999998
  endloop
endfacet
facet normal -0.0 -0.0 1.0
  outer loop
    vertex 26.751622601868895 98.5053294519001 1.9999999999999998
    vertex 60.61339403421504 80.65518008565707 1.9999999999999998
    vertex 27.113394034215126 98.65518008565705 1.9999999999999998
  endloop
endfacet
facet normal -0.0 -0.0 1.0
  outer loop
    vertex 27.113394034215126 98.65518008565705 1.9999999999999998
    vertex 60.61339403421504 80.65518008565707 1.9999999999999998
    vertex 27.424054205994942 98.89355801955388 1.9999999999999998
  endloop
endfacet
facet normal -0.0 -0.0 1.0
  outer loop
    vertex 27.424054205994942 98.89355801955388 1.9999999999999998
    vertex 60.61339403421504 80.65518008565707 1.9999999999999998
    vertex 27.66243213989179 99.20421819133371 1.9999999999999998
  endloop
endfacet
facet normal -0.0 -0.0 1.0
  outer loop
    vertex 27.66243213989179 99.20421819133371 1.9999999999999998
    vertex 60.61339403421504 80.65518008565707 1.9999999999999998
    vertex 27.812282773648718 99.56598962367993 1.9999999999999998
  endloop
endfacet
facet normal -0.0 -0.0 1.0
  outer loop
    vertex 27.812282773648718 99.56598962367993 1.9999999999999998
    vertex 60.61339403421504 80.65518008565707 1.9999999999999998
    vertex 27.863394034215116 99.95421819133371 1.9999999999999998
  endloop
endfacet
facet normal -0.0 -0.0 1.0
  outer loop
    vertex 27.863394034215116 99.95421819133371 1.9999999999999998
    vertex 60.61339403421504 80.65518008565707 1.9999999999999998
    vertex 60.30273386243525 80.8935580195539 1.9999999999999998
  endloop
endfacet
facet normal -0.0 -0.0 1.0
  outer loop
    vertex 27.863394034215116 99.95421819133371 1.9999999999999998
    vertex 60.30273386243525 80.8935580195539 1.9999999999999998
    vertex 60.25618767553313 80.95421819133371 1.9999999999999998
  endloop
endfacet
facet normal -0.0 -0.0 1.0
  outer loop
    vertex 27.863394034215116 99.95421819133371 1.9999999999999998
    vertex 60.25618767553313 80.95421819133371 1.9999999999999998
    vertex 60.06435592853842 81.20421819133372 1.9999999999999998
  endloop
endfacet
facet normal -0.0 -0.0 1.0
  outer loop
    vertex 27.863394034215116 99.95421819133371 1.9999999999999998
    vertex 60.06435592853842 81.20421819133372 1.9999999999999998
    vertex 43.86339403421513 103.45421819133372 1.9999999999999998
  endloop
endfacet
facet normal -0.0 -0.0 1.0
  outer loop
    vertex 43.86339403421513 103.45421819133372 1.9999999999999998
    vertex 60.06435592853842 81.20421819133372 1.9999999999999998
    vertex 59.91450529478144 81.56598962367994 1.9999999999999998
  endloop
endfacet
facet normal -0.0 -0.0 1.0
  outer loop
    vertex 43.86339403421513 103.45421819133372 1.9999999999999998
    vertex 59.91450529478144 81.56598962367994 1.9999999999999998
    vertex 59.86339403421507 81.95421819133371 1.9999999999999998
  endloop
endfacet
facet normal -0.0 -0.0 1.0
  outer loop
    vertex 60.97516546656129 80.50532945190011 1.9999999999999998
    vertex 67.86339403421506 78.45421819133371 1.9999999999999998
    vertex 61.36339403421509 80.45421819133372 1.9999999999999998
  endloop
endfacet
facet normal -0.0 -0.0 1.0
  outer loop
    vertex 61.36339403421509 80.45421819133372 1.9999999999999998
    vertex 67.86339403421506 78.45421819133371 1.9999999999999998
    vertex 61.751622601868846 80.50532945190011 1.9999999999999998
  endloop
endfacet
facet normal -0.0 -0.0 1.0
  outer loop
    vertex 61.751622601868846 80.50532945190011 1.9999999999999998
    vertex 67.86339403421506 78.45421819133371 1.9999999999999998
    vertex 62.113394034215055 80.65518008565707 1.9999999999999998
  endloop
endfacet
facet normal -0.0 -0.0 1.0
  outer loop
    vertex 62.113394034215055 80.65518008565707 1.9999999999999998
    vertex 67.86339403421506 78.45421819133371 1.9999999999999998
    vertex 62.42405420599489 80.8935580195539 1.9999999999999998
  endloop
endfacet
facet normal -0.0 -0.0 1.0
  outer loop
    vertex 62.42405420599489 80.8935580195539 1.9999999999999998
    vertex 67.86339403421506 78.45421819133371 1.9999999999999998
    vertex 62.66243213989172 81.20421819133372 1.9999999999999998
  endloop
endfacet
facet normal -0.0 -0.0 1.0
  outer loop
    vertex 62.66243213989172 81.20421819133372 1.9999999999999998
    vertex 67.86339403421506 78.45421819133371 1.9999999999999998
    vertex 62.8122827736487 81.56598962367994 1.9999999999999998
  endloop
endfacet
facet normal -0.0 -0.0 1.0
  outer loop
    vertex 62.8122827736487 81.56598962367994 1.9999999999999998
    vertex 67.86339403421506 78.45421819133371 1.9999999999999998
    vertex 62.86339403421507 81.95421819133371 1.9999999999999998
  endloop
endfacet
facet normal -0.0 -0.0 1.0
  outer loop
    vertex 43.86339403421513 103.45421819133372 1.9999999999999998
    vertex 59.91450529478144 82.34244675898749 1.9999999999999998
    vertex 67.86339403421506 103.45421819133372 1.9999999999999998
  endloop
endfacet
facet normal -0.0 -0.0 1.0
  outer loop
    vertex 59.91450529478144 82.34244675898749 1.9999999999999998
    vertex 43.86339403421513 103.45421819133372 1.9999999999999998
    vertex 59.86339403421507 81.95421819133371 1.9999999999999998
  endloop
endfacet
facet normal -0.0 -0.0 1.0
  outer loop
    vertex 67.86339403421506 103.45421819133372 1.9999999999999998
    vertex 59.91450529478144 82.34244675898749 1.9999999999999998
    vertex 60.064355928538376 82.70421819133371 1.9999999999999998
  endloop
endfacet
facet normal -0.0 -0.0 1.0
  outer loop
    vertex 67.86339403421506 103.45421819133372 1.9999999999999998
    vertex 60.064355928538376 82.70421819133371 1.9999999999999998
    vertex 60.30273386243525 83.01487836311354 1.9999999999999998
  endloop
endfacet
facet normal -0.0 -0.0 1.0
  outer loop
    vertex 67.86339403421506 103.45421819133372 1.9999999999999998
    vertex 60.30273386243525 83.01487836311354 1.9999999999999998
    vertex 60.61339403421504 83.25325629701037 1.9999999999999998
  endloop
endfacet
facet normal -0.0 -0.0 1.0
  outer loop
    vertex 67.86339403421506 103.45421819133372 1.9999999999999998
    vertex 60.61339403421504 83.25325629701037 1.9999999999999998
    vertex 60.97516546656129 83.40310693076732 1.9999999999999998
  endloop
endfacet
facet normal -0.0 -0.0 1.0
  outer loop
    vertex 67.86339403421506 103.45421819133372 1.9999999999999998
    vertex 60.97516546656129 83.40310693076732 1.9999999999999998
    vertex 61.36339403421509 83.45421819133371 1.9999999999999998
  endloop
endfacet
facet normal -0.0 -0.0 1.0
  outer loop
    vertex 67.86339403421506 103.45421819133372 1.9999999999999998
    vertex 61.36339403421509 83.45421819133371 1.9999999999999998
    vertex 61.751622601868846 83.40310693076732 1.9999999999999998
  endloop
endfacet
facet normal -0.0 -0.0 1.0
  outer loop
    vertex 67.86339403421506 103.45421819133372 1.9999999999999998
    vertex 61.751622601868846 83.40310693076732 1.9999999999999998
    vertex 62.113394034215055 83.25325629701037 1.9999999999999998
  endloop
endfacet
facet normal -0.0 -0.0 1.0
  outer loop
    vertex 67.86339403421506 103.45421819133372 1.9999999999999998
    vertex 62.113394034215055 83.25325629701037 1.9999999999999998
    vertex 62.42405420599489 83.01487836311354 1.9999999999999998
  endloop
endfacet
facet normal -0.0 -0.0 1.0
  outer loop
    vertex 67.86339403421506 103.45421819133372 1.9999999999999998
    vertex 62.42405420599489 83.01487836311354 1.9999999999999998
    vertex 62.66243213989172 82.70421819133371 1.9999999999999998
  endloop
endfacet
facet normal -0.0 -0.0 1.0
  outer loop
    vertex 67.86339403421506 103.45421819133372 1.9999999999999998
    vertex 62.66243213989172 82.70421819133371 1.9999999999999998
    vertex 62.8122827736487 82.34244675898749 1.9999999999999998
  endloop
endfacet
facet normal -0.0 -0.0 1.0
  outer loop
    vertex 67.86339403421506 103.45421819133372 1.9999999999999998
    vertex 62.8122827736487 82.34244675898749 1.9999999999999998
    vertex 62.86339403421507 81.95421819133371 1.9999999999999998
  endloop
endfacet
facet normal -0.0 -0.0 1.0
  outer loop
    vertex 67.86339403421506 103.45421819133372 1.9999999999999998
    vertex 62.86339403421507 81.95421819133371 1.9999999999999998
    vertex 67.86339403421506 78.45421819133371 1.9999999999999998
  endloop
endfacet
facet normal -0.015299899206272196 0.9998829496917517 0.0
  outer loop
    vertex 2.9065523614449758 108.42427520614207 1.9999999999999998
    vertex 4.863394034215151 108.45421819133374 0.0
    vertex 2.9065523614449758 108.42427520614207 0.0
  endloop
endfacet
facet normal -0.015299899206272196 0.9998829496917517 0.0
  outer loop
    vertex 4.863394034215151 108.45421819133374 0.0
    vertex 2.9065523614449758 108.42427520614207 1.9999999999999998
    vertex 4.863394034215151 108.45421819133374 1.9999999999999998
  endloop
endfacet
facet normal 0.12716431598536587 0.9918816646858506 0.0
  outer loop
    vertex 4.863394034215151 108.45421819133374 1.9999999999999998
    vertex 43.86339403421513 103.45421819133372 0.0
    vertex 4.863394034215151 108.45421819133374 0.0
  endloop
endfacet
facet normal 0.12716431598536587 0.9918816646858506 0.0
  outer loop
    vertex 43.86339403421513 103.45421819133372 0.0
    vertex 4.863394034215151 108.45421819133374 1.9999999999999998
    vertex 43.86339403421513 103.45421819133372 1.9999999999999998
  endloop
endfacet
facet normal -0.0 1.0 0.0
  outer loop
    vertex 43.86339403421513 103.45421819133372 1.9999999999999998
    vertex 67.86339403421506 103.45421819133372 0.0
    vertex 43.86339403421513 103.45421819133372 0.0
  endloop
endfacet
facet normal -0.0 1.0 0.0
  outer loop
    vertex 67.86339403421506 103.45421819133372 0.0
    vertex 43.86339403421513 103.45421819133372 1.9999999999999998
    vertex 67.86339403421506 103.45421819133372 1.9999999999999998
  endloop
endfacet
facet normal 1.0 0.0 0.0
  outer loop
    vertex 67.86339403421506 103.45421819133372 0.0
    vertex 67.86339403421506 78.45421819133371 1.9999999999999998
    vertex 67.86339403421506 78.45421819133371 0.0
  endloop
endfacet
facet normal 1.0 0.0 0.0
  outer loop
    vertex 67.86339403421506 78.45421819133371 1.9999999999999998
    vertex 67.86339403421506 103.45421819133372 0.0
    vertex 67.86339403421506 103.45421819133372 1.9999999999999998
  endloop
endfacet
facet normal -0.0 -1.0 -0.0
  outer loop
    vertex 67.86339403421506 78.45421819133371 1.9999999999999998
    vertex 19.86339403421512 78.45421819133371 0.0
    vertex 67.86339403421506 78.45421819133371 0.0
  endloop
endfacet
facet normal -0.0 -1.0 -0.0
  outer loop
    vertex 19.86339403421512 78.45421819133371 0.0
    vertex 67.86339403421506 78.45421819133371 1.9999999999999998
    vertex 19.86339403421512 78.45421819133371 1.9999999999999998
  endloop
endfacet
facet normal -1.0 0.0 0.0
  outer loop
    vertex 19.86339403421512 90.95421819133371 1.9999999999999998
    vertex 19.86339403421512 78.45421819133371 0.0
    vertex 19.86339403421512 78.45421819133371 1.9999999999999998
  endloop
endfacet
facet normal -1.0 0.0 0.0
  outer loop
    vertex 19.86339403421512 78.45421819133371 0.0
    vertex 19.86339403421512 90.95421819133371 1.9999999999999998
    vertex 19.86339403421512 90.95421819133371 0.0
  endloop
endfacet
facet normal -0.5299989400031812 -0.8479983040050872 -0.0
  outer loop
    vertex 19.86339403421512 90.95421819133371 1.9999999999999998
    vertex -0.13660596578483988 103.45421819133372 0.0
    vertex 19.86339403421512 90.95421819133371 0.0
  endloop
endfacet
facet normal -0.5299989400031812 -0.8479983040050872 -0.0
  outer loop
    vertex -0.13660596578483988 103.45421819133372 0.0
    vertex 19.86339403421512 90.95421819133371 1.9999999999999998
    vertex -0.13660596578483988 103.45421819133372 1.9999999999999998
  endloop
endfacet
facet normal -0.9998829496917516 0.015299899206271995 0.0
  outer loop
    vertex -0.10666298059317655 105.41105986410392 1.9999999999999998
    vertex -0.13660596578483988 103.45421819133372 0.0
    vertex -0.13660596578483988 103.45421819133372 1.9999999999999998
  endloop
endfacet
facet normal -0.9998829496917516 0.015299899206271995 0.0
  outer loop
    vertex -0.13660596578483988 103.45421819133372 0.0
    vertex -0.10666298059317655 105.41105986410392 1.9999999999999998
    vertex -0.10666298059317655 105.41105986410392 0.0
  endloop
endfacet
facet normal -0.9807852804032307 0.19509032201612714 0.0
  outer loop
    vertex -0.01734635779657944 105.86008484919256 1.9999999999999998
    vertex -0.10666298059317655 105.41105986410392 0.0
    vertex -0.10666298059317655 105.41105986410392 1.9999999999999998
  endloop
endfacet
facet normal -0.9807852804032307 0.19509032201612714 0.0
  outer loop
    vertex -0.10666298059317655 105.41105986410392 0.0
    vertex -0.01734635779657944 105.86008484919256 1.9999999999999998
    vertex -0.01734635779657944 105.86008484919256 0.0
  endloop
endfacet
facet normal -0.9469301294951029 0.32143946530317 0.0
  outer loop
    vertex 0.12981567042565628 106.29361020461154 1.9999999999999998
    vertex -0.01734635779657944 105.86008484919256 0.0
    vertex -0.01734635779657944 105.86008484919256 1.9999999999999998
  endloop
endfacet
facet normal -0.9469301294951029 0.32143946530317 0.0
  outer loop
    vertex -0.01734635779657944 105.86008484919256 0.0
    vertex 0.12981567042565628 106.29361020461154 1.9999999999999998
    vertex 0.12981567042565628 106.29361020461154 0.0
  endloop
endfacet
facet normal -0.8968727415326968 0.4422886902189844 0.0
  outer loop
    vertex 0.332305120969624 106.70421819133375 1.9999999999999998
    vertex 0.12981567042565628 106.29361020461154 0.0
    vertex 0.12981567042565628 106.29361020461154 1.9999999999999998
  endloop
endfacet
facet normal -0.8968727415326968 0.4422886902189844 0.0
  outer loop
    vertex 0.12981567042565628 106.29361020461154 0.0
    vertex 0.332305120969624 106.70421819133375 1.9999999999999998
    vertex 0.332305120969624 106.70421819133375 0.0
  endloop
endfacet
facet normal -0.8314696123025426 0.5555702330196061 0.0
  outer loop
    vertex 0.5866573431958361 107.08488319286427 1.9999999999999998
    vertex 0.332305120969624 106.70421819133375 0.0
    vertex 0.332305120969624 106.70421819133375 1.9999999999999998
  endloop
endfacet
facet normal -0.8314696123025426 0.5555702330196061 0.0
  outer loop
    vertex 0.332305120969624 106.70421819133375 0.0
    vertex 0.5866573431958361 107.08488319286427 1.9999999999999998
    vertex 0.5866573431958361 107.08488319286427 0.0
  endloop
endfacet
facet normal -0.7518398074789798 0.6593458151000662 0.0
  outer loop
    vertex 0.8885203000622425 107.42909192548666 1.9999999999999998
    vertex 0.5866573431958361 107.08488319286427 0.0
    vertex 0.5866573431958361 107.08488319286427 1.9999999999999998
  endloop
endfacet
facet normal -0.7518398074789798 0.6593458151000662 0.0
  outer loop
    vertex 0.5866573431958361 107.08488319286427 0.0
    vertex 0.8885203000622425 107.42909192548666 1.9999999999999998
    vertex 0.8885203000622425 107.42909192548666 0.0
  endloop
endfacet
facet normal -0.6593458151000681 0.7518398074789783 0.0
  outer loop
    vertex 0.8885203000622425 107.42909192548666 1.9999999999999998
    vertex 1.2327290326846365 107.73095488235307 0.0
    vertex 0.8885203000622425 107.42909192548666 0.0
  endloop
endfacet
facet normal -0.6593458151000681 0.7518398074789783 0.0
  outer loop
    vertex 1.2327290326846365 107.73095488235307 0.0
    vertex 0.8885203000622425 107.42909192548666 1.9999999999999998
    vertex 1.2327290326846365 107.73095488235307 1.9999999999999998
  endloop
endfacet
facet normal -0.555570233019602 0.8314696123025456 0.0
  outer loop
    vertex 1.2327290326846365 107.73095488235307 1.9999999999999998
    vertex 1.613394034215158 107.98530710457928 0.0
    vertex 1.2327290326846365 107.73095488235307 0.0
  endloop
endfacet
facet normal -0.555570233019602 0.8314696123025456 0.0
  outer loop
    vertex 1.613394034215158 107.98530710457928 0.0
    vertex 1.2327290326846365 107.73095488235307 1.9999999999999998
    vertex 1.613394034215158 107.98530710457928 1.9999999999999998
  endloop
endfacet
facet normal -0.44228869021900363 0.8968727415326871 0.0
  outer loop
    vertex 1.613394034215158 107.98530710457928 1.9999999999999998
    vertex 2.0240020209373433 108.18779655512326 0.0
    vertex 1.613394034215158 107.98530710457928 0.0
  endloop
endfacet
facet normal -0.44228869021900363 0.8968727415326871 0.0
  outer loop
    vertex 2.0240020209373433 108.18779655512326 0.0
    vertex 1.613394034215158 107.98530710457928 1.9999999999999998
    vertex 2.0240020209373433 108.18779655512326 1.9999999999999998
  endloop
endfacet
facet normal -0.3214394653031211 0.9469301294951195 0.0
  outer loop
    vertex 2.0240020209373433 108.18779655512326 1.9999999999999998
    vertex 2.457527376356335 108.33495858334547 0.0
    vertex 2.0240020209373433 108.18779655512326 0.0
  endloop
endfacet
facet normal -0.3214394653031211 0.9469301294951195 0.0
  outer loop
    vertex 2.457527376356335 108.33495858334547 0.0
    vertex 2.0240020209373433 108.18779655512326 1.9999999999999998
    vertex 2.457527376356335 108.33495858334547 1.9999999999999998
  endloop
endfacet
facet normal -0.19509032201614726 0.9807852804032267 0.0
  outer loop
    vertex 2.457527376356335 108.33495858334547 1.9999999999999998
    vertex 2.9065523614449758 108.42427520614207 0.0
    vertex 2.457527376356335 108.33495858334547 0.0
  endloop
endfacet
facet normal -0.19509032201614726 0.9807852804032267 0.0
  outer loop
    vertex 2.9065523614449758 108.42427520614207 0.0
    vertex 2.457527376356335 108.33495858334547 1.9999999999999998
    vertex 2.9065523614449758 108.42427520614207 1.9999999999999998
  endloop
endfacet
facet normal 0.13052619222004555 0.9914448613738113 0.0
  outer loop
    vertex 25.97516546656134 98.5053294519001 1.9999999999999998
    vertex 26.363394034215116 98.45421819133371 0.0
    vertex 25.97516546656134 98.5053294519001 0.0
  endloop
endfacet
facet normal 0.13052619222004555 0.9914448613738113 0.0
  outer loop
    vertex 26.363394034215116 98.45421819133371 0.0
    vertex 25.97516546656134 98.5053294519001 1.9999999999999998
    vertex 26.363394034215116 98.45421819133371 1.9999999999999998
  endloop
endfacet
facet normal -0.13052619222004555 0.9914448613738113 0.0
  outer loop
    vertex 26.363394034215116 98.45421819133371 1.9999999999999998
    vertex 26.751622601868895 98.5053294519001 0.0
    vertex 26.363394034215116 98.45421819133371 0.0
  endloop
endfacet
facet normal -0.13052619222004555 0.9914448613738113 0.0
  outer loop
    vertex 26.751622601868895 98.5053294519001 0.0
    vertex 26.363394034215116 98.45421819133371 1.9999999999999998
    vertex 26.751622601868895 98.5053294519001 1.9999999999999998
  endloop
endfacet
facet normal -0.3826834323650952 0.9238795325112845 0.0
  outer loop
    vertex 26.751622601868895 98.5053294519001 1.9999999999999998
    vertex 27.113394034215126 98.65518008565705 0.0
    vertex 26.751622601868895 98.5053294519001 0.0
  endloop
endfacet
facet normal -0.3826834323650952 0.9238795325112845 0.0
  outer loop
    vertex 27.113394034215126 98.65518008565705 0.0
    vertex 26.751622601868895 98.5053294519001 1.9999999999999998
    vertex 27.113394034215126 98.65518008565705 1.9999999999999998
  endloop
endfacet
facet normal -0.608761429008713 0.7933533402912409 0.0
  outer loop
    vertex 27.113394034215126 98.65518008565705 1.9999999999999998
    vertex 27.424054205994942 98.89355801955388 0.0
    vertex 27.113394034215126 98.65518008565705 0.0
  endloop
endfacet
facet normal -0.608761429008713 0.7933533402912409 0.0
  outer loop
    vertex 27.424054205994942 98.89355801955388 0.0
    vertex 27.113394034215126 98.65518008565705 1.9999999999999998
    vertex 27.424054205994942 98.89355801955388 1.9999999999999998
  endloop
endfacet
facet normal -0.7933533402912238 0.6087614290087353 0.0
  outer loop
    vertex 27.66243213989179 99.20421819133371 1.9999999999999998
    vertex 27.424054205994942 98.89355801955388 0.0
    vertex 27.424054205994942 98.89355801955388 1.9999999999999998
  endloop
endfacet
facet normal -0.7933533402912238 0.6087614290087353 0.0
  outer loop
    vertex 27.424054205994942 98.89355801955388 0.0
    vertex 27.66243213989179 99.20421819133371 1.9999999999999998
    vertex 27.66243213989179 99.20421819133371 0.0
  endloop
endfacet
facet normal -0.9238795325113007 0.38268343236505625 0.0
  outer loop
    vertex 27.812282773648718 99.56598962367993 1.9999999999999998
    vertex 27.66243213989179 99.20421819133371 0.0
    vertex 27.66243213989179 99.20421819133371 1.9999999999999998
  endloop
endfacet
facet normal -0.9238795325113007 0.38268343236505625 0.0
  outer loop
    vertex 27.66243213989179 99.20421819133371 0.0
    vertex 27.812282773648718 99.56598962367993 1.9999999999999998
    vertex 27.812282773648718 99.56598962367993 0.0
  endloop
endfacet
facet normal -0.9914448613738113 0.13052619222004555 0.0
  outer loop
    vertex 27.863394034215116 99.95421819133371 1.9999999999999998
    vertex 27.812282773648718 99.56598962367993 0.0
    vertex 27.812282773648718 99.56598962367993 1.9999999999999998
  endloop
endfacet
facet normal -0.9914448613738113 0.13052619222004555 0.0
  outer loop
    vertex 27.812282773648718 99.56598962367993 0.0
    vertex 27.863394034215116 99.95421819133371 1.9999999999999998
    vertex 27.863394034215116 99.95421819133371 0.0
  endloop
endfacet
facet normal -0.9914448613738113 -0.13052619222004555 -0.0
  outer loop
    vertex 27.812282773648718 100.34244675898748 1.9999999999999998
    vertex 27.863394034215116 99.95421819133371 0.0
    vertex 27.863394034215116 99.95421819133371 1.9999999999999998
  endloop
endfacet
facet normal -0.9914448613738113 -0.13052619222004555 -0.0
  outer loop
    vertex 27.863394034215116 99.95421819133371 0.0
    vertex 27.812282773648718 100.34244675898748 1.9999999999999998
    vertex 27.812282773648718 100.34244675898748 0.0
  endloop
endfacet
facet normal -0.9238795325112803 -0.3826834323651054 -0.0
  outer loop
    vertex 27.662432139891767 100.70421819133371 1.9999999999999998
    vertex 27.812282773648718 100.34244675898748 0.0
    vertex 27.812282773648718 100.34244675898748 1.9999999999999998
  endloop
endfacet
facet normal -0.9238795325112803 -0.3826834323651054 -0.0
  outer loop
    vertex 27.812282773648718 100.34244675898748 0.0
    vertex 27.662432139891767 100.70421819133371 1.9999999999999998
    vertex 27.662432139891767 100.70421819133371 0.0
  endloop
endfacet
facet normal -0.793353340291278 -0.608761429008665 -0.0
  outer loop
    vertex 27.470600392897037 100.95421819133372 1.9999999999999998
    vertex 27.662432139891767 100.70421819133371 0.0
    vertex 27.662432139891767 100.70421819133371 1.9999999999999998
  endloop
endfacet
facet normal -0.793353340291278 -0.608761429008665 -0.0
  outer loop
    vertex 27.662432139891767 100.70421819133371 0.0
    vertex 27.470600392897037 100.95421819133372 1.9999999999999998
    vertex 27.470600392897037 100.95421819133372 0.0
  endloop
endfacet
facet normal -0.7933533402911437 -0.6087614290088398 -0.0
  outer loop
    vertex 27.424054205994942 101.01487836311352 1.9999999999999998
    vertex 27.470600392897037 100.95421819133372 0.0
    vertex 27.470600392897037 100.95421819133372 1.9999999999999998
  endloop
endfacet
facet normal -0.7933533402911437 -0.6087614290088398 -0.0
  outer loop
    vertex 27.470600392897037 100.95421819133372 0.0
    vertex 27.424054205994942 101.01487836311352 1.9999999999999998
    vertex 27.424054205994942 101.01487836311352 0.0
  endloop
endfacet
facet normal -0.608761429008713 -0.7933533402912409 -0.0
  outer loop
    vertex 27.424054205994942 101.01487836311352 1.9999999999999998
    vertex 27.113394034215126 101.25325629701035 0.0
    vertex 27.424054205994942 101.01487836311352 0.0
  endloop
endfacet
facet normal -0.608761429008713 -0.7933533402912409 -0.0
  outer loop
    vertex 27.113394034215126 101.25325629701035 0.0
    vertex 27.424054205994942 101.01487836311352 1.9999999999999998
    vertex 27.113394034215126 101.25325629701035 1.9999999999999998
  endloop
endfacet
facet normal -0.3826834323651444 -0.9238795325112641 -0.0
  outer loop
    vertex 27.113394034215126 101.25325629701035 1.9999999999999998
    vertex 26.751622601868895 101.40310693076734 0.0
    vertex 27.113394034215126 101.25325629701035 0.0
  endloop
endfacet
facet normal -0.3826834323651444 -0.9238795325112641 -0.0
  outer loop
    vertex 26.751622601868895 101.40310693076734 0.0
    vertex 27.113394034215126 101.25325629701035 1.9999999999999998
    vertex 26.751622601868895 101.40310693076734 1.9999999999999998
  endloop
endfacet
facet normal -0.13052619222004555 -0.9914448613738113 -0.0
  outer loop
    vertex 26.751622601868895 101.40310693076734 1.9999999999999998
    vertex 26.363394034215116 101.45421819133372 0.0
    vertex 26.751622601868895 101.40310693076734 0.0
  endloop
endfacet
facet normal -0.13052619222004555 -0.9914448613738113 -0.0
  outer loop
    vertex 26.363394034215116 101.45421819133372 0.0
    vertex 26.751622601868895 101.40310693076734 1.9999999999999998
    vertex 26.363394034215116 101.45421819133372 1.9999999999999998
  endloop
endfacet
facet normal 0.13052619222004555 -0.9914448613738113 0.0
  outer loop
    vertex 26.363394034215116 101.45421819133372 1.9999999999999998
    vertex 25.97516546656134 101.40310693076734 0.0
    vertex 26.363394034215116 101.45421819133372 0.0
  endloop
endfacet
facet normal 0.13052619222004555 -0.9914448613738113 0.0
  outer loop
    vertex 25.97516546656134 101.40310693076734 0.0
    vertex 26.363394034215116 101.45421819133372 1.9999999999999998
    vertex 25.97516546656134 101.40310693076734 1.9999999999999998
  endloop
endfacet
facet normal 0.3826834323651648 -0.9238795325112557 0.0
  outer loop
    vertex 25.97516546656134 101.40310693076734 1.9999999999999998
    vertex 25.61339403421513 101.25325629701035 0.0
    vertex 25.97516546656134 101.40310693076734 0.0
  endloop
endfacet
facet normal 0.3826834323651648 -0.9238795325112557 0.0
  outer loop
    vertex 25.61339403421513 101.25325629701035 0.0
    vertex 25.97516546656134 101.40310693076734 1.9999999999999998
    vertex 25.61339403421513 101.25325629701035 1.9999999999999998
  endloop
endfacet
facet normal 0.6087614290086852 -0.7933533402912625 0.0
  outer loop
    vertex 25.61339403421513 101.25325629701035 1.9999999999999998
    vertex 25.302733862435293 101.01487836311352 0.0
    vertex 25.61339403421513 101.25325629701035 0.0
  endloop
endfacet
facet normal 0.6087614290086852 -0.7933533402912625 0.0
  outer loop
    vertex 25.302733862435293 101.01487836311352 0.0
    vertex 25.61339403421513 101.25325629701035 1.9999999999999998
    vertex 25.302733862435293 101.01487836311352 1.9999999999999998
  endloop
endfacet
facet normal 0.7933533402912517 -0.6087614290086991 0.0
  outer loop
    vertex 25.302733862435293 101.01487836311352 0.0
    vertex 25.06435592853847 100.70421819133371 1.9999999999999998
    vertex 25.06435592853847 100.70421819133371 0.0
  endloop
endfacet
facet normal 0.7933533402912517 -0.6087614290086991 0.0
  outer loop
    vertex 25.06435592853847 100.70421819133371 1.9999999999999998
    vertex 25.302733862435293 101.01487836311352 0.0
    vertex 25.302733862435293 101.01487836311352 1.9999999999999998
  endloop
endfacet
facet normal 0.9238795325112803 -0.3826834323651054 0.0
  outer loop
    vertex 25.06435592853847 100.70421819133371 0.0
    vertex 24.914505294781513 100.34244675898748 1.9999999999999998
    vertex 24.914505294781513 100.34244675898748 0.0
  endloop
endfacet
facet normal 0.9238795325112803 -0.3826834323651054 0.0
  outer loop
    vertex 24.914505294781513 100.34244675898748 1.9999999999999998
    vertex 25.06435592853847 100.70421819133371 0.0
    vertex 25.06435592853847 100.70421819133371 1.9999999999999998
  endloop
endfacet
facet normal 0.9914448613738113 -0.13052619222004555 0.0
  outer loop
    vertex 24.914505294781513 100.34244675898748 0.0
    vertex 24.86339403421512 99.95421819133371 1.9999999999999998
    vertex 24.86339403421512 99.95421819133371 0.0
  endloop
endfacet
facet normal 0.9914448613738113 -0.13052619222004555 0.0
  outer loop
    vertex 24.86339403421512 99.95421819133371 1.9999999999999998
    vertex 24.914505294781513 100.34244675898748 0.0
    vertex 24.914505294781513 100.34244675898748 1.9999999999999998
  endloop
endfacet
facet normal 0.9914448613738113 0.13052619222004555 0.0
  outer loop
    vertex 24.86339403421512 99.95421819133371 0.0
    vertex 24.914505294781513 99.56598962367993 1.9999999999999998
    vertex 24.914505294781513 99.56598962367993 0.0
  endloop
endfacet
facet normal 0.9914448613738113 0.13052619222004555 0.0
  outer loop
    vertex 24.914505294781513 99.56598962367993 1.9999999999999998
    vertex 24.86339403421512 99.95421819133371 0.0
    vertex 24.86339403421512 99.95421819133371 1.9999999999999998
  endloop
endfacet
facet normal 0.9238795325112803 0.3826834323651054 0.0
  outer loop
    vertex 24.914505294781513 99.56598962367993 0.0
    vertex 25.06435592853847 99.20421819133371 1.9999999999999998
    vertex 25.06435592853847 99.20421819133371 0.0
  endloop
endfacet
facet normal 0.9238795325112803 0.3826834323651054 0.0
  outer loop
    vertex 25.06435592853847 99.20421819133371 1.9999999999999998
    vertex 24.914505294781513 99.56598962367993 0.0
    vertex 24.914505294781513 99.56598962367993 1.9999999999999998
  endloop
endfacet
facet normal 0.7933533402912517 0.6087614290086991 0.0
  outer loop
    vertex 25.06435592853847 99.20421819133371 0.0
    vertex 25.302733862435293 98.89355801955388 1.9999999999999998
    vertex 25.302733862435293 98.89355801955388 0.0
  endloop
endfacet
facet normal 0.7933533402912517 0.6087614290086991 0.0
  outer loop
    vertex 25.302733862435293 98.89355801955388 1.9999999999999998
    vertex 25.06435592853847 99.20421819133371 0.0
    vertex 25.06435592853847 99.20421819133371 1.9999999999999998
  endloop
endfacet
facet normal 0.6087614290086852 0.7933533402912625 0.0
  outer loop
    vertex 25.302733862435293 98.89355801955388 1.9999999999999998
    vertex 25.61339403421513 98.65518008565705 0.0
    vertex 25.302733862435293 98.89355801955388 0.0
  endloop
endfacet
facet normal 0.6087614290086852 0.7933533402912625 0.0
  outer loop
    vertex 25.61339403421513 98.65518008565705 0.0
    vertex 25.302733862435293 98.89355801955388 1.9999999999999998
    vertex 25.61339403421513 98.65518008565705 1.9999999999999998
  endloop
endfacet
facet normal 0.3826834323651156 0.9238795325112762 0.0
  outer loop
    vertex 25.61339403421513 98.65518008565705 1.9999999999999998
    vertex 25.97516546656134 98.5053294519001 0.0
    vertex 25.61339403421513 98.65518008565705 0.0
  endloop
endfacet
facet normal 0.3826834323651156 0.9238795325112762 0.0
  outer loop
    vertex 25.97516546656134 98.5053294519001 0.0
    vertex 25.61339403421513 98.65518008565705 1.9999999999999998
    vertex 25.97516546656134 98.5053294519001 1.9999999999999998
  endloop
endfacet
facet normal -0.13052619222005302 -0.9914448613738104 -0.0
  outer loop
    vertex 61.751622601868846 83.40310693076732 1.9999999999999998
    vertex 61.36339403421509 83.45421819133371 0.0
    vertex 61.751622601868846 83.40310693076732 0.0
  endloop
endfacet
facet normal -0.13052619222005302 -0.9914448613738104 -0.0
  outer loop
    vertex 61.36339403421509 83.45421819133371 0.0
    vertex 61.751622601868846 83.40310693076732 1.9999999999999998
    vertex 61.36339403421509 83.45421819133371 1.9999999999999998
  endloop
endfacet
facet normal 0.13052619222003808 -0.9914448613738123 0.0
  outer loop
    vertex 61.36339403421509 83.45421819133371 1.9999999999999998
    vertex 60.97516546656129 83.40310693076732 0.0
    vertex 61.36339403421509 83.45421819133371 0.0
  endloop
endfacet
facet normal 0.13052619222003808 -0.9914448613738123 0.0
  outer loop
    vertex 60.97516546656129 83.40310693076732 0.0
    vertex 61.36339403421509 83.45421819133371 1.9999999999999998
    vertex 60.97516546656129 83.40310693076732 1.9999999999999998
  endloop
endfacet
facet normal 0.38268343236507485 -0.923879532511293 0.0
  outer loop
    vertex 60.97516546656129 83.40310693076732 1.9999999999999998
    vertex 60.61339403421504 83.25325629701037 0.0
    vertex 60.97516546656129 83.40310693076732 0.0
  endloop
endfacet
facet normal 0.38268343236507485 -0.923879532511293 0.0
  outer loop
    vertex 60.61339403421504 83.25325629701037 0.0
    vertex 60.97516546656129 83.40310693076732 1.9999999999999998
    vertex 60.61339403421504 83.25325629701037 1.9999999999999998
  endloop
endfacet
facet normal 0.6087614290087409 -0.7933533402912196 0.0
  outer loop
    vertex 60.61339403421504 83.25325629701037 1.9999999999999998
    vertex 60.30273386243525 83.01487836311354 0.0
    vertex 60.61339403421504 83.25325629701037 0.0
  endloop
endfacet
facet normal 0.6087614290087409 -0.7933533402912196 0.0
  outer loop
    vertex 60.30273386243525 83.01487836311354 0.0
    vertex 60.61339403421504 83.25325629701037 1.9999999999999998
    vertex 60.30273386243525 83.01487836311354 1.9999999999999998
  endloop
endfacet
facet normal 0.7933533402911961 -0.6087614290087716 0.0
  outer loop
    vertex 60.30273386243525 83.01487836311354 0.0
    vertex 60.064355928538376 82.70421819133371 1.9999999999999998
    vertex 60.064355928538376 82.70421819133371 0.0
  endloop
endfacet
facet normal 0.7933533402911961 -0.6087614290087716 0.0
  outer loop
    vertex 60.064355928538376 82.70421819133371 1.9999999999999998
    vertex 60.30273386243525 83.01487836311354 0.0
    vertex 60.30273386243525 83.01487836311354 1.9999999999999998
  endloop
endfacet
facet normal 0.9238795325113007 -0.38268343236505625 0.0
  outer loop
    vertex 60.064355928538376 82.70421819133371 0.0
    vertex 59.91450529478144 82.34244675898749 1.9999999999999998
    vertex 59.91450529478144 82.34244675898749 0.0
  endloop
endfacet
facet normal 0.9238795325113007 -0.38268343236505625 0.0
  outer loop
    vertex 59.91450529478144 82.34244675898749 1.9999999999999998
    vertex 60.064355928538376 82.70421819133371 0.0
    vertex 60.064355928538376 82.70421819133371 1.9999999999999998
  endloop
endfacet
facet normal 0.9914448613738187 -0.1305261922199889 0.0
  outer loop
    vertex 59.91450529478144 82.34244675898749 0.0
    vertex 59.86339403421507 81.95421819133371 1.9999999999999998
    vertex 59.86339403421507 81.95421819133371 0.0
  endloop
endfacet
facet normal 0.9914448613738187 -0.1305261922199889 0.0
  outer loop
    vertex 59.86339403421507 81.95421819133371 1.9999999999999998
    vertex 59.91450529478144 82.34244675898749 0.0
    vertex 59.91450529478144 82.34244675898749 1.9999999999999998
  endloop
endfacet
facet normal 0.9914448613738187 0.1305261922199889 0.0
  outer loop
    vertex 59.86339403421507 81.95421819133371 0.0
    vertex 59.91450529478144 81.56598962367994 1.9999999999999998
    vertex 59.91450529478144 81.56598962367994 0.0
  endloop
endfacet
facet normal 0.9914448613738187 0.1305261922199889 0.0
  outer loop
    vertex 59.91450529478144 81.56598962367994 1.9999999999999998
    vertex 59.86339403421507 81.95421819133371 0.0
    vertex 59.86339403421507 81.95421819133371 1.9999999999999998
  endloop
endfacet
facet normal 0.92387953251126 0.3826834323651546 0.0
  outer loop
    vertex 59.91450529478144 81.56598962367994 0.0
    vertex 60.06435592853842 81.20421819133372 1.9999999999999998
    vertex 60.06435592853842 81.20421819133372 0.0
  endloop
endfacet
facet normal 0.92387953251126 0.3826834323651546 0.0
  outer loop
    vertex 60.06435592853842 81.20421819133372 1.9999999999999998
    vertex 59.91450529478144 81.56598962367994 0.0
    vertex 59.91450529478144 81.56598962367994 1.9999999999999998
  endloop
endfacet
facet normal 0.7933533402912993 0.6087614290086373 0.0
  outer loop
    vertex 60.06435592853842 81.20421819133372 0.0
    vertex 60.25618767553313 80.95421819133371 1.9999999999999998
    vertex 60.25618767553313 80.95421819133371 0.0
  endloop
endfacet
facet normal 0.7933533402912993 0.6087614290086373 0.0
  outer loop
    vertex 60.25618767553313 80.95421819133371 1.9999999999999998
    vertex 60.06435592853842 81.20421819133372 0.0
    vertex 60.06435592853842 81.20421819133372 1.9999999999999998
  endloop
endfacet
facet normal 0.793353340291056 0.6087614290089542 0.0
  outer loop
    vertex 60.25618767553313 80.95421819133371 0.0
    vertex 60.30273386243525 80.8935580195539 1.9999999999999998
    vertex 60.30273386243525 80.8935580195539 0.0
  endloop
endfacet
facet normal 0.793353340291056 0.6087614290089542 0.0
  outer loop
    vertex 60.30273386243525 80.8935580195539 1.9999999999999998
    vertex 60.25618767553313 80.95421819133371 0.0
    vertex 60.25618767553313 80.95421819133371 1.9999999999999998
  endloop
endfacet
facet normal 0.6087614290087409 0.7933533402912196 0.0
  outer loop
    vertex 60.30273386243525 80.8935580195539 1.9999999999999998
    vertex 60.61339403421504 80.65518008565707 0.0
    vertex 60.30273386243525 80.8935580195539 0.0
  endloop
endfacet
facet normal 0.6087614290087409 0.7933533402912196 0.0
  outer loop
    vertex 60.61339403421504 80.65518008565707 0.0
    vertex 60.30273386243525 80.8935580195539 1.9999999999999998
    vertex 60.61339403421504 80.65518008565707 1.9999999999999998
  endloop
endfacet
facet normal 0.38268343236507485 0.923879532511293 0.0
  outer loop
    vertex 60.61339403421504 80.65518008565707 1.9999999999999998
    vertex 60.97516546656129 80.50532945190011 0.0
    vertex 60.61339403421504 80.65518008565707 0.0
  endloop
endfacet
facet normal 0.38268343236507485 0.923879532511293 0.0
  outer loop
    vertex 60.97516546656129 80.50532945190011 0.0
    vertex 60.61339403421504 80.65518008565707 1.9999999999999998
    vertex 60.97516546656129 80.50532945190011 1.9999999999999998
  endloop
endfacet
facet normal 0.13052619222003808 0.9914448613738123 0.0
  outer loop
    vertex 60.97516546656129 80.50532945190011 1.9999999999999998
    vertex 61.36339403421509 80.45421819133372 0.0
    vertex 60.97516546656129 80.50532945190011 0.0
  endloop
endfacet
facet normal 0.13052619222003808 0.9914448613738123 0.0
  outer loop
    vertex 61.36339403421509 80.45421819133372 0.0
    vertex 60.97516546656129 80.50532945190011 1.9999999999999998
    vertex 61.36339403421509 80.45421819133372 1.9999999999999998
  endloop
endfacet
facet normal -0.13052619222005302 0.9914448613738104 0.0
  outer loop
    vertex 61.36339403421509 80.45421819133372 1.9999999999999998
    vertex 61.751622601868846 80.50532945190011 0.0
    vertex 61.36339403421509 80.45421819133372 0.0
  endloop
endfacet
facet normal -0.13052619222005302 0.9914448613738104 0.0
  outer loop
    vertex 61.751622601868846 80.50532945190011 0.0
    vertex 61.36339403421509 80.45421819133372 1.9999999999999998
    vertex 61.751622601868846 80.50532945190011 1.9999999999999998
  endloop
endfacet
facet normal -0.3826834323651156 0.9238795325112762 0.0
  outer loop
    vertex 61.751622601868846 80.50532945190011 1.9999999999999998
    vertex 62.113394034215055 80.65518008565707 0.0
    vertex 61.751622601868846 80.50532945190011 0.0
  endloop
endfacet
facet normal -0.3826834323651156 0.9238795325112762 0.0
  outer loop
    vertex 62.113394034215055 80.65518008565707 0.0
    vertex 61.751622601868846 80.50532945190011 1.9999999999999998
    vertex 62.113394034215055 80.65518008565707 1.9999999999999998
  endloop
endfacet
facet normal -0.6087614290086852 0.7933533402912625 0.0
  outer loop
    vertex 62.113394034215055 80.65518008565707 1.9999999999999998
    vertex 62.42405420599489 80.8935580195539 0.0
    vertex 62.113394034215055 80.65518008565707 0.0
  endloop
endfacet
facet normal -0.6087614290086852 0.7933533402912625 0.0
  outer loop
    vertex 62.42405420599489 80.8935580195539 0.0
    vertex 62.113394034215055 80.65518008565707 1.9999999999999998
    vertex 62.42405420599489 80.8935580195539 1.9999999999999998
  endloop
endfacet
facet normal -0.7933533402912517 0.6087614290086991 0.0
  outer loop
    vertex 62.66243213989172 81.20421819133372 1.9999999999999998
    vertex 62.42405420599489 80.8935580195539 0.0
    vertex 62.42405420599489 80.8935580195539 1.9999999999999998
  endloop
endfacet
facet normal -0.7933533402912517 0.6087614290086991 0.0
  outer loop
    vertex 62.42405420599489 80.8935580195539 0.0
    vertex 62.66243213989172 81.20421819133372 1.9999999999999998
    vertex 62.66243213989172 81.20421819133372 0.0
  endloop
endfacet
facet normal -0.92387953251126 0.3826834323651546 0.0
  outer loop
    vertex 62.8122827736487 81.56598962367994 1.9999999999999998
    vertex 62.66243213989172 81.20421819133372 0.0
    vertex 62.66243213989172 81.20421819133372 1.9999999999999998
  endloop
endfacet
facet normal -0.92387953251126 0.3826834323651546 0.0
  outer loop
    vertex 62.66243213989172 81.20421819133372 0.0
    vertex 62.8122827736487 81.56598962367994 1.9999999999999998
    vertex 62.8122827736487 81.56598962367994 0.0
  endloop
endfacet
facet normal -0.9914448613738187 0.1305261922199889 0.0
  outer loop
    vertex 62.86339403421507 81.95421819133371 1.9999999999999998
    vertex 62.8122827736487 81.56598962367994 0.0
    vertex 62.8122827736487 81.56598962367994 1.9999999999999998
  endloop
endfacet
facet normal -0.9914448613738187 0.1305261922199889 0.0
  outer loop
    vertex 62.8122827736487 81.56598962367994 0.0
    vertex 62.86339403421507 81.95421819133371 1.9999999999999998
    vertex 62.86339403421507 81.95421819133371 0.0
  endloop
endfacet
facet normal -0.9914448613738187 -0.1305261922199889 -0.0
  outer loop
    vertex 62.8122827736487 82.34244675898749 1.9999999999999998
    vertex 62.86339403421507 81.95421819133371 0.0
    vertex 62.86339403421507 81.95421819133371 1.9999999999999998
  endloop
endfacet
facet normal -0.9914448613738187 -0.1305261922199889 -0.0
  outer loop
    vertex 62.86339403421507 81.95421819133371 0.0
    vertex 62.8122827736487 82.34244675898749 1.9999999999999998
    vertex 62.8122827736487 82.34244675898749 0.0
  endloop
endfacet
facet normal -0.92387953251126 -0.3826834323651546 -0.0
  outer loop
    vertex 62.66243213989172 82.70421819133371 1.9999999999999998
    vertex 62.8122827736487 82.34244675898749 0.0
    vertex 62.8122827736487 82.34244675898749 1.9999999999999998
  endloop
endfacet
facet normal -0.92387953251126 -0.3826834323651546 -0.0
  outer loop
    vertex 62.8122827736487 82.34244675898749 0.0
    vertex 62.66243213989172 82.70421819133371 1.9999999999999998
    vertex 62.66243213989172 82.70421819133371 0.0
  endloop
endfacet
facet normal -0.7933533402912517 -0.6087614290086991 -0.0
  outer loop
    vertex 62.42405420599489 83.01487836311354 1.9999999999999998
    vertex 62.66243213989172 82.70421819133371 0.0
    vertex 62.66243213989172 82.70421819133371 1.9999999999999998
  endloop
endfacet
facet normal -0.7933533402912517 -0.6087614290086991 -0.0
  outer loop
    vertex 62.66243213989172 82.70421819133371 0.0
    vertex 62.42405420599489 83.01487836311354 1.9999999999999998
    vertex 62.42405420599489 83.01487836311354 0.0
  endloop
endfacet
facet normal -0.6087614290086852 -0.7933533402912625 -0.0
  outer loop
    vertex 62.42405420599489 83.01487836311354 1.9999999999999998
    vertex 62.113394034215055 83.25325629701037 0.0
    vertex 62.42405420599489 83.01487836311354 0.0
  endloop
endfacet
facet normal -0.6087614290086852 -0.7933533402912625 -0.0
  outer loop
    vertex 62.113394034215055 83.25325629701037 0.0
    vertex 62.42405420599489 83.01487836311354 1.9999999999999998
    vertex 62.113394034215055 83.25325629701037 1.9999999999999998
  endloop
endfacet
facet normal -0.3826834323651156 -0.9238795325112762 -0.0
  outer loop
    vertex 62.113394034215055 83.25325629701037 1.9999999999999998
    vertex 61.751622601868846 83.40310693076732 0.0
    vertex 62.113394034215055 83.25325629701037 0.0
  endloop
endfacet
facet normal -0.3826834323651156 -0.9238795325112762 -0.0
  outer loop
    vertex 61.751622601868846 83.40310693076732 0.0
    vertex 62.113394034215055 83.25325629701037 1.9999999999999998
    vertex 61.751622601868846 83.40310693076732 1.9999999999999998
  endloop
endfacet
facet normal -0.9914448613738123 0.13052619222003808 0.0
  outer loop
    vertex 4.863394034215151 104.95421819133374 1.9999999999999998
    vertex 4.812282773648756 104.56598962367994 0.0
    vertex 4.812282773648756 104.56598962367994 1.9999999999999998
  endloop
endfacet
facet normal -0.9914448613738123 0.13052619222003808 0.0
  outer loop
    vertex 4.812282773648756 104.56598962367994 0.0
    vertex 4.863394034215151 104.95421819133374 1.9999999999999998
    vertex 4.863394034215151 104.95421819133374 0.0
  endloop
endfacet
facet normal -0.9914448613738113 -0.13052619222004555 -0.0
  outer loop
    vertex 4.812282773648756 105.34244675898752 1.9999999999999998
    vertex 4.863394034215151 104.95421819133374 0.0
    vertex 4.863394034215151 104.95421819133374 1.9999999999999998
  endloop
endfacet
facet normal -0.9914448613738113 -0.13052619222004555 -0.0
  outer loop
    vertex 4.863394034215151 104.95421819133374 0.0
    vertex 4.812282773648756 105.34244675898752 1.9999999999999998
    vertex 4.812282773648756 105.34244675898752 0.0
  endloop
endfacet
facet normal -0.9238795325112762 -0.3826834323651156 -0.0
  outer loop
    vertex 4.662432139891804 105.70421819133372 1.9999999999999998
    vertex 4.812282773648756 105.34244675898752 0.0
    vertex 4.812282773648756 105.34244675898752 1.9999999999999998
  endloop
endfacet
facet normal -0.9238795325112762 -0.3826834323651156 -0.0
  outer loop
    vertex 4.812282773648756 105.34244675898752 0.0
    vertex 4.662432139891804 105.70421819133372 1.9999999999999998
    vertex 4.662432139891804 105.70421819133372 0.0
  endloop
endfacet
facet normal -0.7933533402912625 -0.6087614290086852 -0.0
  outer loop
    vertex 4.4240542059949775 106.01487836311357 1.9999999999999998
    vertex 4.662432139891804 105.70421819133372 0.0
    vertex 4.662432139891804 105.70421819133372 1.9999999999999998
  endloop
endfacet
facet normal -0.7933533402912625 -0.6087614290086852 -0.0
  outer loop
    vertex 4.662432139891804 105.70421819133372 0.0
    vertex 4.4240542059949775 106.01487836311357 1.9999999999999998
    vertex 4.4240542059949775 106.01487836311357 0.0
  endloop
endfacet
facet normal -0.6087614290086852 -0.7933533402912625 -0.0
  outer loop
    vertex 4.4240542059949775 106.01487836311357 1.9999999999999998
    vertex 4.113394034215141 106.2532562970104 0.0
    vertex 4.4240542059949775 106.01487836311357 0.0
  endloop
endfacet
facet normal -0.6087614290086852 -0.7933533402912625 -0.0
  outer loop
    vertex 4.113394034215141 106.2532562970104 0.0
    vertex 4.4240542059949775 106.01487836311357 1.9999999999999998
    vertex 4.113394034215141 106.2532562970104 1.9999999999999998
  endloop
endfacet
facet normal -0.3826834323651648 -0.9238795325112557 -0.0
  outer loop
    vertex 4.113394034215141 106.2532562970104 1.9999999999999998
    vertex 3.7516226018689323 106.40310693076736 0.0
    vertex 4.113394034215141 106.2532562970104 0.0
  endloop
endfacet
facet normal -0.3826834323651648 -0.9238795325112557 -0.0
  outer loop
    vertex 3.7516226018689323 106.40310693076736 0.0
    vertex 4.113394034215141 106.2532562970104 1.9999999999999998
    vertex 3.7516226018689323 106.40310693076736 1.9999999999999998
  endloop
endfacet
facet normal -0.1305261922199889 -0.9914448613738187 -0.0
  outer loop
    vertex 3.7516226018689323 106.40310693076736 1.9999999999999998
    vertex 3.363394034215154 106.45421819133374 0.0
    vertex 3.7516226018689323 106.40310693076736 0.0
  endloop
endfacet
facet normal -0.1305261922199889 -0.9914448613738187 -0.0
  outer loop
    vertex 3.363394034215154 106.45421819133374 0.0
    vertex 3.7516226018689323 106.40310693076736 1.9999999999999998
    vertex 3.363394034215154 106.45421819133374 1.9999999999999998
  endloop
endfacet
facet normal 0.1305261922199889 -0.9914448613738187 0.0
  outer loop
    vertex 3.363394034215154 106.45421819133374 1.9999999999999998
    vertex 2.9751654665613754 106.40310693076736 0.0
    vertex 3.363394034215154 106.45421819133374 0.0
  endloop
endfacet
facet normal 0.1305261922199889 -0.9914448613738187 0.0
  outer loop
    vertex 2.9751654665613754 106.40310693076736 0.0
    vertex 3.363394034215154 106.45421819133374 1.9999999999999998
    vertex 2.9751654665613754 106.40310693076736 1.9999999999999998
  endloop
endfacet
facet normal 0.3826834323651444 -0.9238795325112641 0.0
  outer loop
    vertex 2.9751654665613754 106.40310693076736 1.9999999999999998
    vertex 2.6133940342151436 106.2532562970104 0.0
    vertex 2.9751654665613754 106.40310693076736 0.0
  endloop
endfacet
facet normal 0.3826834323651444 -0.9238795325112641 0.0
  outer loop
    vertex 2.6133940342151436 106.2532562970104 0.0
    vertex 2.9751654665613754 106.40310693076736 1.9999999999999998
    vertex 2.6133940342151436 106.2532562970104 1.9999999999999998
  endloop
endfacet
facet normal 0.608761429008713 -0.7933533402912409 0.0
  outer loop
    vertex 2.6133940342151436 106.2532562970104 1.9999999999999998
    vertex 2.3027338624353297 106.01487836311357 0.0
    vertex 2.6133940342151436 106.2532562970104 0.0
  endloop
endfacet
facet normal 0.608761429008713 -0.7933533402912409 0.0
  outer loop
    vertex 2.3027338624353297 106.01487836311357 0.0
    vertex 2.6133940342151436 106.2532562970104 1.9999999999999998
    vertex 2.3027338624353297 106.01487836311357 1.9999999999999998
  endloop
endfacet
facet normal 0.7933533402912346 -0.6087614290087215 0.0
  outer loop
    vertex 2.3027338624353297 106.01487836311357 0.0
    vertex 2.0643559285384807 105.70421819133372 1.9999999999999998
    vertex 2.0643559285384807 105.70421819133372 0.0
  endloop
endfacet
facet normal 0.7933533402912346 -0.6087614290087215 0.0
  outer loop
    vertex 2.0643559285384807 105.70421819133372 1.9999999999999998
    vertex 2.3027338624353297 106.01487836311357 0.0
    vertex 2.3027338624353297 106.01487836311357 1.9999999999999998
  endloop
endfacet
facet normal 0.9238795325112964 -0.38268343236506636 0.0
  outer loop
    vertex 2.0643559285384807 105.70421819133372 0.0
    vertex 1.9145052947815513 105.34244675898752 1.9999999999999998
    vertex 1.9145052947815513 105.34244675898752 0.0
  endloop
endfacet
facet normal 0.9238795325112964 -0.38268343236506636 0.0
  outer loop
    vertex 1.9145052947815513 105.34244675898752 1.9999999999999998
    vertex 2.0643559285384807 105.70421819133372 0.0
    vertex 2.0643559285384807 105.70421819133372 1.9999999999999998
  endloop
endfacet
facet normal 0.9914448613738113 -0.13052619222004555 0.0
  outer loop
    vertex 1.9145052947815513 105.34244675898752 0.0
    vertex 1.8633940342151565 104.95421819133374 1.9999999999999998
    vertex 1.8633940342151565 104.95421819133374 0.0
  endloop
endfacet
facet normal 0.9914448613738113 -0.13052619222004555 0.0
  outer loop
    vertex 1.8633940342151565 104.95421819133374 1.9999999999999998
    vertex 1.9145052947815513 105.34244675898752 0.0
    vertex 1.9145052947815513 105.34244675898752 1.9999999999999998
  endloop
endfacet
facet normal 0.9914448613738123 0.13052619222003808 0.0
  outer loop
    vertex 1.8633940342151565 104.95421819133374 0.0
    vertex 1.9145052947815513 104.56598962367994 1.9999999999999998
    vertex 1.9145052947815513 104.56598962367994 0.0
  endloop
endfacet
facet normal 0.9914448613738123 0.13052619222003808 0.0
  outer loop
    vertex 1.9145052947815513 104.56598962367994 1.9999999999999998
    vertex 1.8633940342151565 104.95421819133374 0.0
    vertex 1.8633940342151565 104.95421819133374 1.9999999999999998
  endloop
endfacet
facet normal 0.9238795325112964 0.38268343236506636 0.0
  outer loop
    vertex 1.9145052947815513 104.56598962367994 0.0
    vertex 2.0643559285384807 104.20421819133374 1.9999999999999998
    vertex 2.0643559285384807 104.20421819133374 0.0
  endloop
endfacet
facet normal 0.9238795325112964 0.38268343236506636 0.0
  outer loop
    vertex 2.0643559285384807 104.20421819133374 1.9999999999999998
    vertex 1.9145052947815513 104.56598962367994 0.0
    vertex 1.9145052947815513 104.56598962367994 1.9999999999999998
  endloop
endfacet
facet normal 0.7933533402912133 0.6087614290087494 0.0
  outer loop
    vertex 2.0643559285384807 104.20421819133374 0.0
    vertex 2.3027338624353297 103.89355801955392 1.9999999999999998
    vertex 2.3027338624353297 103.89355801955392 0.0
  endloop
endfacet
facet normal 0.7933533402912133 0.6087614290087494 0.0
  outer loop
    vertex 2.3027338624353297 103.89355801955392 1.9999999999999998
    vertex 2.0643559285384807 104.20421819133374 0.0
    vertex 2.0643559285384807 104.20421819133374 1.9999999999999998
  endloop
endfacet
facet normal 0.6087614290087494 0.7933533402912133 0.0
  outer loop
    vertex 2.3027338624353297 103.89355801955392 1.9999999999999998
    vertex 2.6133940342151436 103.65518008565707 0.0
    vertex 2.3027338624353297 103.89355801955392 0.0
  endloop
endfacet
facet normal 0.6087614290087494 0.7933533402912133 0.0
  outer loop
    vertex 2.6133940342151436 103.65518008565707 0.0
    vertex 2.3027338624353297 103.89355801955392 1.9999999999999998
    vertex 2.6133940342151436 103.65518008565707 1.9999999999999998
  endloop
endfacet
facet normal 0.382683432365046 0.9238795325113048 0.0
  outer loop
    vertex 2.6133940342151436 103.65518008565707 1.9999999999999998
    vertex 2.9751654665613754 103.50532945190014 0.0
    vertex 2.6133940342151436 103.65518008565707 0.0
  endloop
endfacet
facet normal 0.382683432365046 0.9238795325113048 0.0
  outer loop
    vertex 2.9751654665613754 103.50532945190014 0.0
    vertex 2.6133940342151436 103.65518008565707 1.9999999999999998
    vertex 2.9751654665613754 103.50532945190014 1.9999999999999998
  endloop
endfacet
facet normal 0.13052619222010214 0.9914448613738037 0.0
  outer loop
    vertex 2.9751654665613754 103.50532945190014 1.9999999999999998
    vertex 3.363394034215154 103.45421819133372 0.0
    vertex 2.9751654665613754 103.50532945190014 0.0
  endloop
endfacet
facet normal 0.13052619222010214 0.9914448613738037 0.0
  outer loop
    vertex 3.363394034215154 103.45421819133372 0.0
    vertex 2.9751654665613754 103.50532945190014 1.9999999999999998
    vertex 3.363394034215154 103.45421819133372 1.9999999999999998
  endloop
endfacet
facet normal -0.13052619222010214 0.9914448613738037 0.0
  outer loop
    vertex 3.363394034215154 103.45421819133372 1.9999999999999998
    vertex 3.7516226018689323 103.50532945190014 0.0
    vertex 3.363394034215154 103.45421819133372 0.0
  endloop
endfacet
facet normal -0.13052619222010214 0.9914448613738037 0.0
  outer loop
    vertex 3.7516226018689323 103.50532945190014 0.0
    vertex 3.363394034215154 103.45421819133372 1.9999999999999998
    vertex 3.7516226018689323 103.50532945190014 1.9999999999999998
  endloop
endfacet
facet normal -0.38268343236506636 0.9238795325112964 0.0
  outer loop
    vertex 3.7516226018689323 103.50532945190014 1.9999999999999998
    vertex 4.113394034215141 103.65518008565707 0.0
    vertex 3.7516226018689323 103.50532945190014 0.0
  endloop
endfacet
facet normal -0.38268343236506636 0.9238795325112964 0.0
  outer loop
    vertex 4.113394034215141 103.65518008565707 0.0
    vertex 3.7516226018689323 103.50532945190014 1.9999999999999998
    vertex 4.113394034215141 103.65518008565707 1.9999999999999998
  endloop
endfacet
facet normal -0.6087614290087215 0.7933533402912346 0.0
  outer loop
    vertex 4.113394034215141 103.65518008565707 1.9999999999999998
    vertex 4.4240542059949775 103.89355801955392 0.0
    vertex 4.113394034215141 103.65518008565707 0.0
  endloop
endfacet
facet normal -0.6087614290087215 0.7933533402912346 0.0
  outer loop
    vertex 4.4240542059949775 103.89355801955392 0.0
    vertex 4.113394034215141 103.65518008565707 1.9999999999999998
    vertex 4.4240542059949775 103.89355801955392 1.9999999999999998
  endloop
endfacet
facet normal -0.7933533402912409 0.608761429008713 0.0
  outer loop
    vertex 4.662432139891804 104.20421819133374 1.9999999999999998
    vertex 4.4240542059949775 103.89355801955392 0.0
    vertex 4.4240542059949775 103.89355801955392 1.9999999999999998
  endloop
endfacet
facet normal -0.7933533402912409 0.608761429008713 0.0
  outer loop
    vertex 4.4240542059949775 103.89355801955392 0.0
    vertex 4.662432139891804 104.20421819133374 1.9999999999999998
    vertex 4.662432139891804 104.20421819133374 0.0
  endloop
endfacet
facet normal -0.9238795325112762 0.3826834323651156 0.0
  outer loop
    vertex 4.812282773648756 104.56598962367994 1.9999999999999998
    vertex 4.662432139891804 104.20421819133374 0.0
    vertex 4.662432139891804 104.20421819133374 1.9999999999999998
  endloop
endfacet
facet normal -0.9238795325112762 0.3826834323651156 0.0
  outer loop
    vertex 4.662432139891804 104.20421819133374 0.0
    vertex 4.812282773648756 104.56598962367994 1.9999999999999998
    vertex 4.812282773648756 104.56598962367994 0.0
  endloop
endfacet
endsolid boost_case
